<?xml version="1.0" encoding="UTF-8" standalone="no"?>
<svg
   xmlns:dc="http://purl.org/dc/elements/1.1/"
   xmlns:cc="http://creativecommons.org/ns#"
   xmlns:rdf="http://www.w3.org/1999/02/22-rdf-syntax-ns#"
   xmlns:svg="http://www.w3.org/2000/svg"
   xmlns="http://www.w3.org/2000/svg"
   width="900"
   height="126"
   viewBox="0 0 238.125 33.3375"
   version="1.1"
   id="svg6591">
  <metadata
     id="metadata8141">
    <rdf:RDF>
      <cc:Work
         rdf:about="">
        <dc:format>image/svg+xml</dc:format>
        <dc:type
           rdf:resource="http://purl.org/dc/dcmitype/StillImage" />
        <dc:title></dc:title>
      </cc:Work>
    </rdf:RDF>
  </metadata>
  <defs
     id="defs6585" />
  <path
     d="m 23.397962,22.648669 v 2.453174 c -0.156522,-0.269865 -0.354984,-0.470005 -0.595164,-0.599539 -0.237482,-0.132235 -0.523727,-0.198181 -0.858362,-0.198181 -0.547826,0 -0.994313,0.218624 -1.339743,0.655806 -0.342729,0.437184 -0.513891,1.011779 -0.513891,1.724225 0,0.712445 0.171162,1.287665 0.513891,1.724848 0.34543,0.437184 0.791917,0.655807 1.339743,0.655807 0.334635,0 0.62088,-0.06489 0.858362,-0.19443 0.24018,-0.132233 0.438642,-0.333424 0.595164,-0.603291 v 0.680187 h 0.74458 v -6.298606 z m 2.278752,0 v 0.943384 h 0.745206 v -0.943384 z m 17.552329,0 v 0.943384 h 0.74458 v -0.943384 z m 41.677717,0 v 6.298606 h 0.745206 v -6.298606 z m 11.597564,0 c -0.510043,0 -0.882398,0.116139 -1.117179,0.34822 -0.234785,0.229386 -0.351972,0.596279 -0.351972,1.100928 v 0.315712 h -0.712695 v 0.578909 h 0.712695 v 3.954837 h 0.748955 v -3.954837 h 1.226587 v -0.578909 h -1.226587 v -0.400734 c 0,-0.280662 0.05124,-0.474715 0.153793,-0.582662 0.10525,-0.107948 0.29111,-0.16192 0.558278,-0.16192 h 0.712698 v -0.619544 z m 33.092236,0 v 6.298606 h 0.74521 v -6.298606 z m 19.31719,0 v 6.298606 h 0.74457 v -6.298606 z m 9.97837,0 v 6.298606 h 0.74894 v -2.56258 c 0,-0.442579 0.11614,-0.79204 0.34823,-1.048413 0.23208,-0.256372 0.54879,-0.384481 0.9509,-0.384481 0.33463,0 0.586,0.106897 0.75331,0.32009 0.16733,0.213193 0.25071,0.534303 0.25071,0.96339 v 2.711994 h 0.7452 v -2.736376 c 0,-0.626089 -0.1342,-1.099875 -0.40136,-1.421016 -0.26718,-0.323841 -0.66073,-0.48576 -1.18157,-0.48576 -0.31574,0 -0.59547,0.06763 -0.83836,0.202556 -0.24018,0.134932 -0.44894,0.338854 -0.62706,0.61142 v -2.46943 z m 39.75093,0 v 2.453174 c -0.15652,-0.269865 -0.35436,-0.470005 -0.59453,-0.599539 -0.2375,-0.132235 -0.52373,-0.198181 -0.85837,-0.198181 -0.54781,0 -0.9943,0.218624 -1.33973,0.655806 -0.34273,0.437184 -0.51452,1.011779 -0.51452,1.724225 0,0.712445 0.17179,1.287665 0.51452,1.724848 0.34543,0.437184 0.79192,0.655807 1.33973,0.655807 0.33464,0 0.62087,-0.06489 0.85837,-0.19443 0.24017,-0.132233 0.43801,-0.333424 0.59453,-0.603291 v 0.680187 h 0.74522 v -6.298606 z m 26.09781,0 v 0.943384 h 0.74458 V 22.648669 Z M 2.1258597,22.794333 c -0.6611717,0 -1.18074185,0.15373 -1.55855401,0.461377 -0.37511375,0.307647 -0.56265459,0.728513 -0.56265459,1.262848 0,0.46147 0.13629764,0.821851 0.40886217,1.080922 0.27256467,0.259071 0.71359233,0.449343 1.32348933,0.570782 l 0.4976368,0.09753 c 0.4155936,0.08366 0.7138111,0.209037 0.8946211,0.376354 0.1835087,0.167317 0.275701,0.398962 0.275701,0.695816 0,0.340029 -0.1270559,0.602332 -0.3807299,0.785842 -0.2536739,0.18351 -0.6140543,0.275075 -1.0809223,0.275075 -0.3076473,0 -0.6205665,-0.04746 -0.9390084,-0.141915 C 0.68585934,28.164514 0.36096773,28.024428 0.02903255,27.83822 v 0.842108 c 0.34542849,0.126841 0.67850983,0.222189 0.99964995,0.286952 0.3238393,0.06477 0.6285689,0.09753 0.9146268,0.09753 0.7583232,0 1.3335442,-0.151003 1.7248495,-0.453249 0.3940042,-0.302249 0.5907876,-0.746634 0.5907876,-1.332243 0,-0.491155 -0.1455399,-0.881993 -0.4369952,-1.173448 C 3.5331948,25.811715 3.0839773,25.606116 2.4740803,25.490076 L 1.9801944,25.388798 C 1.5322172,25.305139 1.226862,25.19614 1.0649429,25.061207 0.90572168,24.923576 0.82612699,24.721332 0.82612699,24.454166 c 0,-0.318443 0.1199184,-0.564365 0.36009911,-0.737079 0.2428793,-0.172714 0.5875053,-0.25882 1.032784,-0.25882 0.2563726,0 0.5218312,0.03654 0.7970946,0.1094 0.2752632,0.07287 0.5680209,0.183541 0.8783665,0.331966 V 23.101918 C 3.5868239,22.999373 3.2858768,22.922508 2.9917228,22.871229 2.697569,22.819952 2.4092187,22.794333 2.1258597,22.794333 Z m 56.4205243,0.109401 v 5.622797 c 0,0.523539 -0.07414,0.886025 -0.222563,1.088424 -0.148425,0.202401 -0.40359,0.303833 -0.765209,0.303833 h -0.255071 v 0.688315 H 57.6155 c 0.612597,0 1.056355,-0.16465 1.331618,-0.493886 0.277962,-0.329236 0.416989,-0.858047 0.416989,-1.586686 v -5.622797 z m 41.953416,0 v 6.043536 h 0.81772 v -6.043536 z m 52.54695,0 v 0.688314 h 2.1456 v 5.355222 h 0.82148 v -5.355222 h 2.14558 v -0.688314 z m 50.54704,0 v 6.043536 h 0.81772 v -2.428792 h 1.02841 c 0.67737,0 1.18875,-0.152676 1.53417,-0.457626 0.34813,-0.304947 0.52202,-0.755216 0.52202,-1.351621 0,-0.591008 -0.17389,-1.039172 -0.52202,-1.34412 -0.34542,-0.307647 -0.8568,-0.461377 -1.53417,-0.461377 z m -95.43126,0.222562 v 1.287228 h -0.5464 v 0.578909 h 0.5464 v 2.461304 c 0,0.566716 0.10962,0.957553 0.32823,1.173445 0.21858,0.213195 0.61488,0.320088 1.1897,0.320088 h 0.7652 v -0.623294 h -0.7652 c -0.31035,0 -0.51638,-0.05293 -0.61893,-0.158168 -0.0999,-0.105252 -0.15004,-0.342357 -0.15004,-0.712071 v -2.461304 h 1.53417 v -0.578909 h -1.53417 v -1.287228 z m 23.72153,0 v 1.287228 h -0.5464 v 0.578909 h 0.5464 v 2.461304 c 0,0.566716 0.10899,0.957553 0.32759,1.173445 0.2186,0.213195 0.61551,0.320088 1.19033,0.320088 h 0.76521 v -0.623294 h -0.76521 c -0.31034,0 -0.517,-0.05293 -0.61955,-0.158168 -0.0998,-0.105252 -0.14942,-0.342357 -0.14942,-0.712071 v -2.461304 h 1.53418 v -0.578909 h -1.53418 v -1.287228 z m 89.58965,0 v 1.287228 h -0.5464 v 0.578909 h 0.5464 v 2.461304 c 0,0.566716 0.1096,0.957553 0.32821,1.173445 0.2186,0.213195 0.61552,0.320088 1.19033,0.320088 h 0.76458 v -0.623294 h -0.76458 c -0.31034,0 -0.517,-0.05293 -0.61954,-0.158168 -0.0998,-0.105252 -0.15005,-0.342357 -0.15005,-0.712071 v -2.461304 h 1.53417 v -0.578909 h -1.53417 v -1.287228 z m -17.0622,0.449497 h 1.02841 c 0.38051,0 0.67495,0.09808 0.88274,0.295081 0.20781,0.197003 0.31134,0.476737 0.31134,0.838357 0,0.364318 -0.10356,0.644479 -0.31134,0.841482 -0.20779,0.197001 -0.50223,0.295705 -0.88274,0.295705 h -1.02841 z M 7.4567011,24.304123 c -0.7070484,0 -1.2642121,0.212111 -1.6717097,0.635801 -0.4047989,0.423689 -0.607042,1.004798 -0.607042,1.74423 0,0.728639 0.201191,1.307639 0.6032907,1.736727 0.4021005,0.429088 0.9445629,0.643928 1.6273225,0.643928 0.2509765,0 0.4870304,-0.02458 0.70832,-0.07315 0.2239886,-0.04857 0.4398814,-0.121035 0.6476784,-0.218189 v -0.688314 c -0.210496,0.116042 -0.4226057,0.203833 -0.6357996,0.263199 -0.210496,0.05668 -0.4236583,0.08502 -0.6395511,0.08502 -0.4830597,0 -0.8581421,-0.152675 -1.1253097,-0.457624 -0.2671673,-0.307646 -0.4007353,-0.73838 -0.4007353,-1.291606 0,-0.553225 0.133568,-0.98228 0.4007353,-1.287229 0.2671676,-0.307647 0.64225,-0.461377 1.1253097,-0.461377 0.2158928,0 0.4290551,0.03002 0.6395511,0.0894 0.2131939,0.05668 0.4253036,0.142779 0.6357996,0.258821 V 24.587327 C 8.559463,24.492867 8.3473519,24.423144 8.1287614,24.377269 7.9101696,24.328696 7.6860866,24.304125 7.4567011,24.304125 Z m 4.2017809,0 c -0.242878,0 -0.492583,0.02731 -0.748955,0.08128 -0.256373,0.05127 -0.520779,0.129192 -0.793344,0.23444 v 0.688313 c 0.226686,-0.124136 0.462742,-0.217381 0.708321,-0.27945 0.245576,-0.06207 0.498011,-0.09315 0.757082,-0.09315 0.407498,0 0.723147,0.09492 0.947135,0.283829 0.226687,0.186206 0.340094,0.450613 0.340094,0.793341 v 0.07251 h -1.044036 c -0.677365,0 -1.187693,0.129787 -1.530422,0.388858 -0.3400311,0.259071 -0.51014,0.643395 -0.51014,1.153444 0,0.437182 0.1362978,0.786641 0.408863,1.048412 0.275262,0.25907 0.644884,0.388857 1.109053,0.388857 0.367019,0 0.677834,-0.06489 0.931507,-0.19443 0.253673,-0.132233 0.465159,-0.336156 0.635175,-0.611418 v 0.688313 H 13.61402 V 26.3603 c 0,-0.690855 -0.161919,-1.206017 -0.485759,-1.546049 -0.323839,-0.340025 -0.814005,-0.510134 -1.469779,-0.510134 z m 5.679687,0 c -0.315742,0 -0.595476,0.06763 -0.838355,0.202556 -0.24018,0.134932 -0.448937,0.338854 -0.627048,0.61142 v -0.70457 H 15.12381 v 4.533746 h 0.748956 v -2.56258 c 0,-0.442579 0.11614,-0.79204 0.348221,-1.048413 0.232084,-0.256372 0.548787,-0.384481 0.950888,-0.384481 0.334632,0 0.586014,0.106897 0.753332,0.32009 0.167316,0.213193 0.250693,0.534303 0.250693,0.96339 v 2.711994 h 0.744581 v -2.736376 c 0,-0.626089 -0.13357,-1.099875 -0.400736,-1.421016 -0.267168,-0.323841 -0.660735,-0.48576 -1.181576,-0.48576 z m 12.824152,0 c -0.31574,0 -0.595474,0.06763 -0.838355,0.202556 -0.240179,0.134932 -0.448933,0.338854 -0.627046,0.61142 v -0.70457 h -0.748956 v 4.533746 h 0.748956 v -2.56258 c 0,-0.442579 0.11551,-0.79204 0.347597,-1.048413 0.232082,-0.256372 0.549412,-0.384481 0.951509,-0.384481 0.334636,0 0.585391,0.106897 0.752709,0.32009 0.167317,0.213193 0.251318,0.534303 0.251318,0.96339 v 2.711994 h 0.744579 v -2.736376 c 0,-0.626089 -0.133566,-1.099875 -0.400734,-1.421016 -0.267168,-0.323841 -0.660735,-0.48576 -1.181577,-0.48576 z m 4.66691,0 c -0.24288,0 -0.492584,0.02731 -0.748954,0.08128 -0.256374,0.05127 -0.520781,0.129192 -0.793344,0.23444 v 0.688313 c 0.226688,-0.124136 0.462741,-0.217381 0.708317,-0.27945 0.245579,-0.06207 0.498014,-0.09315 0.757088,-0.09315 0.407496,0 0.723145,0.09492 0.947133,0.283829 0.22669,0.186206 0.340094,0.450613 0.340094,0.793341 v 0.07251 h -1.044039 c -0.67736,0 -1.18769,0.129787 -1.530421,0.388858 -0.340029,0.259071 -0.510139,0.643395 -0.510139,1.153444 0,0.437182 0.136298,0.786641 0.408863,1.048412 0.275264,0.25907 0.644886,0.388857 1.109055,0.388857 0.367016,0 0.677831,-0.06489 0.931507,-0.19443 0.253673,-0.132233 0.465159,-0.336156 0.635174,-0.611418 v 0.688313 H 36.78477 V 26.3603 c 0,-0.690855 -0.161918,-1.206017 -0.485759,-1.546049 -0.323838,-0.340025 -0.814006,-0.510134 -1.46978,-0.510134 z m 12.289632,0 c -0.24288,0 -0.492584,0.02731 -0.748956,0.08128 -0.25637,0.05127 -0.520779,0.129192 -0.793345,0.23444 v 0.688313 c 0.226691,-0.124136 0.462745,-0.217381 0.708321,-0.27945 0.245577,-0.06207 0.498012,-0.09315 0.757084,-0.09315 0.407498,0 0.723146,0.09492 0.947135,0.283829 0.226689,0.186206 0.340093,0.450613 0.340093,0.793341 v 0.07251 h -1.044037 c -0.677361,0 -1.187694,0.129787 -1.530418,0.388858 -0.340032,0.259071 -0.510144,0.643395 -0.510144,1.153444 0,0.437182 0.136301,0.786641 0.408865,1.048412 0.275262,0.25907 0.644884,0.388857 1.109055,0.388857 0.367018,0 0.677834,-0.06489 0.931506,-0.19443 0.253673,-0.132233 0.465158,-0.336156 0.635173,-0.611418 v 0.688313 h 0.745208 V 26.3603 c 0,-0.690855 -0.161921,-1.206017 -0.48576,-1.546049 -0.323841,-0.340025 -0.814006,-0.510134 -1.46978,-0.510134 z m 5.679687,0 c -0.315742,0 -0.595476,0.06763 -0.838355,0.202556 -0.240178,0.134932 -0.448937,0.338854 -0.627047,0.61142 v -0.70457 h -0.748954 v 4.533746 h 0.748954 v -2.56258 c 0,-0.442579 0.116139,-0.79204 0.348221,-1.048413 0.232083,-0.256372 0.548788,-0.384481 0.950886,-0.384481 0.334635,0 0.586017,0.106897 0.753333,0.32009 0.167316,0.213193 0.250693,0.534303 0.250693,0.96339 v 2.711994 h 0.744579 v -2.736376 c 0,-0.626089 -0.133566,-1.099875 -0.400734,-1.421016 -0.267168,-0.323841 -0.660732,-0.48576 -1.181576,-0.48576 z m 9.917106,0 c -0.650378,0 -1.160083,0.210433 -1.529797,0.631425 -0.367019,0.42099 -0.550776,1.003775 -0.550776,1.748606 0,0.74213 0.183757,1.325542 0.550776,1.74923 0.369714,0.420991 0.879419,0.631425 1.529797,0.631425 0.647676,0 1.156952,-0.210434 1.52667,-0.631425 0.369716,-0.423688 0.554527,-1.0071 0.554527,-1.74923 0,-0.744831 -0.184811,-1.327616 -0.554527,-1.748606 -0.369718,-0.420992 -0.878994,-0.631425 -1.52667,-0.631425 z m 10.820475,0 c -0.358922,0 -0.66365,0.06763 -0.914626,0.202556 -0.250974,0.132234 -0.454896,0.336156 -0.611417,0.61142 v -0.70457 h -0.748957 v 4.533746 h 0.748957 v -2.388156 c 0,-0.512744 0.111723,-0.90526 0.335715,-1.177825 0.22669,-0.275262 0.550529,-0.413238 0.971518,-0.413238 0.11874,0 0.226686,0.01197 0.323841,0.03625 0.09986,0.0216 0.192043,0.05708 0.275701,0.105649 l -0.0044,-0.765211 c -0.07555,-0.01349 -0.144233,-0.02273 -0.206305,-0.02813 -0.06205,-0.0081 -0.118765,-0.01251 -0.170046,-0.01251 z m 3.21026,0 c -0.315745,0 -0.595477,0.06763 -0.838357,0.202556 -0.24018,0.134932 -0.448936,0.338854 -0.627046,0.61142 v -0.70457 H 74.53203 v 4.533746 h 0.748958 v -2.56258 c 0,-0.442579 0.116139,-0.79204 0.348221,-1.048413 0.232084,-0.256372 0.548785,-0.384481 0.950887,-0.384481 0.334632,0 0.586016,0.106897 0.753329,0.32009 0.167321,0.213193 0.250696,0.534303 0.250696,0.96339 v 2.711994 h 0.745204 v -2.736376 c 0,-0.626089 -0.13419,-1.099875 -0.401359,-1.421016 -0.267168,-0.323841 -0.660736,-0.48576 -1.181575,-0.48576 z m 4.666909,0 c -0.242881,0 -0.49196,0.02731 -0.748331,0.08128 -0.256371,0.05127 -0.521404,0.129192 -0.793969,0.23444 v 0.688313 c 0.226687,-0.124136 0.463366,-0.217381 0.708944,-0.27945 0.245578,-0.06207 0.497388,-0.09315 0.756457,-0.09315 0.407499,0 0.723774,0.09492 0.947762,0.283829 0.226686,0.186206 0.339469,0.450613 0.339469,0.793341 v 0.07251 h -1.044037 c -0.677363,0 -1.187689,0.129787 -1.53042,0.388858 -0.34003,0.259071 -0.509517,0.643395 -0.509517,1.153444 0,0.437182 0.1363,0.786641 0.408864,1.048412 0.275263,0.25907 0.644885,0.388857 1.109054,0.388857 0.36702,0 0.677208,-0.06489 0.93088,-0.19443 0.253677,-0.132233 0.465162,-0.336156 0.635176,-0.611418 v 0.688313 h 0.745204 V 26.3603 c 0,-0.690855 -0.16192,-1.206017 -0.485756,-1.546049 -0.323839,-0.340025 -0.814007,-0.510134 -1.46978,-0.510134 z m 10.189053,0 c -0.650378,0 -1.16008,0.210433 -1.529798,0.631425 -0.367015,0.42099 -0.550776,1.003775 -0.550776,1.748606 0,0.74213 0.183761,1.325542 0.550776,1.74923 0.369718,0.420991 0.87942,0.631425 1.529798,0.631425 0.647679,0 1.156326,-0.210434 1.526044,-0.631425 0.369716,-0.423688 0.554529,-1.0071 0.554529,-1.74923 0,-0.744831 -0.184813,-1.327616 -0.554529,-1.748606 -0.369718,-0.420992 -0.878365,-0.631425 -1.526044,-0.631425 z m 13.496217,0 c -0.31575,0 -0.59548,0.06763 -0.83836,0.202556 -0.24018,0.134932 -0.44894,0.338854 -0.62705,0.61142 v -0.70457 h -0.74896 v 4.533746 h 0.74896 v -2.56258 c 0,-0.442579 0.11614,-0.79204 0.34822,-1.048413 0.23208,-0.256372 0.54879,-0.384481 0.95089,-0.384481 0.33464,0 0.58601,0.106897 0.75333,0.32009 0.16731,0.213193 0.2507,0.534303 0.2507,0.96339 v 2.711994 h 0.74457 v -2.736376 c 0,-0.626089 -0.13357,-1.099875 -0.40073,-1.421016 -0.26716,-0.323841 -0.66073,-0.48576 -1.18157,-0.48576 z m 8.22913,0 c -0.68005,0 -1.22084,0.218624 -1.62294,0.655806 -0.3994,0.434484 -0.59892,1.02273 -0.59892,1.764861 0,0.717844 0.21044,1.287604 0.63143,1.708594 0.42369,0.420991 0.99723,0.631425 1.72047,0.631425 0.28875,0 0.57332,-0.03002 0.85398,-0.08941 0.28067,-0.05937 0.55431,-0.145477 0.82148,-0.258821 V 28.01201 c -0.26447,0.140327 -0.53161,0.245544 -0.80146,0.315712 -0.26717,0.07017 -0.54355,0.105651 -0.82961,0.105651 -0.49386,0 -0.87986,-0.133567 -1.15781,-0.400734 -0.27527,-0.269868 -0.42901,-0.661328 -0.46139,-1.174074 h 3.42469 v -0.364474 c 0,-0.674665 -0.1783,-1.207259 -0.53451,-1.598565 -0.35353,-0.394004 -0.83551,-0.591412 -1.44541,-0.591412 z m 5.449,0 c -0.35892,0 -0.66426,0.06763 -0.91525,0.202556 -0.25096,0.132234 -0.45427,0.336156 -0.61079,0.61142 v -0.70457 h -0.74896 v 4.533746 h 0.74896 v -2.388156 c 0,-0.512744 0.11178,-0.90526 0.33571,-1.177825 0.22669,-0.275262 0.55053,-0.413238 0.97152,-0.413238 0.11869,0 0.22668,0.01197 0.32384,0.03625 0.0998,0.0216 0.19141,0.05708 0.27508,0.105649 l -0.004,-0.765211 c -0.0755,-0.01349 -0.14421,-0.02273 -0.20631,-0.02813 -0.0621,-0.0081 -0.11879,-0.01251 -0.17004,-0.01251 z m 2.94706,0 c -0.70706,0 -1.26484,0.212111 -1.67232,0.635801 -0.40481,0.423689 -0.60705,1.004798 -0.60705,1.74423 0,0.728639 0.20119,1.307639 0.60329,1.736727 0.40209,0.429088 0.94456,0.643928 1.62732,0.643928 0.25098,0 0.48705,-0.02458 0.70832,-0.07315 0.22397,-0.04857 0.43988,-0.121035 0.64768,-0.218189 v -0.688314 c -0.2105,0.116042 -0.42261,0.203833 -0.63579,0.263199 -0.21051,0.05668 -0.42367,0.08502 -0.63956,0.08502 -0.48306,0 -0.85815,-0.152675 -1.1253,-0.457624 -0.26718,-0.307646 -0.40074,-0.73838 -0.40074,-1.291606 0,-0.553225 0.13356,-0.98228 0.40074,-1.287229 0.26715,-0.307647 0.64224,-0.461377 1.1253,-0.461377 0.21589,0 0.42905,0.03002 0.63956,0.0894 0.21318,0.05668 0.42529,0.142779 0.63579,0.258821 v -0.696446 c -0.2051,-0.09447 -0.41722,-0.164183 -0.63579,-0.210058 -0.2186,-0.04857 -0.44206,-0.07315 -0.67145,-0.07315 z m 20.93578,0 c -0.35893,0 -0.66368,0.06763 -0.91464,0.202556 -0.25097,0.132234 -0.4549,0.336156 -0.61143,0.61142 v -0.70457 h -0.74894 v 4.533746 h 0.74894 v -2.388156 c 0,-0.512744 0.11239,-0.90526 0.33634,-1.177825 0.2267,-0.275262 0.55054,-0.413238 0.97154,-0.413238 0.11867,0 0.22667,0.01197 0.32383,0.03625 0.0998,0.0216 0.19143,0.05708 0.27507,0.105649 l -0.005,-0.765211 c -0.0755,-0.01349 -0.1442,-0.02273 -0.20629,-0.02813 -0.0621,-0.0081 -0.1188,-0.01251 -0.17005,-0.01251 z m 2.76075,0 c -0.24287,0 -0.49259,0.02731 -0.74897,0.08128 -0.25636,0.05127 -0.52078,0.129192 -0.79333,0.23444 v 0.688313 c 0.22667,-0.124136 0.46274,-0.217381 0.70832,-0.27945 0.24558,-0.06207 0.49801,-0.09315 0.75707,-0.09315 0.4075,0 0.72317,0.09492 0.94714,0.283829 0.22669,0.186206 0.3401,0.450613 0.3401,0.793341 v 0.07251 h -1.04403 c -0.67737,0 -1.1877,0.129787 -1.53043,0.388858 -0.34003,0.259071 -0.51014,0.643395 -0.51014,1.153444 0,0.437182 0.13629,0.786641 0.40886,1.048412 0.27526,0.25907 0.64489,0.388857 1.10905,0.388857 0.36702,0 0.67784,-0.06489 0.93151,-0.19443 0.25368,-0.132233 0.46516,-0.336156 0.63518,-0.611418 v 0.688313 h 0.74519 V 26.3603 c 0,-0.690855 -0.16192,-1.206017 -0.48575,-1.546049 -0.32385,-0.340031 -0.814,-0.51014 -1.46977,-0.51014 z m 20.66131,0 c -0.68006,0 -1.22148,0.218624 -1.62358,0.655806 -0.39939,0.434484 -0.59892,1.02273 -0.59892,1.764861 0,0.717844 0.21044,1.287604 0.63142,1.708594 0.4237,0.420991 0.99724,0.631425 1.72048,0.631425 0.28877,0 0.57333,-0.03002 0.85399,-0.08941 0.28065,-0.05937 0.55431,-0.145477 0.82148,-0.258821 V 28.01201 c -0.26447,0.140327 -0.53162,0.245544 -0.80147,0.315712 -0.26717,0.07017 -0.54355,0.105651 -0.82961,0.105651 -0.49386,0 -0.87986,-0.133567 -1.15782,-0.400734 -0.27521,-0.269868 -0.42895,-0.661328 -0.46138,-1.174074 h 3.4247 v -0.364474 c 0,-0.674665 -0.1783,-1.207259 -0.53453,-1.598565 -0.35352,-0.394004 -0.83487,-0.591412 -1.44476,-0.591412 z m 4.95823,0 c -0.65038,0 -1.1601,0.210433 -1.52978,0.631425 -0.36703,0.42099 -0.55079,1.003775 -0.55079,1.748606 0,0.74213 0.18376,1.325542 0.55079,1.74923 0.36968,0.420991 0.8794,0.631425 1.52978,0.631425 0.64767,0 1.15695,-0.210434 1.52667,-0.631425 0.36972,-0.423688 0.55454,-1.0071 0.55454,-1.74923 0,-0.744831 -0.18482,-1.327616 -0.55454,-1.748606 -0.36972,-0.420992 -0.879,-0.631425 -1.52667,-0.631425 z m 5.55841,0 c -0.35891,0 -0.66428,0.06763 -0.91525,0.202556 -0.25098,0.132234 -0.45428,0.336156 -0.6108,0.61142 v -0.70457 h -0.74895 v 4.533746 h 0.74895 v -2.388156 c 0,-0.512744 0.11167,-0.90526 0.33572,-1.177825 0.22668,-0.275262 0.55052,-0.413238 0.97151,-0.413238 0.11881,0 0.22669,0.01197 0.32385,0.03625 0.0998,0.0216 0.19141,0.05708 0.27507,0.105649 l -0.004,-0.765211 c -0.0755,-0.01349 -0.14422,-0.02273 -0.20632,-0.02813 -0.0621,-0.0081 -0.1188,-0.01251 -0.17004,-0.01251 z m 10.30596,0 c -0.24288,0 -0.49259,0.02731 -0.74896,0.08128 -0.25637,0.05127 -0.52078,0.129192 -0.79334,0.23444 v 0.688313 c 0.22668,-0.124136 0.46274,-0.217381 0.70833,-0.27945 0.24557,-0.06207 0.498,-0.09315 0.75707,-0.09315 0.4075,0 0.72313,0.09492 0.94714,0.283829 0.22668,0.186206 0.3401,0.450613 0.3401,0.793341 v 0.07251 h -1.04468 c -0.67736,0 -1.18707,0.129787 -1.52979,0.388858 -0.34004,0.259071 -0.51013,0.643395 -0.51013,1.153444 0,0.437182 0.13628,0.786641 0.40885,1.048412 0.27527,0.25907 0.64489,0.388857 1.10906,0.388857 0.36702,0 0.67722,-0.06489 0.93089,-0.19443 0.25366,-0.132233 0.46578,-0.336156 0.6358,-0.611418 v 0.688313 h 0.74457 V 26.3603 c 0,-0.690855 -0.16192,-1.206017 -0.48576,-1.546049 -0.32383,-0.340031 -0.81338,-0.51014 -1.46915,-0.51014 z m 5.67906,0 c -0.31575,0 -0.59486,0.06763 -0.83773,0.202556 -0.24018,0.134932 -0.44955,0.338854 -0.62767,0.61142 v -0.70457 h -0.74833 v 4.533746 h 0.74833 v -2.56258 c 0,-0.442579 0.11614,-0.79204 0.34822,-1.048413 0.23208,-0.256372 0.54942,-0.384481 0.95151,-0.384481 0.33463,0 0.58539,0.106897 0.75271,0.32009 0.16731,0.213193 0.25133,0.534303 0.25133,0.96339 v 2.711994 h 0.74456 v -2.736376 c 0,-0.626089 -0.13356,-1.099875 -0.40073,-1.421016 -0.26716,-0.323841 -0.66137,-0.48576 -1.1822,-0.48576 z m 18.08247,0 c -0.35892,0 -0.66364,0.06763 -0.91462,0.202556 -0.25097,0.132234 -0.4549,0.336156 -0.61141,0.61142 v -0.70457 h -0.74898 v 4.533746 h 0.74898 v -2.388156 c 0,-0.512744 0.11239,-0.90526 0.33634,-1.177825 0.22667,-0.275262 0.55052,-0.413238 0.97151,-0.413238 0.1188,0 0.22669,0.01197 0.32384,0.03625 0.0998,0.0216 0.1914,0.05708 0.27507,0.105649 l -0.005,-0.765211 c -0.0754,-0.01349 -0.14419,-0.02273 -0.2063,-0.02813 -0.0621,-0.0081 -0.11881,-0.01251 -0.17005,-0.01251 z m 2.76076,0 c -0.24287,0 -0.49257,0.02731 -0.74894,0.08128 -0.25638,0.05127 -0.52079,0.129192 -0.79335,0.23444 v 0.688313 c 0.22668,-0.124136 0.46273,-0.217381 0.7083,-0.27945 0.24559,-0.06207 0.49803,-0.09315 0.7571,-0.09315 0.4075,0 0.72315,0.09492 0.94713,0.283829 0.2267,0.186206 0.34009,0.450613 0.34009,0.793341 v 0.07251 h -1.04403 c -0.67736,0 -1.18769,0.129787 -1.53042,0.388858 -0.34003,0.259071 -0.51014,0.643395 -0.51014,1.153444 0,0.437182 0.13629,0.786641 0.40886,1.048412 0.27527,0.25907 0.64488,0.388857 1.10906,0.388857 0.36702,0 0.67782,-0.06489 0.9315,-0.19443 0.25368,-0.132233 0.46516,-0.336156 0.63517,-0.611418 v 0.688313 h 0.74521 V 26.3603 c 0,-0.690855 -0.16191,-1.206017 -0.48576,-1.546049 -0.32384,-0.340031 -0.814,-0.51014 -1.46978,-0.51014 z m 5.44902,0 c -0.70707,0 -1.26486,0.212111 -1.67235,0.635801 -0.40479,0.423689 -0.60705,1.004798 -0.60705,1.74423 0,0.728639 0.2012,1.307639 0.6033,1.736727 0.4021,0.429088 0.94456,0.643928 1.62732,0.643928 0.25099,0 0.48704,-0.02458 0.70832,-0.07315 0.22399,-0.04857 0.43987,-0.121035 0.64768,-0.218189 v -0.688314 c -0.21048,0.116042 -0.4226,0.203833 -0.6358,0.263199 -0.21049,0.05668 -0.42366,0.08502 -0.63955,0.08502 -0.48306,0 -0.85815,-0.152675 -1.12531,-0.457624 -0.26717,-0.307646 -0.40073,-0.73838 -0.40073,-1.291606 0,-0.553225 0.13356,-0.98228 0.40073,-1.287229 0.26716,-0.307647 0.64225,-0.461377 1.12531,-0.461377 0.21589,0 0.42906,0.03002 0.63955,0.0894 0.2132,0.05668 0.42532,0.142779 0.6358,0.258821 v -0.696446 c -0.2051,-0.09447 -0.41721,-0.164183 -0.6358,-0.210058 -0.21859,-0.04857 -0.44206,-0.07315 -0.67142,-0.07315 z m 10.11963,0 c -0.70703,0 -1.26419,0.212111 -1.6717,0.635801 -0.40478,0.423689 -0.60704,1.004798 -0.60704,1.74423 0,0.728639 0.20056,1.307639 0.60268,1.736727 0.40209,0.429088 0.94456,0.643928 1.6273,0.643928 0.25099,0 0.48705,-0.02458 0.70833,-0.07315 0.22399,-0.04857 0.43988,-0.121035 0.64768,-0.218189 v -0.688314 c -0.21051,0.116042 -0.42198,0.203833 -0.63518,0.263199 -0.2105,0.05668 -0.42366,0.08502 -0.63954,0.08502 -0.48306,0 -0.85815,-0.152675 -1.12532,-0.457624 -0.26716,-0.307646 -0.40073,-0.73838 -0.40073,-1.291606 0,-0.553225 0.13357,-0.98228 0.40073,-1.287229 0.26717,-0.307647 0.64226,-0.461377 1.12532,-0.461377 0.21588,0 0.42904,0.03002 0.63954,0.0894 0.2132,0.05668 0.42467,0.142779 0.63518,0.258821 v -0.696446 c -0.20511,-0.09447 -0.41658,-0.164183 -0.63518,-0.210058 -0.2186,-0.04857 -0.44267,-0.07315 -0.67207,-0.07315 z m 4.50938,0 c -0.68007,0 -1.22084,0.218624 -1.62295,0.655806 -0.39941,0.434484 -0.59953,1.02273 -0.59953,1.764861 0,0.717844 0.21041,1.287604 0.63142,1.708594 0.42368,0.420991 0.99723,0.631425 1.72046,0.631425 0.28878,0 0.57396,-0.03002 0.85463,-0.08941 0.28064,-0.05937 0.5543,-0.145477 0.82147,-0.258821 V 28.01201 c -0.26447,0.140327 -0.53162,0.245544 -0.80147,0.315712 -0.26718,0.07017 -0.54355,0.105651 -0.82961,0.105651 -0.49385,0 -0.87986,-0.133567 -1.15781,-0.400734 -0.27523,-0.269868 -0.42895,-0.661328 -0.46138,-1.174074 h 3.42407 v -0.364474 c 0,-0.674665 -0.17768,-1.207259 -0.5339,-1.598565 -0.35354,-0.394004 -0.83551,-0.591412 -1.4454,-0.591412 z M 25.676714,24.413525 v 4.533746 h 0.745206 v -4.533746 z m 12.111456,0 1.700469,4.533746 h 1.012153 l 1.699843,-4.533746 H 41.41167 l -1.417268,3.805422 -1.416639,-3.805422 z m 5.440873,0 v 4.533746 h 0.74458 v -4.533746 z m 22.72125,0 v 2.744506 c 0,0.623391 0.134623,1.097174 0.404488,1.421015 0.269865,0.323839 0.665737,0.48576 1.186577,0.48576 0.315742,0 0.592125,-0.06595 0.829602,-0.19818 0.240182,-0.134934 0.450616,-0.340533 0.631425,-0.615796 v 0.696441 h 0.745206 v -4.533742 h -0.745206 v 2.570707 c 0,0.442579 -0.117192,0.792042 -0.351972,1.048414 -0.232084,0.256374 -0.549413,0.384479 -0.95151,0.384479 -0.334636,0 -0.585394,-0.106897 -0.752711,-0.320088 -0.167316,-0.215892 -0.251316,-0.538051 -0.251316,-0.96714 v -2.716372 z m 58.307297,0 v 2.744506 c 0,0.623391 0.13463,1.097174 0.40448,1.421015 0.26987,0.323839 0.66575,0.48576 1.18657,0.48576 0.31576,0 0.59212,-0.06595 0.82961,-0.19818 0.24018,-0.134934 0.45061,-0.340533 0.63143,-0.615796 v 0.696441 h 0.74458 v -4.533746 h -0.74458 v 2.570708 c 0,0.442579 -0.11724,0.792041 -0.35198,1.048413 -0.23209,0.256374 -0.54941,0.38448 -0.95151,0.38448 -0.33464,0 -0.5854,-0.106897 -0.7527,-0.320089 -0.16732,-0.215892 -0.25133,-0.538051 -0.25133,-0.96714 v -2.716372 z m 10.8161,0 v 2.744506 c 0,0.623391 0.13524,1.097174 0.40511,1.421015 0.26987,0.323839 0.66511,0.48576 1.18595,0.48576 0.31575,0 0.59212,-0.06595 0.8296,-0.19818 0.24018,-0.134934 0.45062,-0.340533 0.63143,-0.615796 v 0.696441 h 0.74519 v -4.533746 h -0.74519 v 2.570708 c 0,0.442579 -0.11723,0.792041 -0.35198,1.048413 -0.23208,0.256374 -0.54939,0.38448 -0.95151,0.38448 -0.33464,0 -0.58539,-0.106897 -0.75271,-0.320089 -0.16731,-0.215892 -0.25132,-0.538051 -0.25132,-0.96714 v -2.716372 z m 42.15973,0 1.83362,4.460603 -0.13316,0.340093 c -0.13762,0.36162 -0.26363,0.591163 -0.37698,0.688316 -0.11336,0.09714 -0.27252,0.145664 -0.47763,0.145664 h -0.43699 v 0.623296 h 0.59517 c 0.33463,0 0.60175,-0.08232 0.80147,-0.246942 0.19969,-0.164619 0.40466,-0.516812 0.61515,-1.056539 l 1.99181,-4.954491 h -0.7896 l -1.41664,3.545978 -1.41664,-3.545978 z m 47.50744,0 v 4.533746 h 0.74458 V 24.413525 Z M 22.126988,24.927416 c 0.394004,0 0.704193,0.156461 0.930881,0.469505 0.226686,0.310345 0.340093,0.739401 0.340093,1.287229 0,0.547827 -0.113405,0.978561 -0.340093,1.291606 -0.226688,0.310345 -0.536877,0.465754 -0.930881,0.46575 -0.394005,0 -0.70482,-0.155405 -0.931506,-0.46575 -0.223989,-0.313045 -0.335719,-0.743779 -0.335719,-1.291606 0,-0.547828 0.111724,-0.976884 0.335719,-1.287229 0.226686,-0.313044 0.537501,-0.469505 0.931506,-0.469505 z m 175.245092,0 c 0.39399,0 0.70482,0.156461 0.93151,0.469505 0.22669,0.310345 0.33946,0.739401 0.33946,1.287229 0,0.547827 -0.11274,0.978561 -0.33946,1.291606 -0.22669,0.310345 -0.53752,0.465754 -0.93151,0.46575 -0.39401,0 -0.7042,-0.155405 -0.93088,-0.46575 -0.22398,-0.313045 -0.33571,-0.743779 -0.33571,-1.291606 0,-0.547828 0.11166,-0.976884 0.33571,-1.287229 0.22668,-0.313044 0.53687,-0.469505 0.93088,-0.469505 z m -134.656424,0.0081 c 0.3967,0 0.7113,0.158137 0.943382,0.47388 0.232086,0.313044 0.348222,0.737693 0.348222,1.274726 0,0.539731 -0.116139,0.966682 -0.348222,1.279729 -0.232082,0.313042 -0.546682,0.469502 -0.943382,0.469502 -0.402102,0 -0.718803,-0.155407 -0.950889,-0.465752 -0.229385,-0.313045 -0.344469,-0.741049 -0.344469,-1.283479 0,-0.54243 0.116139,-0.968756 0.348221,-1.279101 0.232086,-0.313045 0.547735,-0.469505 0.947137,-0.469505 z m 28.886697,0 c 0.3967,0 0.7113,0.158137 0.943386,0.47388 0.232082,0.313044 0.34822,0.737693 0.34822,1.274726 0,0.539731 -0.116139,0.966682 -0.34822,1.279729 -0.232086,0.313042 -0.546686,0.469502 -0.943386,0.469502 -0.402102,0 -0.719428,-0.155407 -0.951513,-0.465752 -0.229385,-0.313045 -0.343842,-0.741049 -0.343842,-1.283479 -4e-6,-0.54243 0.116139,-0.968756 0.348221,-1.279101 0.232083,-0.313045 0.547731,-0.469505 0.947134,-0.469505 z m 21.733487,0 c 0.36701,0 0.66144,0.121597 0.88274,0.364475 0.22397,0.242879 0.33844,0.568396 0.34384,0.975894 l -2.6551,0.0038 c 0.0378,-0.42639 0.18058,-0.756739 0.42886,-0.991523 0.25098,-0.234784 0.58406,-0.352597 0.99966,-0.352597 z m 52.75325,0 c 0.36702,0 0.66145,0.121597 0.88275,0.364475 0.22373,0.242879 0.3382,0.568396 0.34384,0.975894 l -2.65511,0.0038 c 0.0377,-0.42639 0.1806,-0.756739 0.42887,-0.991523 0.25099,-0.234784 0.58406,-0.352597 0.99965,-0.352597 z m 4.95074,0 c 0.39671,0 0.71131,0.158137 0.94339,0.47388 0.23209,0.313044 0.34821,0.737693 0.34821,1.274726 0,0.539731 -0.11614,0.966682 -0.34821,1.279729 -0.23208,0.313042 -0.54668,0.469502 -0.94339,0.469502 -0.40209,0 -0.71881,-0.155407 -0.95088,-0.465752 -0.22939,-0.313045 -0.34448,-0.741049 -0.34448,-1.283479 0,-0.54243 0.11614,-0.968756 0.34823,-1.279101 0.23208,-0.313045 0.54773,-0.469505 0.94713,-0.469505 z m 62.47282,0 c 0.36701,0 0.66144,0.121597 0.88274,0.364475 0.22374,0.242879 0.33819,0.568396 0.34384,0.975894 l -2.65572,0.0038 c 0.0377,-0.42639 0.18122,-0.756739 0.42948,-0.991523 0.25099,-0.234784 0.58406,-0.352597 0.99966,-0.352597 z M 12.127986,26.668498 h 0.740829 v 0.16567 c 0,0.485758 -0.125379,0.875543 -0.376352,1.169697 -0.248279,0.291454 -0.57863,0.437621 -0.991523,0.437618 -0.299552,3e-6 -0.537285,-0.07686 -0.712698,-0.230687 -0.172712,-0.156523 -0.25882,-0.367579 -0.25882,-0.632049 0,-0.331933 0.116139,-0.566311 0.348222,-0.703943 0.232082,-0.13763 0.648542,-0.206306 1.250342,-0.206306 z m 23.17075,0 h 0.740829 v 0.16567 c 0,0.485758 -0.125379,0.875543 -0.376355,1.169697 -0.248276,0.291454 -0.578627,0.437621 -0.99152,0.437618 -0.299554,3e-6 -0.537284,-0.07686 -0.712698,-0.230687 -0.172713,-0.156523 -0.25882,-0.367579 -0.25882,-0.632049 0,-0.331933 0.116139,-0.566311 0.348221,-0.703943 0.232086,-0.13763 0.648542,-0.206306 1.250343,-0.206306 z m 12.289632,0 h 0.740827 v 0.16567 c 0,0.485758 -0.125378,0.875543 -0.376352,1.169697 -0.248277,0.291454 -0.578627,0.437621 -0.991522,0.437618 -0.299554,3e-6 -0.537284,-0.07686 -0.712698,-0.230687 -0.172713,-0.156523 -0.25882,-0.367579 -0.25882,-0.632049 0,-0.331933 0.116139,-0.566311 0.348221,-0.703943 0.232086,-0.13763 0.648543,-0.206306 1.250344,-0.206306 z m 34.29506,0 h 0.740204 v 0.16567 c 0,0.485758 -0.125378,0.875543 -0.376352,1.169697 -0.248276,0.291454 -0.57863,0.437621 -0.991524,0.437618 -0.299551,3e-6 -0.537283,-0.07686 -0.712695,-0.230687 -0.172714,-0.156523 -0.258823,-0.367579 -0.25882,-0.632049 0,-0.331933 0.116138,-0.566311 0.34822,-0.703943 0.232084,-0.13763 0.649168,-0.206306 1.250967,-0.206306 z m 64.006362,0 h 0.74083 v 0.16567 c 0,0.485758 -0.12539,0.875543 -0.37635,1.169697 -0.24829,0.291454 -0.57863,0.437621 -0.99153,0.437618 -0.29956,3e-6 -0.5373,-0.07686 -0.7127,-0.230687 -0.1727,-0.156523 -0.25882,-0.367579 -0.25882,-0.632049 0,-0.331933 0.11555,-0.566311 0.3476,-0.703943 0.23208,-0.13763 0.64916,-0.206306 1.25097,-0.206306 z m 41.48391,0 h 0.74084 v 0.16567 c 0,0.485758 -0.12538,0.875543 -0.37636,1.169697 -0.24828,0.291454 -0.57926,0.437621 -0.99215,0.437618 -0.29955,3e-6 -0.53666,-0.07686 -0.71208,-0.230687 -0.17271,-0.156523 -0.25943,-0.367579 -0.25943,-0.632049 0,-0.331933 0.11613,-0.566311 0.34822,-0.703943 0.23207,-0.13763 0.64916,-0.206306 1.25096,-0.206306 z m 26.5223,0 h 0.74082 v 0.16567 c 0,0.485758 -0.12537,0.875543 -0.37635,1.169697 -0.24827,0.291454 -0.57863,0.437621 -0.99151,0.437618 -0.29956,3e-6 -0.53729,-0.07686 -0.71271,-0.230687 -0.17271,-0.156523 -0.25882,-0.367579 -0.25882,-0.632049 0,-0.331933 0.11553,-0.566311 0.3476,-0.703943 0.23208,-0.13763 0.64917,-0.206306 1.25097,-0.206306 z"
     style="fill:#ff0000;stroke:none;stroke-width:1.20978165"
     id="fleks-banner-text" />
  <path
     id="path816"
     style="fill:#ffffff;stroke:none"
     d="m 42.975154,4.2173111 c -1.389613,0 -2.481189,0.3233711 -3.275254,0.9699667 -0.788392,0.6465953 -1.182872,1.531584 -1.182872,2.6546182 0,0.9698932 0.286517,1.7271947 0.85938,2.271696 0.57286,0.544502 1.500412,0.944176 2.782257,1.19941 l 1.046449,0.204122 c 0.873471,0.175828 1.499973,0.439509 1.879988,0.791166 0.385689,0.351657 0.578776,0.839569 0.578776,1.463476 0,0.714659 -0.266792,1.264857 -0.799951,1.650546 -0.533157,0.385688 -1.289942,0.578259 -2.271178,0.578259 -0.646597,0 -1.304759,-0.09914 -1.974041,-0.297656 -0.669282,-0.198516 -1.352878,-0.493341 -2.050521,-0.884701 v 1.769401 c 0.726004,0.26658 1.426726,0.467973 2.101681,0.604098 0.680628,0.136125 1.32166,0.204638 1.922881,0.204638 1.593799,0 2.801643,-0.317661 3.624066,-0.952913 0.828099,-0.635251 1.242304,-1.568512 1.242304,-2.799312 0,-1.032284 -0.306245,-1.854469 -0.918808,-2.467033 -0.606894,-0.618236 -1.551572,-1.04957 -2.833418,-1.2934611 L 42.669229,9.6712416 C 41.727696,9.495413 41.086664,9.2654726 40.746349,8.9818782 40.411709,8.6926116 40.244572,8.2669873 40.244572,7.7054703 c 0,-0.6692832 0.252261,-1.1852249 0.75706,-1.5482261 0.510468,-0.3630009 1.233516,-0.5446694 2.169374,-0.5446694 0.538832,0 1.097336,0.076819 1.675868,0.22996 0.578533,0.1531411 1.194134,0.3856781 1.846398,0.6976319 V 4.8643001 C 46.04668,4.6487682 45.414466,4.4868241 44.79623,4.3790583 44.177994,4.2712924 43.570702,4.2173111 42.975154,4.2173111 Z M 0,4.4994643 V 17.201531 h 1.7182414 v -6.066296 h 5.036902 V 9.6893285 H 1.7182414 V 5.9458877 h 5.581571 V 4.4994643 Z m 8.9823974,0 V 17.201531 H 16.886307 V 15.755108 H 10.701155 V 4.4994643 Z m 9.0113356,0 V 17.201531 h 8.184515 v -1.446423 h -6.466274 v -4.60282 h 6.049243 V 9.7063817 h -6.049243 v -3.760494 h 6.31331 V 4.4994643 Z m 10.364226,0 V 17.201531 h 1.718757 v -6.116939 l 6.099887,6.116939 h 2.263428 L 31.684888,10.42055 37.988896,4.4994643 H 35.777143 L 30.076716,9.8676122 V 4.4994643 Z" />
</svg>
