<?xml version="1.0" encoding="UTF-8" standalone="no"?>
<svg
   xmlns:dc="http://purl.org/dc/elements/1.1/"
   xmlns:cc="http://creativecommons.org/ns#"
   xmlns:rdf="http://www.w3.org/1999/02/22-rdf-syntax-ns#"
   xmlns:svg="http://www.w3.org/2000/svg"
   xmlns="http://www.w3.org/2000/svg"
   id="svg6591"
   version="1.1"
   viewBox="0 0 171.97917 33.3375"
   height="126"
   width="650">
  <metadata
     id="metadata8141">
    <rdf:RDF>
      <cc:Work
         rdf:about="">
        <dc:format>image/svg+xml</dc:format>
        <dc:type
           rdf:resource="http://purl.org/dc/dcmitype/StillImage" />
        <dc:title></dc:title>
      </cc:Work>
    </rdf:RDF>
  </metadata>
  <defs
     id="defs6585" />
  <path
     style="fill:#ffffff;stroke-width:0.26458332"
     d="m 42.975154,4.2173111 c -1.389613,0 -2.481189,0.3233711 -3.275254,0.9699667 -0.788392,0.6465953 -1.182872,1.531584 -1.182872,2.6546182 0,0.9698932 0.286517,1.7271947 0.85938,2.271696 0.57286,0.544502 1.500412,0.944176 2.782257,1.19941 l 1.046449,0.204122 c 0.873471,0.175828 1.499973,0.439509 1.879988,0.791166 0.385689,0.351657 0.578776,0.839569 0.578776,1.463476 0,0.714659 -0.266792,1.264857 -0.799951,1.650546 -0.533157,0.385688 -1.289942,0.578259 -2.271178,0.578259 -0.646597,0 -1.304759,-0.09914 -1.974041,-0.297656 -0.669282,-0.198516 -1.352878,-0.493341 -2.050521,-0.884701 v 1.769401 c 0.726004,0.26658 1.426726,0.467973 2.101681,0.604098 0.680628,0.136125 1.32166,0.204638 1.922881,0.204638 1.593799,0 2.801643,-0.317661 3.624066,-0.952913 0.828099,-0.635251 1.242304,-1.568512 1.242304,-2.799312 0,-1.032284 -0.306245,-1.854469 -0.918808,-2.467033 -0.606894,-0.618236 -1.551572,-1.04957 -2.833418,-1.2934611 L 42.669229,9.6712416 C 41.727696,9.495413 41.086664,9.2654726 40.746349,8.9818782 40.411709,8.6926116 40.244572,8.2669873 40.244572,7.7054703 c 0,-0.6692832 0.252261,-1.1852249 0.75706,-1.5482261 0.510468,-0.3630009 1.233516,-0.5446694 2.169374,-0.5446694 0.538832,0 1.097336,0.076819 1.675868,0.22996 0.578533,0.1531411 1.194134,0.3856781 1.846398,0.6976319 V 4.8643001 C 46.04668,4.6487682 45.414466,4.4868241 44.79623,4.3790583 44.177994,4.2712924 43.570702,4.2173111 42.975154,4.2173111 Z M 0,4.4994643 V 17.201531 h 1.7182414 v -6.066296 h 5.036902 V 9.6893285 H 1.7182414 V 5.9458877 h 5.581571 V 4.4994643 Z m 8.9823974,0 V 17.201531 H 16.886307 V 15.755108 H 10.701155 V 4.4994643 Z m 9.0113356,0 V 17.201531 h 8.184515 v -1.446423 h -6.466274 v -4.60282 h 6.049243 V 9.7063817 h -6.049243 v -3.760494 h 6.31331 V 4.4994643 Z m 10.364226,0 V 17.201531 h 1.718757 v -6.116939 l 6.099887,6.116939 h 2.263428 L 31.684888,10.42055 37.988896,4.4994643 H 35.777143 L 30.076716,9.8676122 V 4.4994643 Z"
     id="path7955" />
  <path
     id="path8312"
     d="m 17.085002,22.077636 v 1.791644 c -0.11431,-0.197094 -0.259258,-0.343262 -0.43467,-0.437866 -0.173442,-0.09657 -0.382498,-0.144737 -0.626894,-0.144737 -0.400098,0 -0.726184,0.159666 -0.978465,0.478956 -0.250308,0.319292 -0.375313,0.738941 -0.375313,1.259266 0,0.520326 0.124995,0.94043 0.375313,1.259722 0.252281,0.319292 0.578367,0.478959 0.978465,0.478959 0.244396,0 0.453452,-0.04739 0.626894,-0.14199 0.175412,-0.09657 0.320356,-0.243512 0.43467,-0.440606 v 0.496766 h 0.543795 v -4.600105 z m 1.664256,0 v 0.688987 h 0.544253 v -0.688987 z m 12.819116,0 v 0.688987 h 0.543795 v -0.688987 z m 30.438783,0 v 4.600106 h 0.54425 v -4.600106 z m 8.47013,0 c -0.372503,0 -0.644448,0.08481 -0.815918,0.254318 -0.171472,0.167529 -0.257058,0.435486 -0.257058,0.804048 v 0.230577 h -0.520507 v 0.422799 h 0.520507 v 2.888364 h 0.54699 v -2.888364 h 0.895821 v -0.422799 h -0.895821 v -0.292672 c 0,-0.204976 0.03742,-0.346701 0.112318,-0.425538 0.07686,-0.07884 0.21261,-0.11825 0.407734,-0.11825 h 0.520509 v -0.452476 z m 24.168489,0 v 4.600106 h 0.544248 v -4.600106 z m 14.108064,0 v 4.600106 h 0.54378 v -4.600106 z m 7.28756,0 v 4.600106 h 0.54699 v -1.871547 c 0,-0.323232 0.0848,-0.578457 0.25432,-0.765696 0.1695,-0.187237 0.40081,-0.2808 0.69447,-0.2808 0.2444,0 0.42799,0.07807 0.55019,0.233772 0.1222,0.155705 0.18309,0.390223 0.18309,0.703601 v 1.98067 h 0.54425 v -1.998476 c 0,-0.457258 -0.098,-0.803281 -0.29313,-1.037823 -0.19513,-0.236512 -0.48256,-0.354766 -0.86295,-0.354766 -0.23059,0 -0.43489,0.04938 -0.61228,0.147934 -0.17541,0.09854 -0.32788,0.247475 -0.45796,0.44654 v -1.803515 z m 29.03157,0 v 1.791644 c -0.11441,-0.197094 -0.25879,-0.343262 -0.4342,-0.437866 -0.17345,-0.09657 -0.3825,-0.144737 -0.62689,-0.144737 -0.40008,0 -0.72618,0.159666 -0.97847,0.478956 -0.25031,0.319292 -0.37577,0.738941 -0.37577,1.259266 0,0.520326 0.12546,0.94043 0.37577,1.259722 0.25229,0.319292 0.57839,0.478959 0.97847,0.478959 0.24439,0 0.45344,-0.04739 0.62689,-0.14199 0.17541,-0.09657 0.3199,-0.243512 0.4342,-0.440606 v 0.496766 h 0.54428 v -4.600105 z m 19.06022,0 v 0.688987 h 0.54378 V 22.077636 Z M 1.5491973,22.18402 c -0.4828782,0 -0.86233959,0.11226 -1.13826977,0.33696 C 0.13696809,22.745666 0,23.053041 0,23.443286 c 0,0.337027 0.09954264,0.600228 0.29860727,0.789437 0.19906404,0.18921 0.5211628,0.328171 0.96659323,0.416863 l 0.3634426,0.07122 c 0.3035233,0.06109 0.5213227,0.152668 0.6533749,0.274868 0.1340232,0.122204 0.2013547,0.291375 0.2013547,0.508177 0,0.248338 -0.092793,0.439907 -0.2780612,0.573932 -0.1852673,0.134023 -0.4484667,0.200896 -0.7894374,0.200896 -0.2246864,0 -0.45322301,-0.03467 -0.68579286,-0.103639 C 0.49751169,26.10606 0.26023133,26.003752 0.01780681,25.867756 v 0.615023 c 0.25227906,0.09263 0.49554081,0.162274 0.73008124,0.209572 0.23651189,0.04731 0.45906715,0.07122 0.66798605,0.07122 0.5538313,0 0.9739367,-0.110283 1.2597214,-0.331024 0.2877557,-0.220742 0.4314741,-0.545294 0.4314741,-0.972986 0,-0.358709 -0.1062939,-0.644152 -0.3191538,-0.857013 C 2.5770262,24.387721 2.2489461,24.237565 1.8035155,24.152816 L 1.4428124,24.078845 C 1.1156383,24.017751 0.89262582,23.938141 0.77437024,23.839594 0.65808641,23.739071 0.59995431,23.59137 0.59995431,23.39625 c 0,-0.232571 0.087581,-0.412177 0.26299364,-0.538315 0.17738385,-0.126144 0.42907685,-0.189027 0.75428045,-0.189027 0.1872386,0 0.3811127,0.02668 0.5821476,0.0799 0.2010351,0.05321 0.4148469,0.134038 0.6415037,0.242449 v -0.582595 c -0.2246862,-0.0749 -0.444479,-0.131028 -0.6593103,-0.16848 -0.2148317,-0.03745 -0.4254246,-0.05617 -0.6323721,-0.05617 z m 41.2059987,0.07991 v 4.106536 c 0,0.38236 -0.05414,0.647097 -0.162546,0.794917 -0.108408,0.147821 -0.294755,0.221902 -0.55886,0.221902 h -0.186288 v 0.5027 h 0.227837 c 0.447402,0 0.771494,-0.120256 0.972529,-0.360704 0.203006,-0.240453 0.304542,-0.626663 0.304542,-1.158815 V 22.26393 Z m 30.640136,0 v 4.413817 h 0.597214 V 22.26393 Z m 38.376988,0 v 0.502701 h 1.56701 v 3.911116 h 0.59995 v -3.91112 h 1.567 V 22.26393 Z m 36.91638,0 v 4.413817 h 0.59723 v -1.773835 h 0.75106 c 0.4947,0 0.86819,-0.111504 1.12046,-0.334222 0.25425,-0.222714 0.38125,-0.551564 0.38125,-0.987139 0,-0.431634 -0.12706,-0.758947 -0.38125,-0.981662 -0.25227,-0.224686 -0.62576,-0.336959 -1.12046,-0.336959 z m -69.696989,0.162545 v 0.940111 h -0.399056 v 0.422799 h 0.399056 v 1.79758 c 0,0.413893 0.08007,0.699337 0.239708,0.857011 0.159646,0.155705 0.449076,0.233771 0.868884,0.233771 h 0.558859 v -0.455215 h -0.558859 c -0.226659,0 -0.377126,-0.03866 -0.452021,-0.115502 -0.07292,-0.07686 -0.109585,-0.250037 -0.109585,-0.520052 v -1.797581 h 1.120462 v -0.422799 h -1.120462 v -0.94011 z m 17.324704,0 v 0.940111 h -0.399054 v 0.422799 h 0.399054 v 1.79758 c 0,0.413893 0.07961,0.699337 0.239257,0.857011 0.159648,0.155705 0.449531,0.233771 0.869341,0.233771 h 0.558862 v -0.455215 h -0.558862 c -0.226657,0 -0.377583,-0.03866 -0.452483,-0.115502 -0.07289,-0.07686 -0.10912,-0.250037 -0.10912,-0.520052 v -1.797581 h 1.120462 V 23.366602 H 96.86341 v -0.94011 z m 65.430655,0 v 0.940111 h -0.39906 v 0.422799 h 0.39906 v 1.79758 c 0,0.413893 0.08,0.699337 0.2397,0.857011 0.15965,0.155705 0.44954,0.233771 0.86934,0.233771 h 0.55841 v -0.455215 h -0.55841 c -0.22666,0 -0.37759,-0.03866 -0.45247,-0.115502 -0.073,-0.07686 -0.10947,-0.250037 -0.10947,-0.520052 v -1.797581 h 1.12047 v -0.422799 h -1.12047 v -0.94011 z m -12.46114,0.328284 h 0.75106 c 0.2779,0 0.49294,0.07163 0.6447,0.21551 0.15176,0.14388 0.22737,0.348177 0.22737,0.612282 0,0.266076 -0.0756,0.470687 -0.22737,0.614565 -0.15176,0.14388 -0.3668,0.215966 -0.6447,0.215966 h -0.75106 z M 5.4425083,23.286677 c -0.5163837,0 -0.923301,0.154912 -1.2209115,0.464347 -0.2956396,0.309437 -0.4433455,0.733842 -0.4433455,1.273875 0,0.532154 0.1469373,0.955019 0.4406057,1.268396 0.2936688,0.31338 0.6898491,0.470285 1.1884939,0.470285 0.1832973,0 0.3556963,-0.01794 0.5173122,-0.05343 0.1635874,-0.03547 0.321262,-0.08839 0.4730238,-0.159352 v -0.502697 c -0.1537332,0.08476 -0.3086447,0.148865 -0.4643481,0.192224 -0.153733,0.0414 -0.3094133,0.06209 -0.4670879,0.06209 -0.3527963,0 -0.6267329,-0.111504 -0.8218554,-0.33422 C 4.4492734,25.74351 4.3517237,25.42893 4.3517237,25.024888 c 0,-0.404041 0.09755,-0.717396 0.2926718,-0.940111 0.1951225,-0.224686 0.4690591,-0.336959 0.8218554,-0.336959 0.1576746,0 0.3133549,0.02194 0.4670879,0.06529 0.1557034,0.0414 0.3106149,0.104279 0.4643481,0.189025 V 23.493511 C 6.2478961,23.424529 6.0929837,23.373603 5.9333388,23.340095 5.7736932,23.304623 5.6100369,23.286684 5.4425083,23.286684 Z m 3.0687161,0 c -0.1773834,0 -0.3597503,0.01996 -0.5469892,0.05936 -0.1872378,0.03745 -0.380345,0.09435 -0.5794086,0.17122 v 0.502701 c 0.1655581,-0.09066 0.3379577,-0.158764 0.5173121,-0.204094 0.1793552,-0.04533 0.3637152,-0.06804 0.552925,-0.06804 0.2976118,0 0.5281421,0.06933 0.6917292,0.207291 0.1655584,0.135986 0.2483827,0.329099 0.2483827,0.579407 v 0.05296 H 8.6326768 c -0.4947039,0 -0.8674148,0.0948 -1.117723,0.283998 -0.248337,0.189209 -0.3725745,0.469896 -0.3725745,0.842403 0,0.31929 0.099543,0.574513 0.2986081,0.765695 0.2010348,0.189207 0.4709825,0.283995 0.8099828,0.283995 0.2680479,0 0.495047,-0.04739 0.6803142,-0.14199 0.1852657,-0.09657 0.3397245,-0.245506 0.4638912,-0.446542 v 0.502702 h 0.5442498 v -1.889354 c 0,-0.504557 -0.1182497,-0.880798 -0.3547667,-1.129137 C 9.3481475,23.410916 8.9901621,23.28668 8.5112244,23.28668 Z m 4.1480866,0 c -0.230597,0 -0.434897,0.04938 -0.612282,0.147934 -0.175413,0.09854 -0.327876,0.247475 -0.457957,0.44654 v -0.514572 h -0.546989 v 3.311163 h 0.546989 v -1.871547 c 0,-0.323232 0.08481,-0.578457 0.254319,-0.765696 0.169501,-0.187237 0.400801,-0.2808 0.694469,-0.2808 0.244395,0 0.427989,0.07807 0.550186,0.233772 0.122189,0.155705 0.183092,0.390223 0.183092,0.703601 v 1.98067 h 0.543793 v -1.998476 c 0,-0.457258 -0.09755,-0.803281 -0.292671,-1.037823 -0.195124,-0.236512 -0.482559,-0.354766 -0.862949,-0.354766 z m 9.365953,0 c -0.230596,0 -0.434898,0.04938 -0.612281,0.147934 -0.175412,0.09854 -0.327875,0.247475 -0.457957,0.44654 v -0.514572 h -0.546989 v 3.311163 h 0.546989 v -1.871547 c 0,-0.323232 0.08436,-0.578457 0.253863,-0.765696 0.169499,-0.187237 0.401257,-0.2808 0.694924,-0.2808 0.244396,0 0.42753,0.07807 0.549732,0.233772 0.122204,0.155705 0.183547,0.390223 0.183547,0.703601 v 1.98067 h 0.543792 v -1.998476 c 0,-0.457258 -0.09755,-0.803281 -0.292671,-1.037823 -0.195123,-0.236512 -0.48256,-0.354766 -0.862949,-0.354766 z m 3.408416,0 c -0.177382,0 -0.35975,0.01996 -0.546987,0.05936 -0.187242,0.03745 -0.380345,0.09435 -0.579408,0.17122 v 0.502701 c 0.165558,-0.09066 0.337955,-0.158764 0.51731,-0.204094 0.179355,-0.04533 0.363716,-0.06804 0.552927,-0.06804 0.297612,0 0.528141,0.06933 0.691728,0.207291 0.165558,0.135986 0.248383,0.329099 0.248383,0.579407 v 0.05296 h -0.762502 c -0.4947,0 -0.867412,0.0948 -1.117721,0.283998 -0.248336,0.189209 -0.372575,0.469896 -0.372575,0.842403 0,0.31929 0.09952,0.574513 0.298609,0.765695 0.201036,0.189207 0.470984,0.283995 0.809983,0.283995 0.268047,0 0.495046,-0.04739 0.680314,-0.14199 0.185269,-0.09657 0.339724,-0.245506 0.463892,-0.446542 v 0.502702 h 0.544251 v -1.889354 c 0,-0.504557 -0.11825,-0.880798 -0.354768,-1.129137 -0.23651,-0.248338 -0.594498,-0.372574 -1.073436,-0.372574 z m 8.975575,0 c -0.177385,0 -0.359752,0.01996 -0.546991,0.05936 -0.187237,0.03745 -0.380344,0.09435 -0.579409,0.17122 v 0.502701 c 0.165561,-0.09066 0.33796,-0.158764 0.517313,-0.204094 0.179355,-0.04533 0.363718,-0.06804 0.552927,-0.06804 0.297611,0 0.528141,0.06933 0.691728,0.207291 0.16556,0.135986 0.248383,0.329099 0.248383,0.579407 v 0.05296 h -0.7625 c -0.494701,0 -0.867416,0.0948 -1.117721,0.283998 -0.248338,0.189209 -0.372577,0.469896 -0.372577,0.842403 0,0.31929 0.09952,0.574513 0.298611,0.765695 0.201033,0.189207 0.470981,0.283995 0.809981,0.283995 0.268048,0 0.495049,-0.04739 0.680315,-0.14199 0.185265,-0.09657 0.339723,-0.245506 0.463891,-0.446542 v 0.502702 h 0.54425 v -1.889354 c 0,-0.504557 -0.11825,-0.880798 -0.354767,-1.129137 -0.236513,-0.248338 -0.594498,-0.372574 -1.073434,-0.372574 z m 4.148085,0 c -0.230597,0 -0.434897,0.04938 -0.612281,0.147934 -0.175412,0.09854 -0.327876,0.247475 -0.457957,0.44654 v -0.514572 h -0.546987 v 3.311163 h 0.546987 v -1.871547 c 0,-0.323232 0.08481,-0.578457 0.254319,-0.765696 0.169499,-0.187237 0.400802,-0.2808 0.694468,-0.2808 0.244398,0 0.427992,0.07807 0.550187,0.233772 0.122204,0.155705 0.183091,0.390223 0.183091,0.703601 v 1.98067 h 0.543793 v -1.998476 c 0,-0.457258 -0.09755,-0.803281 -0.29267,-1.037823 -0.195124,-0.236512 -0.482558,-0.354766 -0.86295,-0.354766 z m 7.24283,0 c -0.474995,0 -0.847252,0.153685 -1.117267,0.461152 -0.268046,0.307464 -0.40225,0.733093 -0.40225,1.27707 0,0.542006 0.134198,0.968094 0.40225,1.277529 0.270015,0.307465 0.642272,0.461152 1.117267,0.461152 0.473022,0 0.844965,-0.153687 1.114983,-0.461152 0.270018,-0.309435 0.404993,-0.735523 0.404993,-1.277529 0,-0.543977 -0.134968,-0.969606 -0.404993,-1.27707 -0.270018,-0.307467 -0.641961,-0.461152 -1.114983,-0.461152 z m 7.902595,0 c -0.262135,0 -0.48469,0.04938 -0.667986,0.147934 -0.183294,0.09657 -0.332227,0.245506 -0.44654,0.44654 v -0.514572 h -0.546992 v 3.311163 h 0.546992 v -1.744157 c 0,-0.374479 0.08158,-0.661147 0.245185,-0.860212 0.16556,-0.201034 0.402072,-0.301803 0.709537,-0.301803 0.08672,0 0.165555,0.0087 0.236511,0.02649 0.07292,0.01577 0.14026,0.04168 0.201355,0.07715 l -0.0032,-0.558863 c -0.05519,-0.0097 -0.10534,-0.01659 -0.150671,-0.02054 -0.04533,-0.0058 -0.08675,-0.0092 -0.124196,-0.0092 z m 2.344572,0 c -0.230602,0 -0.434899,0.04938 -0.612284,0.147934 -0.175412,0.09854 -0.327875,0.247475 -0.457954,0.44654 v -0.514572 h -0.546992 v 3.311163 h 0.546992 v -1.871547 c 0,-0.323232 0.08481,-0.578457 0.254319,-0.765696 0.169499,-0.187237 0.400799,-0.2808 0.694468,-0.2808 0.244393,0 0.427988,0.07807 0.550182,0.233772 0.122204,0.155705 0.183093,0.390223 0.183093,0.703601 v 1.98067 h 0.544251 v -1.998476 c 0,-0.457258 -0.09801,-0.803281 -0.293127,-1.037823 -0.195124,-0.236512 -0.48256,-0.354766 -0.862948,-0.354766 z m 3.408416,0 c -0.177386,0 -0.359297,0.01996 -0.546532,0.05936 -0.187239,0.03745 -0.380803,0.09435 -0.579867,0.17122 v 0.502701 c 0.165558,-0.09066 0.338413,-0.158764 0.51777,-0.204094 0.179354,-0.04533 0.363259,-0.06804 0.552467,-0.06804 0.297612,0 0.5286,0.06933 0.692187,0.207291 0.165556,0.135986 0.247926,0.329099 0.247926,0.579407 v 0.05296 h -0.7625 c -0.494702,0 -0.867413,0.0948 -1.117723,0.283998 -0.248335,0.189209 -0.372118,0.469896 -0.372118,0.842403 0,0.31929 0.09955,0.574513 0.298609,0.765695 0.201033,0.189207 0.470981,0.283995 0.809983,0.283995 0.26805,0 0.494589,-0.04739 0.679855,-0.14199 0.18527,-0.09657 0.339726,-0.245506 0.463894,-0.446542 v 0.502702 h 0.544249 v -1.889354 c 0,-0.504557 -0.11825,-0.880798 -0.354766,-1.129137 -0.236512,-0.248338 -0.594498,-0.372574 -1.073434,-0.372574 z m 7.441443,0 c -0.474995,0 -0.847249,0.153685 -1.117268,0.461152 -0.268045,0.307464 -0.402252,0.733093 -0.402252,1.27707 0,0.542006 0.134213,0.968094 0.402252,1.277529 0.270019,0.307465 0.642273,0.461152 1.117268,0.461152 0.473024,0 0.844509,-0.153687 1.114527,-0.461152 0.270017,-0.309435 0.404991,-0.735523 0.404991,-1.277529 0,-0.543977 -0.134968,-0.969606 -0.404991,-1.27707 -0.270018,-0.307467 -0.641503,-0.461152 -1.114527,-0.461152 z m 9.856785,0 c -0.230598,0 -0.434898,0.04938 -0.612283,0.147934 -0.175414,0.09854 -0.327875,0.247475 -0.457955,0.44654 v -0.514572 h -0.546992 v 3.311163 h 0.546992 v -1.871547 c 0,-0.323232 0.08483,-0.578457 0.254319,-0.765696 0.1695,-0.187237 0.400796,-0.2808 0.694466,-0.2808 0.244396,0 0.427991,0.07807 0.55019,0.233772 0.122189,0.155705 0.183087,0.390223 0.183087,0.703601 v 1.98067 H 77.9096 v -1.998476 c 0,-0.457258 -0.09755,-0.803281 -0.292671,-1.037823 -0.195123,-0.236512 -0.482558,-0.354766 -0.862948,-0.354766 z m 6.010046,0 c -0.496676,0 -0.89163,0.159666 -1.1853,0.478956 -0.291694,0.317322 -0.437409,0.746939 -0.437409,1.288945 0,0.524269 0.153687,0.940386 0.461154,1.24785 0.309434,0.307465 0.728315,0.461152 1.256524,0.461152 0.21089,0 0.418719,-0.02194 0.623697,-0.06529 0.204977,-0.04337 0.404831,-0.106256 0.599955,-0.189026 v -0.514573 c -0.193154,0.102491 -0.388253,0.17933 -0.585342,0.230577 -0.195124,0.05126 -0.396974,0.07715 -0.605893,0.07715 -0.360679,0 -0.642593,-0.09755 -0.845599,-0.292672 -0.201036,-0.197092 -0.313311,-0.482992 -0.336959,-0.857469 h 2.501178 v -0.266189 c 0,-0.492734 -0.130214,-0.881708 -0.390381,-1.167492 -0.258191,-0.287753 -0.610196,-0.43193 -1.055625,-0.43193 z m 3.979601,0 c -0.262132,0 -0.485138,0.04938 -0.668439,0.147934 -0.183293,0.09657 -0.331773,0.245506 -0.446086,0.44654 v -0.514572 h -0.546988 v 3.311163 h 0.546988 v -1.744157 c 0,-0.374479 0.08164,-0.661147 0.245183,-0.860212 0.16556,-0.201034 0.402077,-0.301803 0.709542,-0.301803 0.08667,0 0.165553,0.0087 0.23651,0.02649 0.07291,0.01577 0.139795,0.04168 0.200901,0.07715 l -0.0026,-0.558863 c -0.05514,-0.0097 -0.105311,-0.01659 -0.150671,-0.02054 -0.04533,-0.0058 -0.08678,-0.0092 -0.124196,-0.0092 z m 2.152351,0 c -0.51639,0 -0.92376,0.154912 -1.221364,0.464347 -0.295645,0.309437 -0.443348,0.733842 -0.443348,1.273875 0,0.532154 0.146934,0.955019 0.440608,1.268396 0.293666,0.31338 0.689849,0.470285 1.188488,0.470285 0.183302,0 0.355708,-0.01794 0.517317,-0.05343 0.16358,-0.03547 0.321258,-0.08839 0.473026,-0.159352 v -0.502697 c -0.153738,0.08476 -0.30865,0.148865 -0.464349,0.192224 -0.153738,0.0414 -0.30942,0.06209 -0.467088,0.06209 -0.3528,0 -0.626736,-0.111504 -0.82186,-0.33422 -0.195122,-0.224685 -0.292667,-0.539265 -0.292667,-0.943307 0,-0.404041 0.09753,-0.717396 0.292667,-0.940111 0.195124,-0.224686 0.46906,-0.336959 0.82186,-0.336959 0.157668,0 0.31335,0.02194 0.467088,0.06529 0.155699,0.0414 0.310611,0.104279 0.464349,0.189025 V 23.49351 c -0.149797,-0.06898 -0.304711,-0.119907 -0.464349,-0.153415 -0.159649,-0.03547 -0.322848,-0.05343 -0.490378,-0.05343 z m 15.290171,0 c -0.26213,0 -0.4847,0.04938 -0.66799,0.147934 -0.1833,0.09657 -0.33223,0.245506 -0.44655,0.44654 v -0.514572 h -0.54699 v 3.311163 h 0.54699 v -1.744157 c 0,-0.374479 0.0821,-0.661147 0.24564,-0.860212 0.16556,-0.201034 0.40207,-0.301803 0.70955,-0.301803 0.0867,0 0.16555,0.0087 0.23651,0.02649 0.0729,0.01577 0.13979,0.04168 0.20089,0.07715 l -0.004,-0.558863 c -0.0551,-0.0097 -0.10531,-0.01659 -0.15067,-0.02054 -0.0453,-0.0058 -0.0868,-0.0092 -0.12419,-0.0092 z m 2.01628,0 c -0.17738,0 -0.35975,0.01996 -0.547,0.05936 -0.18723,0.03745 -0.38034,0.09435 -0.5794,0.17122 v 0.502701 c 0.16555,-0.09066 0.33796,-0.158764 0.51731,-0.204094 0.17936,-0.04533 0.36372,-0.06804 0.55292,-0.06804 0.29762,0 0.52815,0.06933 0.69173,0.207291 0.16556,0.135986 0.24839,0.329099 0.24839,0.579407 v 0.05296 h -0.7625 c -0.4947,0 -0.86741,0.0948 -1.11772,0.283998 -0.24834,0.189209 -0.37258,0.469896 -0.37258,0.842403 0,0.31929 0.0995,0.574513 0.29861,0.765695 0.20103,0.189207 0.47098,0.283995 0.80998,0.283995 0.26804,0 0.49504,-0.04739 0.68032,-0.14199 0.18527,-0.09657 0.33972,-0.245506 0.46389,-0.446542 v 0.502702 h 0.54424 v -1.889354 c 0,-0.504557 -0.11825,-0.880798 -0.35476,-1.129137 -0.23651,-0.248338 -0.59449,-0.372574 -1.07343,-0.372574 z m 15.08972,0 c -0.49667,0 -0.89209,0.159666 -1.18576,0.478956 -0.29169,0.317322 -0.43741,0.746939 -0.43741,1.288945 0,0.524269 0.15369,0.940386 0.46115,1.24785 0.30945,0.307465 0.72832,0.461152 1.25653,0.461152 0.21089,0 0.41872,-0.02194 0.6237,-0.06529 0.20497,-0.04337 0.40483,-0.106256 0.59995,-0.189026 v -0.514573 c -0.19315,0.102491 -0.38826,0.17933 -0.58534,0.230577 -0.19512,0.05126 -0.39698,0.07715 -0.60589,0.07715 -0.36069,0 -0.6426,-0.09755 -0.8456,-0.292672 -0.201,-0.197092 -0.31328,-0.482992 -0.33696,-0.857469 h 2.50118 v -0.266189 c 0,-0.492734 -0.13023,-0.881708 -0.39039,-1.167492 -0.25819,-0.287753 -0.60973,-0.43193 -1.05516,-0.43193 z m 3.62118,0 c -0.47499,0 -0.84726,0.153685 -1.11726,0.461152 -0.26805,0.307464 -0.40225,0.733093 -0.40225,1.27707 0,0.542006 0.13419,0.968094 0.40225,1.277529 0.27,0.307465 0.64227,0.461152 1.11726,0.461152 0.47301,0 0.84497,-0.153687 1.11498,-0.461152 0.27002,-0.309435 0.405,-0.735523 0.405,-1.277529 0,-0.543977 -0.13498,-0.969606 -0.405,-1.27707 -0.27001,-0.307467 -0.64197,-0.461152 -1.11498,-0.461152 z m 4.05951,0 c -0.26213,0 -0.48514,0.04938 -0.66844,0.147934 -0.1833,0.09657 -0.33178,0.245506 -0.44608,0.44654 v -0.514572 h -0.547 v 3.311163 h 0.547 v -1.744157 c 0,-0.374479 0.0815,-0.661147 0.24517,-0.860212 0.16557,-0.201034 0.40208,-0.301803 0.70954,-0.301803 0.0868,0 0.16556,0.0087 0.23652,0.02649 0.0729,0.01577 0.1398,0.04168 0.20089,0.07715 l -0.003,-0.558863 c -0.0552,-0.0097 -0.10536,-0.01659 -0.15069,-0.02054 -0.0453,-0.0058 -0.0868,-0.0092 -0.12418,-0.0092 z m 7.52683,0 c -0.17738,0 -0.35975,0.01996 -0.547,0.05936 -0.18723,0.03745 -0.38035,0.09435 -0.57941,0.17122 v 0.502701 c 0.16556,-0.09066 0.33796,-0.158764 0.51732,-0.204094 0.17936,-0.04533 0.36371,-0.06804 0.55293,-0.06804 0.29761,0 0.52813,0.06933 0.69173,0.207291 0.16555,0.135986 0.24839,0.329099 0.24839,0.579407 v 0.05296 h -0.76296 c -0.49471,0 -0.86697,0.0948 -1.11727,0.283998 -0.24835,0.189209 -0.37258,0.469896 -0.37258,0.842403 0,0.31929 0.0996,0.574513 0.29861,0.765695 0.20102,0.189207 0.47098,0.283995 0.80997,0.283995 0.26806,0 0.49461,-0.04739 0.67987,-0.14199 0.18527,-0.09657 0.34018,-0.245506 0.46436,-0.446542 v 0.502702 h 0.54378 v -1.889354 c 0,-0.504557 -0.11828,-0.880798 -0.35478,-1.129137 -0.23649,-0.248338 -0.59403,-0.372574 -1.07296,-0.372574 z m 4.14763,0 c -0.2306,0 -0.43445,0.04938 -0.61182,0.147934 -0.17543,0.09854 -0.32832,0.247475 -0.45842,0.44654 v -0.514572 h -0.54655 v 3.311163 h 0.54655 v -1.871547 c 0,-0.323232 0.0849,-0.578457 0.25431,-0.765696 0.16951,-0.187237 0.40127,-0.2808 0.69491,-0.2808 0.24443,0 0.42756,0.07807 0.54975,0.233772 0.12211,0.155705 0.18355,0.390223 0.18355,0.703601 v 1.98067 h 0.5438 v -1.998476 c 0,-0.457258 -0.0976,-0.803281 -0.29267,-1.037823 -0.19513,-0.236512 -0.48302,-0.354766 -0.86341,-0.354766 z m 13.2063,0 c -0.26214,0 -0.4847,0.04938 -0.66799,0.147934 -0.18329,0.09657 -0.33225,0.245506 -0.44653,0.44654 v -0.514572 h -0.54701 v 3.311163 h 0.54701 v -1.744157 c 0,-0.374479 0.0821,-0.661147 0.24563,-0.860212 0.16554,-0.201034 0.40207,-0.301803 0.70953,-0.301803 0.0868,0 0.16556,0.0087 0.23651,0.02649 0.073,0.01577 0.13986,0.04168 0.20092,0.07715 l -0.004,-0.558863 c -0.0551,-0.0097 -0.10539,-0.01659 -0.15065,-0.02054 -0.0454,-0.0058 -0.0868,-0.0092 -0.12415,-0.0092 z m 2.0163,0 c -0.17739,0 -0.35975,0.01996 -0.54701,0.05936 -0.18724,0.03745 -0.38034,0.09435 -0.5794,0.17122 v 0.502701 c 0.16555,-0.09066 0.33795,-0.158764 0.51731,-0.204094 0.17935,-0.04533 0.3637,-0.06804 0.55294,-0.06804 0.2976,0 0.52812,0.06933 0.69172,0.207291 0.16555,0.135986 0.24836,0.329099 0.24836,0.579407 v 0.05296 h -0.76248 c -0.4947,0 -0.86743,0.0948 -1.11773,0.283998 -0.24833,0.189209 -0.37257,0.469896 -0.37257,0.842403 0,0.31929 0.0994,0.574513 0.2986,0.765695 0.20105,0.189207 0.47098,0.283995 0.80997,0.283995 0.26806,0 0.49506,-0.04739 0.68032,-0.14199 0.18527,-0.09657 0.33974,-0.245506 0.46389,-0.446542 v 0.502702 h 0.54428 v -1.889354 c 0,-0.504557 -0.11834,-0.880798 -0.35478,-1.129137 -0.23652,-0.248338 -0.59451,-0.372574 -1.07342,-0.372574 z m 3.97959,0 c -0.51639,0 -0.92377,0.154912 -1.22137,0.464347 -0.29564,0.309437 -0.44335,0.733842 -0.44335,1.273875 0,0.532154 0.14694,0.955019 0.44062,1.268396 0.29366,0.31338 0.68984,0.470285 1.18849,0.470285 0.18329,0 0.35571,-0.01794 0.51731,-0.05343 0.16359,-0.03547 0.32125,-0.08839 0.47302,-0.159352 v -0.502697 c -0.15373,0.08476 -0.30865,0.148865 -0.46434,0.192224 -0.15374,0.0414 -0.30941,0.06209 -0.4671,0.06209 -0.35279,0 -0.62674,-0.111504 -0.82185,-0.33422 -0.19512,-0.224685 -0.29268,-0.539265 -0.29268,-0.943307 0,-0.404041 0.0975,-0.717396 0.29268,-0.940111 0.19511,-0.224686 0.46906,-0.336959 0.82185,-0.336959 0.15769,0 0.31336,0.02194 0.4671,0.06529 0.15569,0.0414 0.31061,0.104279 0.46434,0.189025 V 23.49351 c -0.14979,-0.06898 -0.30471,-0.119907 -0.46434,-0.153415 -0.15964,-0.03547 -0.32284,-0.05343 -0.49038,-0.05343 z m 7.39077,0 c -0.51638,0 -0.92331,0.154912 -1.22092,0.464347 -0.29564,0.309437 -0.44334,0.733842 -0.44334,1.273875 0,0.532154 0.14647,0.955019 0.44016,1.268396 0.29366,0.31338 0.68983,0.470285 1.18847,0.470285 0.18331,0 0.3557,-0.01794 0.51733,-0.05343 0.16356,-0.03547 0.32125,-0.08839 0.473,-0.159352 v -0.502697 c -0.15374,0.08476 -0.30817,0.148865 -0.46389,0.192224 -0.15373,0.0414 -0.3094,0.06209 -0.46708,0.06209 -0.35279,0 -0.62672,-0.111504 -0.82185,-0.33422 -0.19512,-0.224685 -0.29267,-0.539265 -0.29267,-0.943307 0,-0.404041 0.0974,-0.717396 0.29267,-0.940111 0.19513,-0.224686 0.46906,-0.336959 0.82185,-0.336959 0.15768,0 0.31335,0.02194 0.46708,0.06529 0.15572,0.0414 0.31015,0.104279 0.46389,0.189025 V 23.49351 c -0.14979,-0.06898 -0.30422,-0.119907 -0.46389,-0.153415 -0.15965,-0.03547 -0.32329,-0.05343 -0.49081,-0.05343 z m 3.29335,0 c -0.49668,0 -0.89163,0.159666 -1.1853,0.478956 -0.2917,0.317322 -0.43787,0.746939 -0.43787,1.288945 0,0.524269 0.15368,0.940386 0.46116,1.24785 0.30944,0.307465 0.72831,0.461152 1.2565,0.461152 0.21092,0 0.4192,-0.02194 0.62418,-0.06529 0.20495,-0.04337 0.40483,-0.106256 0.59994,-0.189026 v -0.514573 c -0.19313,0.102491 -0.38826,0.17933 -0.58533,0.230577 -0.19514,0.05126 -0.39698,0.07715 -0.60589,0.07715 -0.36069,0 -0.64259,-0.09755 -0.8456,-0.292672 -0.20103,-0.197092 -0.31329,-0.482992 -0.33697,-0.857469 h 2.50074 v -0.266189 c 0,-0.492734 -0.12983,-0.881708 -0.38995,-1.167492 -0.25819,-0.287753 -0.61019,-0.43193 -1.05561,-0.43193 z M 18.749258,23.36659 v 3.311164 h 0.544253 V 23.36659 Z m 8.845446,0 1.241915,3.311164 h 0.739213 L 30.817291,23.36659 H 30.24108 l -1.035083,2.779242 -1.034623,-2.779242 z m 3.97367,0 v 3.311164 h 0.543795 V 23.36659 Z m 16.594172,0 v 2.004414 c 0,0.455286 0.09833,0.801309 0.295413,1.037821 0.197091,0.236511 0.486213,0.354768 0.866599,0.354768 0.230599,0 0.432454,-0.04818 0.60589,-0.144737 0.175413,-0.09854 0.329103,-0.248704 0.461154,-0.449739 v 0.508637 h 0.544251 v -3.311161 h -0.544251 v 1.877484 c 0,0.323231 -0.0856,0.578457 -0.257059,0.765695 -0.169498,0.18724 -0.401256,0.280799 -0.694922,0.280799 -0.244398,0 -0.427535,-0.07807 -0.549732,-0.233772 -0.122204,-0.157673 -0.183547,-0.392959 -0.183547,-0.706338 v -1.983879 z m 42.583979,0 v 2.004414 c 0,0.455286 0.09833,0.801309 0.295407,1.037821 0.197102,0.236511 0.486217,0.354768 0.866602,0.354768 0.230598,0 0.432444,-0.04818 0.605892,-0.144737 0.175412,-0.09854 0.329096,-0.248704 0.461151,-0.449739 v 0.508637 h 0.543798 v -3.311169 h -0.543798 v 1.877481 c 0,0.323233 -0.08563,0.578459 -0.257059,0.765698 -0.169501,0.187239 -0.401255,0.280798 -0.69492,0.280798 -0.244398,0 -0.427539,-0.07807 -0.549735,-0.233772 -0.122189,-0.157674 -0.183549,-0.392959 -0.183549,-0.706338 v -1.983867 z m 7.899402,0 v 2.004414 c 0,0.455286 0.09877,0.801309 0.295864,1.037821 0.197094,0.236511 0.48575,0.354768 0.866143,0.354768 0.230596,0 0.432456,-0.04818 0.605896,-0.144737 0.17541,-0.09854 0.3291,-0.248704 0.46115,-0.449739 v 0.508637 h 0.54425 V 23.36659 h -0.54425 v 1.877484 c 0,0.323233 -0.0856,0.578457 -0.25706,0.765695 -0.1695,0.187242 -0.40125,0.280799 -0.694922,0.280799 -0.244398,0 -0.427539,-0.07807 -0.549735,-0.233772 -0.122189,-0.157673 -0.183549,-0.392957 -0.183549,-0.706338 V 23.36659 Z m 30.790803,0 1.33917,3.257744 -0.0973,0.248384 c -0.10052,0.264105 -0.19254,0.431747 -0.27533,0.502701 -0.0827,0.07096 -0.19903,0.106387 -0.34882,0.106387 h -0.31916 v 0.455215 H 130.17 c 0.2444,0 0.4395,-0.06013 0.58535,-0.180351 0.14585,-0.120226 0.29555,-0.377447 0.44927,-0.771631 l 1.45469,-3.618449 h -0.57667 l -1.03463,2.58976 -1.03461,-2.58976 z m 34.69646,0 v 3.311164 h 0.54378 V 23.366576 Z M 16.156763,23.741889 c 0.287756,0 0.514297,0.114281 0.679855,0.342898 0.165559,0.226656 0.248384,0.540011 0.248384,0.94011 0,0.4001 -0.08282,0.714679 -0.248384,0.943309 -0.165558,0.226656 -0.392099,0.340158 -0.679855,0.340155 -0.287759,0 -0.514757,-0.113496 -0.680315,-0.340155 -0.163587,-0.22863 -0.245186,-0.543209 -0.245186,-0.943309 0,-0.400099 0.08159,-0.713454 0.245186,-0.94011 0.165558,-0.228629 0.392556,-0.342898 0.680315,-0.342898 z m 127.987987,0 c 0.28775,0 0.51475,0.114281 0.68031,0.342898 0.16557,0.226656 0.24791,0.540011 0.24791,0.94011 0,0.4001 -0.0824,0.714679 -0.24791,0.943309 -0.16556,0.226656 -0.39256,0.340158 -0.68031,0.340155 -0.28777,0 -0.51431,-0.113496 -0.67987,-0.340155 -0.16358,-0.22863 -0.24516,-0.543209 -0.24516,-0.943309 0,-0.400099 0.0815,-0.713454 0.24516,-0.94011 0.16556,-0.228629 0.3921,-0.342898 0.67987,-0.342898 z m -98.34458,0.0058 c 0.289725,0 0.519489,0.115488 0.688989,0.346092 0.169499,0.228629 0.254318,0.538766 0.254318,0.930979 0,0.394187 -0.08481,0.706004 -0.254318,0.934634 -0.1695,0.228626 -0.399264,0.342894 -0.688989,0.342894 -0.293669,0 -0.524967,-0.113496 -0.694468,-0.340155 -0.167528,-0.228627 -0.25158,-0.541214 -0.25158,-0.937373 0,-0.396157 0.08481,-0.707518 0.25432,-0.934174 0.1695,-0.228628 0.40003,-0.342897 0.691728,-0.342897 z m 21.097026,0 c 0.289725,0 0.519489,0.115488 0.68899,0.346092 0.169498,0.228629 0.254317,0.538766 0.254317,0.930979 0,0.394187 -0.08481,0.706004 -0.254317,0.934634 -0.169501,0.228626 -0.399265,0.342894 -0.68899,0.342894 -0.29367,0 -0.525425,-0.113496 -0.694924,-0.340155 -0.167529,-0.228627 -0.251122,-0.541214 -0.251122,-0.937373 -10e-7,-0.396157 0.08481,-0.707518 0.254318,-0.934174 0.1695,-0.228628 0.400029,-0.342897 0.691728,-0.342897 z m 15.872765,0 c 0.268048,0 0.483084,0.08881 0.644699,0.26619 0.163583,0.177385 0.247178,0.415121 0.251125,0.712732 l -1.939122,0.0028 c 0.02759,-0.31141 0.131886,-0.552676 0.313217,-0.724146 0.183296,-0.171472 0.426557,-0.257515 0.730081,-0.257515 z m 38.527659,0 c 0.26805,0 0.48308,0.08881 0.6447,0.26619 0.16341,0.177385 0.24701,0.415121 0.25113,0.712732 l -1.93913,0.0028 c 0.0276,-0.31141 0.1319,-0.552676 0.31322,-0.724146 0.1833,-0.171472 0.42656,-0.257515 0.73008,-0.257515 z m 3.61571,0 c 0.28973,0 0.5195,0.115488 0.68899,0.346092 0.16951,0.228629 0.25432,0.538766 0.25432,0.930979 0,0.394187 -0.0848,0.706004 -0.25432,0.934634 -0.16949,0.228626 -0.39926,0.342894 -0.68899,0.342894 -0.29367,0 -0.52497,-0.113496 -0.69446,-0.340155 -0.16753,-0.228627 -0.25159,-0.541214 -0.25159,-0.937373 0,-0.396157 0.0848,-0.707518 0.25432,-0.934174 0.1695,-0.228628 0.40004,-0.342897 0.69173,-0.342897 z m 45.62621,0 c 0.26803,0 0.48307,0.08881 0.6447,0.26619 0.16341,0.177385 0.247,0.415121 0.25113,0.712732 l -1.93958,0.0028 c 0.0275,-0.31141 0.13229,-0.552676 0.31367,-0.724146 0.1833,-0.171472 0.42656,-0.257515 0.73008,-0.257515 z M 8.8541211,25.013466 h 0.5410545 v 0.121012 c 0,0.354767 -0.091573,0.639442 -0.2748646,0.854273 -0.181326,0.212859 -0.4225939,0.319613 -0.7241453,0.31961 -0.2187723,3e-6 -0.3923991,-0.05613 -0.5205089,-0.168481 -0.126138,-0.11431 -0.1890264,-0.268456 -0.1890264,-0.461608 0,-0.242423 0.084819,-0.413598 0.254318,-0.514115 0.1694988,-0.100528 0.473654,-0.150675 0.9131727,-0.150675 z m 16.9224569,0 h 0.541055 v 0.121012 c 0,0.354767 -0.09157,0.639442 -0.274865,0.854273 -0.181326,0.212859 -0.422594,0.319613 -0.724144,0.31961 -0.218776,3e-6 -0.392399,-0.05613 -0.520511,-0.168481 -0.126144,-0.11431 -0.189027,-0.268456 -0.189027,-0.461608 0,-0.242423 0.08483,-0.413598 0.25432,-0.514115 0.169501,-0.100528 0.473655,-0.150675 0.913172,-0.150675 z m 8.975575,0 h 0.541053 v 0.121012 c 0,0.354767 -0.09157,0.639442 -0.274866,0.854273 -0.181323,0.212859 -0.422591,0.319613 -0.724143,0.31961 -0.218776,3e-6 -0.392399,-0.05613 -0.520512,-0.168481 -0.126144,-0.11431 -0.189024,-0.268456 -0.189024,-0.461608 0,-0.242423 0.08481,-0.413598 0.254317,-0.514115 0.169502,-0.100528 0.473655,-0.150675 0.913175,-0.150675 z m 25.046953,0 h 0.540598 v 0.121012 c 0,0.354767 -0.09156,0.639442 -0.274864,0.854273 -0.181326,0.212859 -0.422594,0.319613 -0.724147,0.31961 -0.218774,3e-6 -0.392398,-0.05613 -0.520508,-0.168481 -0.126144,-0.11431 -0.189029,-0.268456 -0.189027,-0.461608 0,-0.242423 0.08481,-0.413598 0.254318,-0.514115 0.1695,-0.100528 0.474112,-0.150675 0.91363,-0.150675 z m 46.746224,0 h 0.54105 v 0.121012 c 0,0.354767 -0.0916,0.639442 -0.27487,0.854273 -0.18133,0.212859 -0.42259,0.319613 -0.72414,0.31961 -0.21878,3e-6 -0.39241,-0.05613 -0.52051,-0.168481 -0.12613,-0.11431 -0.18903,-0.268456 -0.18903,-0.461608 0,-0.242423 0.0844,-0.413598 0.25386,-0.514115 0.1695,-0.100528 0.47412,-0.150675 0.91364,-0.150675 z m 30.29723,0 h 0.54107 v 0.121012 c 0,0.354767 -0.0916,0.639442 -0.27489,0.854273 -0.18132,0.212859 -0.42305,0.319613 -0.72458,0.31961 -0.21878,3e-6 -0.39195,-0.05613 -0.52006,-0.168481 -0.12613,-0.11431 -0.18948,-0.268456 -0.18948,-0.461608 0,-0.242423 0.0848,-0.413598 0.25431,-0.514115 0.1695,-0.100528 0.47411,-0.150675 0.91363,-0.150675 z m 19.37022,0 h 0.54104 v 0.121012 c 0,0.354767 -0.0916,0.639442 -0.27485,0.854273 -0.18133,0.212859 -0.4226,0.319613 -0.72414,0.31961 -0.21878,3e-6 -0.39239,-0.05613 -0.52052,-0.168481 -0.12619,-0.11431 -0.18904,-0.268456 -0.18904,-0.461608 0,-0.242423 0.0845,-0.413598 0.25388,-0.514115 0.16949,-0.100528 0.4741,-0.150675 0.91363,-0.150675 z"
     style="fill:#ffffff;stroke-width:0.23377217" />
</svg>
