<?xml version="1.0" encoding="UTF-8" standalone="no"?>
<svg
   xmlns:dc="http://purl.org/dc/elements/1.1/"
   xmlns:cc="http://creativecommons.org/ns#"
   xmlns:rdf="http://www.w3.org/1999/02/22-rdf-syntax-ns#"
   xmlns:svg="http://www.w3.org/2000/svg"
   xmlns="http://www.w3.org/2000/svg"
   viewBox="0 0 433.3861 78.933068"
   height="78.933067"
   width="433.38611"
   xml:space="preserve"
   id="svg834"
   version="1.1"><metadata
     id="metadata840"><rdf:RDF><cc:Work
         rdf:about=""><dc:format>image/svg+xml</dc:format><dc:type
           rdf:resource="http://purl.org/dc/dcmitype/StillImage" /><dc:title></dc:title></cc:Work></rdf:RDF></metadata><defs
     id="defs838"><clipPath
       id="clipPath854"
       clipPathUnits="userSpaceOnUse"><path
         id="path852"
         d="M 0,340.483 H 798.765 V 0 H 0 Z" /></clipPath><clipPath
       id="clipPath914"
       clipPathUnits="userSpaceOnUse"><path
         id="path912"
         d="m 427.057,178.487 h 92.428 v -10.614 h -92.428 z" /></clipPath><clipPath
       id="clipPath958"
       clipPathUnits="userSpaceOnUse"><path
         id="path956"
         d="M 0,340.483 H 798.765 V 0 H 0 Z" /></clipPath><clipPath
       id="clipPath966"
       clipPathUnits="userSpaceOnUse"><path
         id="path964"
         d="m 564.596,199.572 h 52.281 v -51.7 h -52.281 z" /></clipPath><clipPath
       id="clipPath1018"
       clipPathUnits="userSpaceOnUse"><path
         id="path1016"
         d="m 570.237,193.678 h 40.475 v -30.734 h -40.475 z" /></clipPath></defs><g
     transform="matrix(1.3333333,0,0,-1.3333333,-394.11652,271.09573)"
     id="g842"><g
       id="g910" /><g
       id="complete_logo_group"><g
         id="form_akademisk_academic_group"><g
           id="formakademisk"><g
             id="g856"
             transform="translate(299.3374,153.5547)"><path
               d="M 0,0 V 2.039 C 2.112,2.183 3.365,2.379 3.759,2.63 4.062,2.825 4.241,3.183 4.295,3.704 4.421,4.633 4.5,7.549 4.536,12.455 v 8.049 L 3.785,20.532 0.134,20.37 v 1.315 c 2.38,1.234 3.616,1.888 3.703,1.959 0.233,0.162 0.351,0.374 0.351,0.644 0,0.842 0.04,1.882 0.121,3.127 0.08,1.245 0.201,2.126 0.36,2.644 0.162,0.52 0.422,1.02 0.78,1.504 0.591,0.785 1.896,2.057 3.919,3.811 l 3.246,2.9 c 0.519,0.445 1.117,0.798 1.799,1.058 0.679,0.258 1.45,0.39 2.309,0.39 0.874,0 1.817,-0.161 2.817,-0.483 -0.286,-1.935 -0.412,-3.723 -0.374,-5.368 l -1.076,-0.485 c -0.536,0.502 -1.036,0.847 -1.501,1.034 -0.465,0.188 -1.056,0.282 -1.773,0.282 -1.036,0 -1.86,-0.195 -2.468,-0.589 -0.43,-0.286 -0.716,-0.67 -0.86,-1.151 -0.214,-0.714 -0.321,-2.498 -0.321,-5.354 v -3.724 l 3.166,0.026 c 1.539,0.03 2.872,0.085 3.999,0.164 L 18.68,23.806 C 18.589,23.5 18.519,23.187 18.467,22.864 l -0.431,-2.388 -2.709,0.056 c -0.788,0.035 -1.237,0.052 -1.344,0.052 -0.323,0 -1.26,-0.026 -2.817,-0.08 V 11.93 c 0,-1.918 0.022,-3.745 0.067,-5.485 0.043,-1.737 0.121,-2.785 0.229,-3.143 0.089,-0.251 0.229,-0.457 0.413,-0.619 0.19,-0.161 0.497,-0.276 0.927,-0.349 0.108,-0.018 1.323,-0.116 3.652,-0.295 L 16.454,0 7.301,0.134 C 6.174,0.134 3.74,0.089 0,0"
               style="fill:#ffffff;fill-opacity:1;fill-rule:nonzero;stroke:none"
               id="path858" /></g><g
             id="g860"
             transform="translate(328.2305,167.5107)"><path
               d="m 0,0 c 0,-4.76 0.697,-8.15 2.092,-10.174 0.93,-1.341 2.253,-2.011 3.971,-2.011 1.468,0 2.63,0.508 3.491,1.529 1.145,1.359 1.718,3.989 1.718,7.89 0,2.738 -0.228,5.086 -0.686,7.046 C 10.129,6.241 9.459,7.604 8.573,8.372 7.689,9.143 6.619,9.526 5.366,9.526 4.292,9.526 3.353,9.247 2.549,8.68 1.743,8.118 1.117,7.17 0.669,5.837 0.223,4.503 0,2.557 0,0 m -7.435,-1.289 c 0,3.042 0.518,5.56 1.557,7.555 1.036,1.996 2.593,3.497 4.668,4.509 2.077,1.01 4.492,1.517 7.246,1.517 4.133,0 7.279,-1.083 9.436,-3.25 2.156,-2.163 3.235,-5.338 3.235,-9.525 0,-2.417 -0.315,-4.509 -0.941,-6.28 -0.626,-1.772 -1.466,-3.198 -2.522,-4.282 -1.056,-1.083 -2.167,-1.903 -3.33,-2.454 -1.985,-0.932 -4.221,-1.397 -6.709,-1.397 -4.043,0 -7.162,1.149 -9.354,3.448 -2.191,2.299 -3.286,5.687 -3.286,10.159"
               style="fill:#ffffff;fill-opacity:1;fill-rule:nonzero;stroke:none"
               id="path862" /></g><g
             id="g864"
             transform="translate(365.2227,155.647)"><path
               d="m 0,0 v -2.092 c -2.023,0.089 -4.275,0.134 -6.764,0.134 -2.773,0 -5.653,-0.045 -8.642,-0.134 V 0 c 1.395,0 2.364,0.099 2.9,0.295 0.248,0.087 0.438,0.241 0.564,0.455 0.176,0.337 0.275,0.979 0.296,1.925 l 0.105,2.384 c 0.019,0.5 0.028,1.312 0.028,2.435 V 11 c 0,1.588 -0.048,3.515 -0.133,5.78 -0.056,1.143 -0.135,1.789 -0.231,1.941 -0.101,0.152 -0.259,0.264 -0.474,0.335 -0.342,0.126 -1.361,0.215 -3.055,0.268 v 2.094 c 3.274,0.554 5.422,0.965 6.446,1.233 1.026,0.27 2.187,0.698 3.481,1.288 l 0.729,-0.318 -0.056,-5.424 c 1.158,1.199 2.048,2.193 2.668,2.981 0.926,1.107 1.621,1.812 2.082,2.119 0.641,0.43 1.486,0.642 2.535,0.642 0.659,0 1.256,-0.106 1.788,-0.318 L 4.078,19.807 C 4.036,17.73 4.001,16.542 3.971,16.237 L 2.845,15.89 c -0.448,0.591 -0.879,1.001 -1.289,1.233 -0.661,0.377 -1.386,0.564 -2.175,0.564 -1.054,0 -1.962,-0.327 -2.722,-0.979 -0.761,-0.654 -1.214,-1.318 -1.356,-2 -0.071,-0.394 -0.109,-1.903 -0.109,-4.527 V 7.501 L -4.75,3.857 c 0.018,-1.375 0.067,-2.218 0.146,-2.529 0.083,-0.316 0.266,-0.56 0.551,-0.739 0.286,-0.179 0.905,-0.302 1.85,-0.375 z"
               style="fill:#ffffff;fill-opacity:1;fill-rule:nonzero;stroke:none"
               id="path866" /></g><g
             id="g868"
             transform="translate(372.1104,153.5547)"><path
               d="m 0,0 v 2.092 c 1.397,0 2.362,0.099 2.9,0.295 0.248,0.087 0.438,0.241 0.563,0.456 0.178,0.337 0.276,0.979 0.297,1.925 l 0.105,2.383 c 0.018,0.5 0.028,1.312 0.028,2.435 v 3.507 c 0,1.588 -0.045,3.514 -0.133,5.78 -0.056,1.143 -0.131,1.789 -0.232,1.94 C 3.429,20.965 3.271,21.077 3.054,21.148 2.711,21.274 1.694,21.363 0,21.416 v 2.094 c 3.259,0.554 5.395,0.966 6.415,1.233 1.021,0.27 2.175,0.698 3.463,1.289 l 0.726,-0.324 v -4.33 l 4.874,3.929 c 0.572,0.233 1.059,0.39 1.461,0.472 0.402,0.079 0.941,0.119 1.621,0.119 2.141,0 3.764,-0.345 4.861,-1.037 1.1,-0.689 2.006,-1.849 2.721,-3.483 l 4.895,3.929 c 0.57,0.233 1.058,0.39 1.461,0.472 0.406,0.079 0.945,0.119 1.628,0.119 1.776,0 3.149,-0.219 4.129,-0.654 0.973,-0.442 1.784,-1.032 2.43,-1.785 0.647,-0.749 1.102,-1.555 1.371,-2.412 0.27,-0.858 0.402,-2.182 0.402,-3.967 0,-1.966 -0.015,-3.272 -0.05,-3.916 -0.02,-0.213 -0.028,-0.473 -0.028,-0.776 V 9.6 c 0,-2.862 0.051,-4.687 0.149,-5.485 C 42.628,3.321 42.8,2.821 43.042,2.614 43.287,2.412 43.822,2.279 44.65,2.226 44.939,2.208 45.441,2.163 46.164,2.092 V 0 C 43.71,0.122 41.689,0.189 40.099,0.189 38.291,0.189 36.753,0.122 35.482,0 l -0.375,0.508 0.301,4.858 c 0.068,1.968 0.099,3.66 0.099,5.075 v 2.037 c 0,3.187 -0.14,5.193 -0.427,6.028 -0.288,0.831 -0.766,1.484 -1.436,1.958 -0.672,0.473 -1.518,0.712 -2.537,0.712 -1.145,0 -2.119,-0.29 -2.924,-0.873 -0.805,-0.579 -1.305,-1.107 -1.502,-1.58 C 26.482,18.25 26.39,17.297 26.41,15.866 V 9.381 L 26.478,6.702 26.544,4.531 C 26.562,3.869 26.626,3.414 26.73,3.164 26.837,2.916 26.988,2.727 27.183,2.603 27.345,2.514 27.681,2.431 28.195,2.359 29.208,2.234 29.937,2.145 30.382,2.092 V 0 C 28.791,0.071 26.5,0.106 23.511,0.106 20.183,0.106 17.722,0.071 16.13,0 v 2.092 c 0.344,0.053 0.786,0.109 1.327,0.161 0.794,0.054 1.293,0.148 1.501,0.282 0.208,0.134 0.372,0.403 0.499,0.804 0.125,0.402 0.191,1.334 0.191,2.8 l 0.053,4.743 v 3.807 c 0,1.824 -0.112,3.114 -0.332,3.873 -0.225,0.76 -0.68,1.395 -1.364,1.902 -0.685,0.511 -1.57,0.765 -2.656,0.765 -1.191,0 -2.199,-0.304 -3.016,-0.912 -0.82,-0.609 -1.359,-1.215 -1.624,-1.822 -0.088,-0.339 -0.126,-1.742 -0.105,-4.208 V 9.598 c 0,-2.411 0.042,-4.264 0.133,-5.55 0.035,-0.679 0.124,-1.105 0.268,-1.284 0.141,-0.18 0.386,-0.313 0.725,-0.405 0.25,-0.069 1.082,-0.158 2.496,-0.267 L 14.226,0 C 12.296,0.071 9.977,0.106 7.262,0.106 4.206,0.106 1.785,0.071 0,0"
               style="fill:#ffffff;fill-opacity:1;fill-rule:nonzero;stroke:none"
               id="path870" /></g><g
             id="g872"
             transform="translate(429.8071,158.4839)"><path
               d="m 0,0 c 0.248,0 0.51,-0.004 0.779,-0.014 0.274,-0.009 0.533,-0.014 0.782,-0.014 0.271,0 0.543,0 0.81,0.006 0.27,0.006 0.541,0.014 0.813,0.022 L 1.576,3.782 Z M 6.41,-4.63 C 6.275,-4.61 6.146,-4.598 6.025,-4.598 H 5.643 5.26 c -0.121,0 -0.248,-0.012 -0.387,-0.032 -0.066,0.228 -0.156,0.505 -0.271,0.828 -0.116,0.323 -0.245,0.66 -0.385,1.012 -0.139,0.351 -0.283,0.709 -0.426,1.072 -0.145,0.362 -0.281,0.707 -0.404,1.032 -0.311,0.012 -0.625,0.02 -0.94,0.024 -0.32,0.003 -0.638,0.008 -0.959,0.008 -0.299,0 -0.59,-0.005 -0.881,-0.008 -0.289,-0.004 -0.584,-0.012 -0.882,-0.024 -0.309,-0.772 -0.59,-1.509 -0.84,-2.209 -0.252,-0.698 -0.44,-1.278 -0.565,-1.735 -0.164,0.02 -0.341,0.032 -0.535,0.032 -0.193,0 -0.371,-0.012 -0.535,-0.032 0.779,1.737 1.543,3.463 2.287,5.182 0.742,1.717 1.488,3.463 2.24,5.24 H 2.053 C 2.285,5.216 2.537,4.594 2.805,3.924 3.076,3.254 3.35,2.577 3.633,1.891 3.91,1.206 4.189,0.527 4.471,-0.148 4.75,-0.824 5.014,-1.45 5.26,-2.03 5.504,-2.613 5.725,-3.129 5.926,-3.585 6.123,-4.043 6.285,-4.389 6.41,-4.63"
               style="fill:#ffffff;fill-opacity:1;fill-rule:nonzero;stroke:none"
               id="path874" /></g><g
             id="g876"
             transform="translate(440.7368,155.7314)"><path
               d="M 0,0 C 0.023,0.632 0.037,1.281 0.037,1.933 V 4.494 C 0.037,5.149 0.023,5.794 0,6.424 -0.023,7.053 -0.051,7.697 -0.08,8.351 0.047,8.331 0.17,8.313 0.283,8.3 0.398,8.284 0.516,8.276 0.631,8.276 0.746,8.276 0.863,8.284 0.977,8.3 1.096,8.313 1.213,8.331 1.34,8.351 1.311,7.697 1.283,7.053 1.26,6.424 1.234,5.794 1.223,5.149 1.223,4.494 V 3.676 c 0,-0.08 0.031,-0.12 0.088,-0.12 0.039,0 0.105,0.045 0.203,0.134 C 1.852,3.989 2.207,4.326 2.576,4.703 2.947,5.081 3.32,5.473 3.699,5.881 4.074,6.287 4.443,6.7 4.812,7.122 5.178,7.543 5.531,7.953 5.867,8.351 5.975,8.331 6.074,8.313 6.172,8.3 6.27,8.284 6.365,8.276 6.461,8.276 6.578,8.276 6.693,8.284 6.809,8.3 6.926,8.313 7.041,8.331 7.154,8.351 6.818,8.054 6.437,7.701 6.012,7.295 5.586,6.888 5.162,6.47 4.73,6.042 4.303,5.616 3.893,5.197 3.502,4.785 3.113,4.374 2.785,4.013 2.525,3.705 3.307,2.804 4.098,1.881 4.891,0.945 5.687,0.006 6.496,-0.932 7.314,-1.877 7.172,-1.857 7.025,-1.846 6.881,-1.846 H 6.445 6.049 C 5.918,-1.846 5.785,-1.857 5.65,-1.877 5.305,-1.47 4.922,-1.002 4.5,-0.477 4.082,0.049 3.672,0.558 3.27,1.05 2.869,1.541 2.51,1.98 2.186,2.374 1.863,2.764 1.623,3.04 1.469,3.199 1.391,3.28 1.336,3.319 1.297,3.319 1.248,3.319 1.223,3.288 1.223,3.229 V 1.933 C 1.223,1.281 1.234,0.632 1.26,0 1.283,-0.636 1.311,-1.261 1.34,-1.877 1.119,-1.857 0.881,-1.846 0.631,-1.846 0.377,-1.846 0.143,-1.857 -0.08,-1.877 -0.051,-1.261 -0.023,-0.636 0,0"
               style="fill:#ffffff;fill-opacity:1;fill-rule:nonzero;stroke:none"
               id="path878" /></g><g
             id="g880"
             transform="translate(454.0845,158.4839)"><path
               d="m 0,0 c 0.25,0 0.514,-0.004 0.781,-0.014 0.27,-0.009 0.533,-0.014 0.783,-0.014 0.27,0 0.541,0 0.809,0.006 C 2.645,-0.016 2.912,-0.008 3.182,0 L 1.578,3.782 Z M 6.412,-4.63 C 6.273,-4.61 6.148,-4.598 6.025,-4.598 H 5.643 5.262 c -0.123,0 -0.25,-0.012 -0.385,-0.032 -0.07,0.228 -0.16,0.505 -0.273,0.828 -0.12,0.323 -0.245,0.66 -0.387,1.012 -0.139,0.351 -0.279,0.709 -0.426,1.072 -0.145,0.362 -0.279,0.707 -0.404,1.032 -0.309,0.012 -0.623,0.02 -0.942,0.024 -0.316,0.003 -0.636,0.008 -0.955,0.008 -0.299,0 -0.594,-0.005 -0.883,-0.008 -0.287,-0.004 -0.582,-0.012 -0.882,-0.024 -0.309,-0.772 -0.586,-1.509 -0.838,-2.209 -0.252,-0.698 -0.44,-1.278 -0.565,-1.735 -0.166,0.02 -0.342,0.032 -0.537,0.032 -0.191,0 -0.369,-0.012 -0.533,-0.032 0.781,1.737 1.543,3.463 2.285,5.182 0.744,1.717 1.492,3.463 2.244,5.24 H 2.057 C 2.287,5.216 2.539,4.594 2.809,3.924 3.078,3.254 3.352,2.577 3.631,1.891 3.914,1.206 4.191,0.527 4.471,-0.148 4.754,-0.824 5.016,-1.45 5.262,-2.03 5.506,-2.613 5.727,-3.129 5.924,-3.585 6.125,-4.043 6.285,-4.389 6.412,-4.63"
               style="fill:#ffffff;fill-opacity:1;fill-rule:nonzero;stroke:none"
               id="path882" /></g><g
             id="g884"
             transform="translate(466.3286,154.5098)"><path
               d="m 0,0 c 0.199,-0.049 0.475,-0.087 0.822,-0.112 0.348,-0.023 0.705,-0.035 1.073,-0.035 0.527,0 1.058,0.063 1.591,0.193 0.528,0.129 1.004,0.372 1.422,0.728 0.42,0.359 0.764,0.848 1.029,1.466 0.264,0.621 0.397,1.423 0.397,2.404 0,0.864 -0.102,1.574 -0.311,2.129 C 5.816,7.331 5.533,7.768 5.17,8.091 4.807,8.414 4.377,8.637 3.875,8.761 3.373,8.885 2.824,8.946 2.225,8.946 1.791,8.946 1.387,8.933 1.012,8.903 0.633,8.874 0.297,8.838 0,8.798 -0.031,8.322 -0.053,7.823 -0.068,7.304 -0.082,6.781 -0.09,6.251 -0.09,5.715 V 3.154 C -0.09,2.084 -0.061,1.032 0,0 M -1.311,7.646 C -1.338,8.274 -1.363,8.918 -1.393,9.573 -1.025,9.553 -0.662,9.535 -0.299,9.521 0.062,9.505 0.426,9.498 0.793,9.498 1.16,9.498 1.523,9.51 1.885,9.535 2.246,9.561 2.611,9.573 2.979,9.573 3.828,9.573 4.553,9.458 5.156,9.23 5.76,9.001 6.254,8.678 6.637,8.255 7.023,7.833 7.309,7.317 7.484,6.706 7.664,6.098 7.754,5.408 7.754,4.644 7.754,3.651 7.588,2.815 7.254,2.138 6.922,1.457 6.496,0.908 5.98,0.491 5.467,0.075 4.895,-0.22 4.273,-0.394 3.65,-0.569 3.055,-0.656 2.484,-0.656 c -0.326,0 -0.65,0.006 -0.966,0.016 -0.319,0.01 -0.645,0.016 -0.971,0.016 h -0.969 c -0.32,0 -0.642,-0.012 -0.971,-0.032 0.03,0.617 0.055,1.241 0.082,1.878 0.024,0.632 0.036,1.28 0.036,1.932 v 2.561 c 0,0.656 -0.012,1.301 -0.036,1.931"
               style="fill:#ffffff;fill-opacity:1;fill-rule:nonzero;stroke:none"
               id="path886" /></g><g
             id="g888"
             transform="translate(479.1665,162.1758)"><path
               d="M 0,0 C -0.023,0.636 -0.049,1.272 -0.08,1.907 0.355,1.887 0.785,1.869 1.215,1.855 1.645,1.839 2.076,1.832 2.512,1.832 2.945,1.832 3.375,1.839 3.799,1.855 4.223,1.869 4.652,1.887 5.086,1.907 5.057,1.757 5.043,1.609 5.043,1.461 5.043,1.312 5.057,1.162 5.086,1.012 4.777,1.032 4.494,1.052 4.24,1.073 3.984,1.093 3.715,1.113 3.43,1.132 3.146,1.152 2.832,1.17 2.494,1.186 2.158,1.2 1.756,1.208 1.281,1.208 1.271,0.89 1.262,0.587 1.244,0.299 1.23,0.012 1.223,-0.316 1.223,-0.684 c 0,-0.388 0.002,-0.764 0.007,-1.133 0.004,-0.366 0.008,-0.644 0.008,-0.831 0.424,0 0.805,0.004 1.143,0.014 0.338,0.009 0.646,0.021 0.926,0.037 0.281,0.016 0.539,0.03 0.775,0.043 0.234,0.016 0.459,0.034 0.672,0.054 -0.029,-0.148 -0.045,-0.302 -0.045,-0.463 0,-0.148 0.016,-0.296 0.045,-0.446 -0.25,0.03 -0.543,0.056 -0.875,0.075 -0.334,0.02 -0.666,0.031 -1,0.036 -0.332,0.006 -0.645,0.011 -0.94,0.015 -0.294,0.005 -0.527,0.008 -0.701,0.008 0,-0.09 -0.004,-0.184 -0.008,-0.291 C 1.225,-3.668 1.223,-3.801 1.223,-3.96 v -0.579 -0.893 c 0,-0.565 0.002,-1.032 0.007,-1.4 0.004,-0.367 0.012,-0.645 0.022,-0.834 h 1.012 c 0.369,0 0.726,0.008 1.08,0.022 0.351,0.016 0.681,0.036 0.998,0.059 0.312,0.028 0.588,0.063 0.818,0.114 C 5.139,-7.542 5.127,-7.618 5.121,-7.703 5.117,-7.786 5.115,-7.865 5.115,-7.934 c 0,-0.16 0.014,-0.287 0.045,-0.388 -0.435,0.02 -0.867,0.032 -1.297,0.032 H 2.555 1.238 c -0.435,0 -0.873,-0.012 -1.318,-0.032 0.031,0.636 0.057,1.269 0.08,1.899 0.025,0.631 0.037,1.273 0.037,1.927 v 2.561 C 0.037,-1.281 0.025,-0.634 0,0"
               style="fill:#ffffff;fill-opacity:1;fill-rule:nonzero;stroke:none"
               id="path890" /></g><g
             id="g892"
             transform="translate(492.2739,160.166)"><path
               d="m 0,0 c 0.68,-1.33 1.395,-2.693 2.137,-4.094 0.095,0.189 0.236,0.461 0.42,0.812 0.181,0.353 0.394,0.757 0.636,1.213 0.241,0.458 0.498,0.95 0.774,1.482 0.275,0.532 0.554,1.068 0.838,1.615 C 5.092,1.574 5.373,2.11 5.65,2.636 5.932,3.162 6.191,3.652 6.434,4.109 H 6.623 C 6.729,3.156 6.828,2.236 6.918,1.348 7.01,0.461 7.102,-0.414 7.199,-1.273 7.299,-2.132 7.395,-2.979 7.49,-3.818 7.586,-4.655 7.691,-5.486 7.807,-6.312 7.691,-6.292 7.58,-6.28 7.467,-6.28 H 7.129 6.787 c -0.109,0 -0.223,-0.012 -0.338,-0.032 -0.107,1.32 -0.213,2.6 -0.318,3.842 C 6.023,-1.229 5.893,0.035 5.74,1.326 H 5.711 C 5.045,0.075 4.393,-1.168 3.75,-2.403 3.107,-3.639 2.498,-4.931 1.92,-6.28 H 1.789 c -0.578,1.249 -1.185,2.502 -1.816,3.758 -0.631,1.253 -1.268,2.538 -1.903,3.848 H -1.959 C -2.027,0.709 -2.1,0.043 -2.182,-0.678 -2.264,-1.397 -2.34,-2.106 -2.406,-2.806 -2.475,-3.504 -2.533,-4.165 -2.58,-4.783 c -0.049,-0.623 -0.072,-1.131 -0.072,-1.529 -0.155,0.02 -0.325,0.032 -0.508,0.032 -0.182,0 -0.352,-0.012 -0.506,-0.032 0.125,0.804 0.256,1.655 0.391,2.547 0.134,0.893 0.265,1.791 0.39,2.693 0.127,0.903 0.242,1.795 0.348,2.674 0.105,0.876 0.197,1.713 0.277,2.507 h 0.244 C -1.352,2.701 -0.68,1.332 0,0"
               style="fill:#ffffff;fill-opacity:1;fill-rule:nonzero;stroke:none"
               id="path894" /></g><g
             id="g896"
             transform="translate(505.0532,162.1558)"><path
               d="M 0,0 C -0.027,0.628 -0.051,1.272 -0.08,1.927 0.045,1.907 0.164,1.889 0.283,1.875 0.396,1.859 0.514,1.852 0.629,1.852 c 0.115,0 0.23,0.007 0.348,0.023 C 1.09,1.889 1.213,1.907 1.336,1.927 1.309,1.272 1.281,0.628 1.258,0 1.234,-0.63 1.223,-1.275 1.223,-1.931 v -2.561 c 0,-0.652 0.011,-1.3 0.035,-1.932 0.023,-0.637 0.051,-1.261 0.078,-1.878 -0.221,0.02 -0.457,0.032 -0.707,0.032 -0.252,0 -0.488,-0.012 -0.709,-0.032 0.029,0.617 0.053,1.241 0.08,1.878 0.025,0.632 0.037,1.28 0.037,1.932 v 2.561 C 0.037,-1.275 0.025,-0.63 0,0"
               style="fill:#ffffff;fill-opacity:1;fill-rule:nonzero;stroke:none"
               id="path898" /></g><g
             id="g900"
             transform="translate(511.9985,155.2466)"><path
               d="m 0,0 c 0.129,-0.183 0.287,-0.348 0.475,-0.498 0.189,-0.15 0.408,-0.27 0.66,-0.364 0.25,-0.095 0.529,-0.143 0.84,-0.143 0.316,0 0.605,0.058 0.859,0.172 0.254,0.114 0.475,0.268 0.652,0.461 0.178,0.193 0.315,0.421 0.41,0.685 C 3.994,0.575 4.043,0.857 4.043,1.155 4.043,1.61 3.93,1.972 3.701,2.24 3.477,2.508 3.193,2.733 2.857,2.91 2.518,3.089 2.152,3.252 1.764,3.402 1.373,3.55 1.008,3.738 0.672,3.96 0.336,4.183 0.053,4.468 -0.176,4.817 c -0.226,0.347 -0.338,0.811 -0.338,1.399 0,0.417 0.071,0.796 0.215,1.138 0.145,0.343 0.356,0.639 0.629,0.887 0.277,0.248 0.607,0.441 0.992,0.579 0.385,0.139 0.821,0.209 1.301,0.209 0.465,0 0.867,-0.055 1.203,-0.17 C 4.162,8.745 4.477,8.568 4.766,8.33 4.68,8.162 4.607,7.981 4.549,7.794 4.49,7.605 4.432,7.366 4.375,7.079 H 4.201 C 4.152,7.218 4.088,7.37 4.008,7.531 3.924,7.697 3.813,7.847 3.674,7.987 3.533,8.127 3.367,8.243 3.176,8.338 2.982,8.43 2.75,8.477 2.48,8.477 2.211,8.477 1.961,8.434 1.736,8.343 1.506,8.254 1.311,8.129 1.143,7.965 0.971,7.801 0.844,7.605 0.75,7.378 0.66,7.149 0.613,6.901 0.613,6.633 0.613,6.165 0.729,5.798 0.953,5.53 1.18,5.262 1.463,5.038 1.801,4.852 2.139,4.669 2.502,4.506 2.893,4.362 3.285,4.218 3.646,4.041 3.984,3.832 4.322,3.625 4.604,3.357 4.83,3.028 5.057,2.701 5.172,2.264 5.172,1.72 5.172,1.263 5.092,0.832 4.934,0.424 4.773,0.018 4.543,-0.336 4.238,-0.64 3.934,-0.944 3.563,-1.176 3.123,-1.339 2.684,-1.503 2.186,-1.585 1.627,-1.585 c -0.598,0 -1.086,0.082 -1.453,0.246 -0.373,0.163 -0.684,0.348 -0.934,0.557 0.086,0.229 0.145,0.436 0.18,0.619 0.033,0.184 0.066,0.419 0.094,0.707 h 0.174 C -0.234,0.364 -0.131,0.183 0,0"
               style="fill:#ffffff;fill-opacity:1;fill-rule:nonzero;stroke:none"
               id="path902" /></g><g
             id="g904"
             transform="translate(522.0981,155.7314)"><path
               d="M 0,0 C 0.023,0.632 0.033,1.281 0.033,1.933 V 4.494 C 0.033,5.149 0.023,5.794 0,6.424 -0.027,7.053 -0.053,7.697 -0.08,8.351 0.043,8.331 0.164,8.313 0.281,8.3 0.396,8.284 0.514,8.276 0.627,8.276 0.744,8.276 0.859,8.284 0.977,8.3 1.09,8.313 1.213,8.331 1.338,8.351 1.307,7.697 1.281,7.053 1.258,6.424 1.234,5.794 1.221,5.149 1.221,4.494 V 3.676 c 0,-0.08 0.029,-0.12 0.086,-0.12 0.041,0 0.107,0.045 0.203,0.134 0.336,0.299 0.693,0.636 1.064,1.013 0.369,0.378 0.744,0.77 1.123,1.178 C 4.07,6.287 4.443,6.7 4.811,7.122 5.174,7.543 5.527,7.953 5.865,8.351 5.971,8.331 6.072,8.313 6.172,8.3 6.266,8.284 6.363,8.276 6.459,8.276 6.574,8.276 6.691,8.284 6.805,8.3 6.922,8.313 7.037,8.331 7.152,8.351 6.814,8.054 6.436,7.701 6.01,7.295 5.586,6.888 5.158,6.47 4.729,6.042 4.299,5.616 3.893,5.197 3.5,4.785 3.109,4.374 2.781,4.013 2.523,3.705 3.305,2.804 4.092,1.881 4.891,0.945 5.684,0.006 6.492,-0.932 7.314,-1.877 7.168,-1.857 7.025,-1.846 6.877,-1.846 H 6.445 6.047 c -0.129,0 -0.264,-0.011 -0.399,-0.031 -0.345,0.407 -0.73,0.875 -1.15,1.4 C 4.078,0.049 3.668,0.558 3.27,1.05 2.867,1.541 2.508,1.98 2.182,2.374 1.861,2.764 1.621,3.04 1.469,3.199 1.391,3.28 1.33,3.319 1.293,3.319 1.244,3.319 1.221,3.288 1.221,3.229 V 1.933 C 1.221,1.281 1.234,0.632 1.258,0 1.281,-0.636 1.307,-1.261 1.338,-1.877 1.117,-1.857 0.879,-1.846 0.627,-1.846 0.375,-1.846 0.141,-1.857 -0.08,-1.877 -0.053,-1.261 -0.027,-0.636 0,0"
               style="fill:#ffffff;fill-opacity:1;fill-rule:nonzero;stroke:none"
               id="path906" /></g></g><g
           style="opacity:0.39999402"
           id="g948"
           clip-path="url(#clipPath914)"><g
             id="g918"
             transform="translate(429.8071,172.6953)"><path
               id="path916"
               style="fill:#ffffff;fill-opacity:1;fill-rule:nonzero;stroke:none"
               d="m 0,0 c 0.248,0 0.51,-0.004 0.779,-0.013 0.274,-0.01 0.533,-0.014 0.782,-0.014 0.271,0 0.543,0.001 0.81,0.007 0.27,0.004 0.541,0.012 0.813,0.02 L 1.576,3.783 Z M 6.41,-4.627 C 6.275,-4.608 6.146,-4.598 6.025,-4.598 H 5.643 5.26 c -0.121,0 -0.248,-0.01 -0.387,-0.029 -0.066,0.228 -0.156,0.502 -0.271,0.825 -0.116,0.323 -0.245,0.662 -0.385,1.013 -0.139,0.351 -0.283,0.709 -0.426,1.071 -0.145,0.363 -0.281,0.71 -0.404,1.034 -0.311,0.011 -0.625,0.018 -0.94,0.022 -0.32,0.006 -0.638,0.008 -0.959,0.008 -0.299,0 -0.59,-0.002 -0.881,-0.008 -0.289,-0.004 -0.584,-0.011 -0.882,-0.022 -0.309,-0.774 -0.59,-1.51 -0.84,-2.208 -0.252,-0.701 -0.44,-1.28 -0.565,-1.735 -0.164,0.019 -0.341,0.029 -0.535,0.029 -0.193,0 -0.371,-0.01 -0.535,-0.029 0.779,1.735 1.543,3.461 2.287,5.179 0.742,1.718 1.488,3.463 2.24,5.24 H 2.053 C 2.285,5.217 2.537,4.594 2.805,3.925 3.076,3.254 3.35,2.577 3.633,1.892 3.91,1.208 4.189,0.528 4.471,-0.148 4.75,-0.823 5.014,-1.45 5.26,-2.029 5.504,-2.61 5.725,-3.128 5.926,-3.585 6.123,-4.042 6.285,-4.389 6.41,-4.627" /></g><g
             id="g922"
             transform="translate(447.4067,168.4165)"><path
               id="path920"
               style="fill:#ffffff;fill-opacity:1;fill-rule:nonzero;stroke:none"
               d="m 0,0 c -0.187,-0.095 -0.414,-0.177 -0.68,-0.252 -0.265,-0.075 -0.56,-0.142 -0.888,-0.201 -0.327,-0.059 -0.668,-0.09 -1.028,-0.09 -0.761,0 -1.466,0.114 -2.111,0.334 -0.647,0.225 -1.203,0.563 -1.672,1.021 -0.469,0.457 -0.836,1.014 -1.1,1.674 -0.267,0.66 -0.398,1.411 -0.398,2.256 0,0.843 0.131,1.595 0.398,2.256 0.264,0.659 0.635,1.217 1.114,1.674 0.478,0.455 1.051,0.804 1.715,1.042 0.666,0.239 1.398,0.357 2.197,0.357 0.639,0 1.219,-0.067 1.744,-0.201 C -0.18,9.736 0.281,9.574 0.687,9.387 0.611,9.248 0.549,9.059 0.502,8.822 0.451,8.582 0.414,8.385 0.385,8.227 L 0.297,8.195 C 0.201,8.314 0.066,8.448 -0.107,8.597 -0.279,8.747 -0.484,8.889 -0.715,9.031 -0.945,9.169 -1.205,9.283 -1.498,9.379 -1.785,9.474 -2.104,9.521 -2.453,9.521 -3.02,9.521 -3.551,9.425 -4.035,9.238 -4.523,9.05 -4.947,8.759 -5.307,8.367 -5.67,7.975 -5.953,7.479 -6.154,6.879 -6.359,6.276 -6.459,5.565 -6.459,4.742 c 0,-0.825 0.1,-1.537 0.305,-2.136 0.201,-0.601 0.484,-1.097 0.847,-1.487 0.36,-0.394 0.784,-0.683 1.272,-0.873 0.484,-0.187 1.015,-0.282 1.582,-0.282 0.349,0 0.668,0.044 0.965,0.134 0.293,0.089 0.562,0.195 0.808,0.319 0.246,0.125 0.467,0.259 0.668,0.402 C 0.186,0.963 0.352,1.091 0.484,1.2 L 0.545,1.139 0.414,0.26 C 0.328,0.182 0.189,0.095 0,0" /></g><g
             id="g926"
             transform="translate(453.8091,172.6953)"><path
               id="path924"
               style="fill:#ffffff;fill-opacity:1;fill-rule:nonzero;stroke:none"
               d="m 0,0 c 0.252,0 0.512,-0.004 0.785,-0.013 0.268,-0.01 0.527,-0.014 0.779,-0.014 0.268,0 0.54,0.001 0.811,0.007 0.27,0.004 0.541,0.012 0.809,0.02 L 1.576,3.783 Z M 6.41,-4.627 C 6.277,-4.608 6.146,-4.598 6.027,-4.598 H 5.645 5.26 c -0.119,0 -0.248,-0.01 -0.381,-0.029 -0.07,0.228 -0.16,0.502 -0.277,0.825 -0.118,0.323 -0.245,0.662 -0.381,1.013 -0.143,0.351 -0.285,0.709 -0.43,1.071 -0.145,0.363 -0.277,0.71 -0.406,1.034 -0.307,0.011 -0.619,0.018 -0.938,0.022 -0.32,0.006 -0.636,0.008 -0.957,0.008 -0.299,0 -0.592,-0.002 -0.881,-0.008 -0.289,-0.004 -0.586,-0.011 -0.882,-0.022 -0.309,-0.774 -0.588,-1.51 -0.84,-2.208 -0.25,-0.701 -0.438,-1.28 -0.565,-1.735 -0.164,0.019 -0.343,0.029 -0.535,0.029 -0.191,0 -0.371,-0.01 -0.535,-0.029 0.783,1.735 1.543,3.461 2.285,5.179 0.744,1.718 1.492,3.463 2.244,5.24 H 2.057 C 2.285,5.217 2.539,4.594 2.809,3.925 3.078,3.254 3.354,2.577 3.633,1.892 3.912,1.208 4.193,0.528 4.473,-0.148 4.752,-0.823 5.014,-1.45 5.26,-2.029 5.508,-2.61 5.729,-3.128 5.926,-3.585 6.123,-4.042 6.285,-4.389 6.41,-4.627" /></g><g
             id="g930"
             transform="translate(466.0513,168.7236)"><path
               id="path928"
               style="fill:#ffffff;fill-opacity:1;fill-rule:nonzero;stroke:none"
               d="M 0,0 C 0.203,-0.051 0.477,-0.086 0.824,-0.114 1.17,-0.137 1.529,-0.15 1.895,-0.15 c 0.533,0 1.06,0.064 1.591,0.194 C 4.02,0.173 4.492,0.416 4.914,0.772 5.332,1.131 5.674,1.62 5.939,2.24 6.205,2.858 6.338,3.661 6.338,4.642 6.338,5.506 6.234,6.218 6.027,6.773 5.82,7.329 5.533,7.766 5.174,8.089 4.811,8.412 4.377,8.633 3.877,8.759 3.375,8.885 2.828,8.946 2.229,8.946 1.795,8.946 1.389,8.931 1.012,8.901 0.635,8.872 0.301,8.836 0,8.796 -0.029,8.322 -0.051,7.821 -0.064,7.301 -0.078,6.779 -0.086,6.251 -0.086,5.715 V 3.154 C -0.086,2.084 -0.059,1.033 0,0 M -1.311,7.644 C -1.334,8.274 -1.359,8.917 -1.389,9.571 -1.021,9.551 -0.658,9.535 -0.297,9.52 0.066,9.503 0.43,9.496 0.795,9.496 1.162,9.496 1.527,9.508 1.889,9.535 2.25,9.559 2.613,9.571 2.98,9.571 3.83,9.571 4.555,9.457 5.158,9.228 5.76,8.999 6.258,8.676 6.641,8.254 7.029,7.833 7.309,7.317 7.486,6.707 7.666,6.096 7.754,5.406 7.754,4.642 7.754,3.651 7.59,2.813 7.256,2.136 6.924,1.456 6.498,0.906 5.984,0.491 5.467,0.073 4.896,-0.221 4.275,-0.396 3.652,-0.569 3.059,-0.656 2.49,-0.656 c -0.332,0 -0.654,0.007 -0.97,0.014 -0.317,0.012 -0.641,0.016 -0.969,0.016 h -0.969 c -0.318,0 -0.643,-0.01 -0.971,-0.03 0.03,0.615 0.055,1.239 0.078,1.875 0.026,0.635 0.04,1.281 0.04,1.935 v 2.561 c 0,0.656 -0.014,1.299 -0.04,1.929" /></g><g
             id="g934"
             transform="translate(478.8931,176.3892)"><path
               id="path932"
               style="fill:#ffffff;fill-opacity:1;fill-rule:nonzero;stroke:none"
               d="M 0,0 C -0.023,0.636 -0.053,1.271 -0.08,1.905 0.354,1.885 0.785,1.869 1.215,1.854 1.641,1.838 2.076,1.831 2.51,1.831 2.941,1.831 3.371,1.838 3.797,1.854 4.221,1.869 4.65,1.885 5.084,1.905 5.057,1.755 5.041,1.608 5.041,1.46 5.041,1.31 5.057,1.16 5.084,1.012 4.777,1.032 4.494,1.05 4.238,1.072 3.982,1.091 3.713,1.109 3.43,1.131 3.143,1.152 2.832,1.168 2.494,1.184 2.156,1.198 1.752,1.206 1.279,1.206 1.27,0.887 1.258,0.585 1.244,0.297 1.229,0.01 1.221,-0.317 1.221,-0.685 c 0,-0.389 0.002,-0.763 0.008,-1.131 0.003,-0.369 0.007,-0.644 0.007,-0.833 0.424,0 0.807,0.003 1.143,0.013 0.34,0.01 0.646,0.022 0.926,0.038 0.283,0.015 0.541,0.03 0.773,0.045 0.238,0.013 0.463,0.031 0.674,0.051 C 4.725,-2.649 4.709,-2.803 4.709,-2.963 4.709,-3.11 4.725,-3.26 4.752,-3.41 4.5,-3.378 4.209,-3.354 3.875,-3.335 3.543,-3.316 3.209,-3.303 2.879,-3.298 2.547,-3.292 2.23,-3.288 1.937,-3.284 1.641,-3.278 1.41,-3.276 1.236,-3.276 1.236,-3.364 1.232,-3.461 1.229,-3.565 1.223,-3.67 1.221,-3.802 1.221,-3.962 v -0.579 -0.892 c 0,-0.566 0.002,-1.033 0.008,-1.401 0.003,-0.367 0.011,-0.644 0.021,-0.832 h 1.014 c 0.367,0 0.724,0.007 1.076,0.02 0.353,0.016 0.685,0.036 1.002,0.062 0.31,0.025 0.584,0.06 0.814,0.111 C 5.137,-7.543 5.127,-7.618 5.121,-7.705 5.117,-7.788 5.113,-7.866 5.113,-7.933 c 0,-0.16 0.016,-0.29 0.043,-0.388 -0.431,0.019 -0.863,0.029 -1.295,0.029 H 2.555 1.236 c -0.435,0 -0.875,-0.01 -1.316,-0.029 0.027,0.636 0.057,1.266 0.08,1.897 0.023,0.63 0.035,1.273 0.035,1.926 v 2.561 C 0.035,-1.28 0.023,-0.636 0,0" /></g><g
             id="g938"
             transform="translate(492.0005,174.3779)"><path
               id="path936"
               style="fill:#ffffff;fill-opacity:1;fill-rule:nonzero;stroke:none"
               d="m 0,0 c 0.68,-1.328 1.391,-2.691 2.133,-4.092 0.099,0.187 0.24,0.459 0.422,0.812 0.183,0.35 0.394,0.754 0.634,1.212 0.245,0.457 0.5,0.949 0.776,1.481 0.275,0.532 0.556,1.069 0.84,1.615 C 5.088,1.574 5.373,2.11 5.65,2.636 5.93,3.164 6.189,3.652 6.432,4.109 H 6.619 C 6.727,3.158 6.826,2.238 6.916,1.348 7.01,0.461 7.102,-0.414 7.199,-1.273 7.295,-2.132 7.393,-2.979 7.488,-3.816 7.586,-4.655 7.691,-5.486 7.807,-6.31 7.691,-6.291 7.576,-6.281 7.467,-6.281 H 7.127 6.787 C 6.676,-6.281 6.562,-6.291 6.445,-6.31 6.34,-4.99 6.234,-3.712 6.129,-2.47 6.023,-1.229 5.893,0.035 5.736,1.326 H 5.709 C 5.045,0.075 4.389,-1.167 3.75,-2.404 3.107,-3.637 2.496,-4.931 1.918,-6.281 H 1.789 C 1.209,-5.03 0.604,-3.778 -0.027,-2.522 -0.66,-1.267 -1.295,0.015 -1.93,1.326 H -1.961 C -2.029,0.711 -2.102,0.043 -2.184,-0.676 -2.266,-1.395 -2.34,-2.106 -2.408,-2.806 -2.475,-3.503 -2.533,-4.165 -2.58,-4.783 -2.633,-5.406 -2.656,-5.915 -2.656,-6.31 c -0.153,0.019 -0.323,0.029 -0.504,0.029 -0.184,0 -0.352,-0.01 -0.506,-0.029 0.125,0.804 0.254,1.653 0.391,2.545 0.132,0.893 0.265,1.791 0.388,2.693 0.127,0.904 0.244,1.795 0.348,2.674 0.107,0.878 0.199,1.713 0.275,2.507 h 0.246 C -1.354,2.701 -0.68,1.332 0,0" /></g><g
             id="g942"
             transform="translate(504.7759,176.3677)"><path
               id="path940"
               style="fill:#ffffff;fill-opacity:1;fill-rule:nonzero;stroke:none"
               d="M 0,0 C -0.023,0.63 -0.049,1.272 -0.078,1.927 0.047,1.907 0.168,1.891 0.283,1.875 0.398,1.859 0.514,1.852 0.631,1.852 c 0.117,0 0.23,0.007 0.348,0.023 C 1.092,1.891 1.213,1.907 1.34,1.927 1.311,1.272 1.283,0.63 1.26,0 1.236,-0.63 1.223,-1.273 1.223,-1.929 V -4.49 c 0,-0.654 0.013,-1.301 0.037,-1.935 0.023,-0.636 0.051,-1.26 0.08,-1.875 -0.223,0.02 -0.459,0.029 -0.709,0.029 -0.252,0 -0.486,-0.009 -0.709,-0.029 0.029,0.615 0.055,1.239 0.078,1.875 0.025,0.634 0.039,1.281 0.039,1.935 v 2.561 C 0.039,-1.273 0.025,-0.63 0,0" /></g><g
             id="g946"
             transform="translate(518.7974,168.4165)"><path
               id="path944"
               style="fill:#ffffff;fill-opacity:1;fill-rule:nonzero;stroke:none"
               d="m 0,0 c -0.187,-0.095 -0.416,-0.177 -0.68,-0.252 -0.265,-0.075 -0.56,-0.142 -0.888,-0.201 -0.33,-0.059 -0.672,-0.09 -1.03,-0.09 -0.761,0 -1.464,0.114 -2.111,0.334 -0.646,0.225 -1.203,0.563 -1.672,1.021 -0.469,0.457 -0.834,1.014 -1.099,1.674 -0.264,0.66 -0.399,1.411 -0.399,2.256 0,0.843 0.135,1.595 0.399,2.256 0.265,0.659 0.636,1.217 1.115,1.674 0.476,0.455 1.049,0.804 1.715,1.042 0.666,0.239 1.394,0.357 2.197,0.357 0.637,0 1.221,-0.067 1.746,-0.201 C -0.184,9.736 0.281,9.574 0.687,9.387 0.611,9.248 0.547,9.059 0.5,8.822 0.451,8.582 0.414,8.385 0.385,8.227 L 0.299,8.195 C 0.201,8.314 0.064,8.448 -0.105,8.597 -0.281,8.747 -0.484,8.889 -0.715,9.031 -0.947,9.169 -1.207,9.283 -1.498,9.379 -1.787,9.474 -2.104,9.521 -2.453,9.521 -3.021,9.521 -3.549,9.425 -4.037,9.238 -4.523,9.05 -4.949,8.759 -5.309,8.367 -5.672,7.975 -5.955,7.479 -6.156,6.879 -6.357,6.276 -6.459,5.565 -6.459,4.742 c 0,-0.825 0.102,-1.537 0.303,-2.136 0.201,-0.601 0.484,-1.097 0.847,-1.487 0.36,-0.394 0.786,-0.683 1.272,-0.873 0.488,-0.187 1.016,-0.282 1.584,-0.282 0.349,0 0.668,0.044 0.963,0.134 0.293,0.089 0.564,0.195 0.81,0.319 0.246,0.125 0.469,0.259 0.666,0.402 0.198,0.144 0.362,0.272 0.5,0.381 L 0.543,1.139 0.414,0.26 C 0.324,0.182 0.189,0.095 0,0" /></g></g></g><g
         id="ten_years_group"><g
           id="ten_years_bg_rect"><g
             id="g962" /><g
             id="g978"><g
               style="opacity:0.13999903"
               id="g976"
               clip-path="url(#clipPath966)"><g
                 id="g970"
                 transform="translate(616.3774,154.3608)"><path
                   id="path968"
                   style="fill:#ffffff;fill-opacity:1;fill-rule:nonzero;stroke:none"
                   d="m 0,0 c 0,-3.308 -2.752,-5.989 -6.148,-5.989 h -38.986 c -3.395,0 -6.147,2.681 -6.147,5.989 v 38.723 c 0,3.307 2.752,5.988 6.147,5.988 H -6.148 C -2.752,44.711 0,42.03 0,38.723 Z" /></g><g
                 id="g974"
                 transform="translate(616.3774,154.3608)"><path
                   id="path972"
                   style="fill:none;stroke:#ffffff;stroke-width:1;stroke-linecap:butt;stroke-linejoin:miter;stroke-miterlimit:10;stroke-dasharray:none;stroke-opacity:1"
                   d="m 0,0 c 0,-3.308 -2.752,-5.989 -6.148,-5.989 h -38.986 c -3.395,0 -6.147,2.681 -6.147,5.989 v 38.723 c 0,3.307 2.752,5.988 6.147,5.988 H -6.148 C -2.752,44.711 0,42.03 0,38.723 Z" /></g></g></g></g><g
           id="tenyears"><g
             id="g980"
             transform="translate(571.9634,158.751)"><path
               d="m 0,0 c -0.134,0 -0.274,-0.001 -0.422,-0.004 -0.146,-0.003 -0.294,-0.008 -0.44,-0.016 -0.148,-0.007 -0.289,-0.016 -0.427,-0.026 -0.137,-0.011 -0.259,-0.024 -0.367,-0.039 0.025,0.092 0.039,0.175 0.039,0.247 0,0.057 -0.014,0.137 -0.039,0.24 0.34,-0.01 0.674,-0.019 0.999,-0.027 C -0.332,0.367 0,0.364 0.341,0.364 0.682,0.364 1.015,0.367 1.34,0.375 1.665,0.383 1.997,0.392 2.339,0.402 2.313,0.299 2.3,0.217 2.3,0.155 2.3,0.088 2.313,0.007 2.339,-0.085 2.229,-0.07 2.107,-0.057 1.971,-0.046 1.834,-0.036 1.692,-0.027 1.545,-0.02 1.398,-0.012 1.251,-0.007 1.104,-0.004 0.957,-0.001 0.816,0 0.682,0 0.666,-0.532 0.658,-1.066 0.658,-1.603 v -1.331 c 0,-0.341 0.007,-0.677 0.02,-1.006 0.012,-0.331 0.026,-0.657 0.043,-0.977 -0.119,0.011 -0.246,0.016 -0.38,0.016 -0.135,0 -0.26,-0.005 -0.379,-0.016 0.015,0.32 0.029,0.646 0.042,0.977 0.014,0.329 0.02,0.665 0.02,1.006 v 1.331 C 0.024,-1.066 0.016,-0.532 0,0"
               style="fill:#ffffff;fill-opacity:1;fill-rule:nonzero;stroke:none"
               id="path982" /></g><g
             id="g984"
             transform="translate(575.5825,158.1626)"><path
               d="M 0,0 C -0.013,0.33 -0.026,0.661 -0.043,0.991 0.189,0.98 0.421,0.971 0.65,0.964 0.88,0.956 1.111,0.952 1.344,0.952 1.575,0.952 1.805,0.956 2.033,0.964 2.26,0.971 2.489,0.98 2.722,0.991 2.706,0.913 2.698,0.836 2.698,0.759 2.698,0.681 2.706,0.604 2.722,0.526 2.557,0.537 2.405,0.547 2.269,0.558 2.132,0.567 1.987,0.578 1.835,0.588 1.683,0.599 1.517,0.607 1.335,0.615 1.154,0.623 0.938,0.627 0.686,0.627 0.681,0.461 0.674,0.304 0.666,0.155 0.658,0.005 0.655,-0.166 0.655,-0.356 c 0,-0.202 0.001,-0.398 0.003,-0.589 0.002,-0.191 0.004,-0.335 0.004,-0.433 0.228,0 0.432,0.003 0.611,0.007 0.181,0.006 0.347,0.012 0.497,0.02 0.149,0.007 0.288,0.016 0.413,0.023 0.127,0.008 0.247,0.016 0.36,0.027 -0.015,-0.077 -0.022,-0.157 -0.022,-0.24 0,-0.077 0.007,-0.155 0.022,-0.232 -0.134,0.016 -0.29,0.028 -0.468,0.039 -0.179,0.01 -0.356,0.016 -0.534,0.019 C 1.362,-1.712 1.195,-1.71 1.037,-1.708 0.88,-1.705 0.755,-1.704 0.662,-1.704 0.662,-1.75 0.66,-1.8 0.658,-1.854 0.656,-1.909 0.655,-1.977 0.655,-2.06 v -0.301 -0.465 c 0,-0.294 0.001,-0.537 0.003,-0.728 C 0.66,-3.745 0.664,-3.89 0.67,-3.987 h 0.542 c 0.196,0 0.388,0.004 0.577,0.011 0.188,0.008 0.365,0.018 0.534,0.031 0.167,0.013 0.314,0.032 0.438,0.058 C 2.75,-3.922 2.743,-3.963 2.74,-4.007 2.737,-4.051 2.736,-4.09 2.736,-4.127 c 0,-0.082 0.008,-0.149 0.025,-0.201 -0.233,0.01 -0.464,0.016 -0.694,0.016 H 1.366 0.662 c -0.232,0 -0.468,-0.006 -0.705,-0.016 0.017,0.33 0.03,0.659 0.043,0.987 0.013,0.328 0.02,0.662 0.02,1.003 v 1.331 C 0.02,-0.666 0.013,-0.331 0,0"
               style="fill:#ffffff;fill-opacity:1;fill-rule:nonzero;stroke:none"
               id="path986" /></g><g
             id="g988"
             transform="translate(582.3228,155.8437)"><path
               d="M 0,0 C -0.671,0.72 -1.342,1.436 -2.014,2.148 -2.019,2.004 -2.023,1.81 -2.028,1.568 -2.034,1.325 -2.037,0.995 -2.037,0.577 c 0,-0.109 0.002,-0.243 0.004,-0.403 0.003,-0.16 0.006,-0.328 0.009,-0.503 0.002,-0.176 0.005,-0.354 0.01,-0.534 0.005,-0.181 0.011,-0.348 0.016,-0.504 0.006,-0.154 0.011,-0.29 0.016,-0.406 0.004,-0.116 0.01,-0.195 0.015,-0.236 -0.082,0.01 -0.173,0.015 -0.271,0.015 -0.103,0 -0.199,-0.005 -0.286,-0.015 0.01,0.051 0.021,0.147 0.035,0.286 0.012,0.14 0.024,0.306 0.035,0.499 0.01,0.194 0.021,0.405 0.034,0.632 0.013,0.227 0.024,0.454 0.031,0.681 0.008,0.227 0.015,0.449 0.02,0.665 0.004,0.218 0.007,0.411 0.007,0.581 0,0.496 -10e-4,0.922 -0.003,1.278 -0.003,0.356 -0.009,0.622 -0.02,0.797 h 0.124 C -1.946,3.069 -1.609,2.704 -1.251,2.315 -0.893,1.925 -0.536,1.541 -0.183,1.161 0.171,0.782 0.506,0.423 0.824,0.085 1.142,-0.253 1.419,-0.541 1.656,-0.778 v 1.053 c 0,0.541 -0.004,1.069 -0.01,1.583 C 1.637,2.372 1.62,2.855 1.594,3.31 1.698,3.284 1.785,3.271 1.857,3.271 1.919,3.271 2.002,3.284 2.105,3.31 2.095,3.196 2.084,3.025 2.07,2.799 2.059,2.571 2.045,2.329 2.031,2.071 2.02,1.812 2.007,1.56 1.997,1.312 1.986,1.064 1.981,0.866 1.981,0.716 V 0.251 c 0,-0.175 10e-4,-0.358 0.004,-0.549 C 1.988,-0.489 1.99,-0.682 1.993,-0.875 1.996,-1.068 1.999,-1.25 2.001,-1.417 2.003,-1.584 2.005,-1.73 2.005,-1.854 V -2.11 H 1.896 C 1.303,-1.423 0.671,-0.72 0,0"
               style="fill:#ffffff;fill-opacity:1;fill-rule:nonzero;stroke:none"
               id="path990" /></g><g
             id="g992"
             transform="translate(589.1616,156.3931)"><path
               d="M 0,0 C -0.1,0.168 -0.211,0.354 -0.332,0.558 -0.453,0.761 -0.582,0.976 -0.716,1.201 -0.851,1.425 -0.978,1.639 -1.099,1.843 -1.22,2.047 -1.33,2.23 -1.428,2.393 -1.526,2.555 -1.601,2.678 -1.652,2.76 -1.58,2.75 -1.509,2.741 -1.439,2.733 c 0.069,-0.008 0.14,-0.011 0.212,-0.011 0.073,0 0.143,0.003 0.213,0.011 0.071,0.008 0.141,0.017 0.213,0.027 C -0.568,2.312 -0.332,1.87 -0.093,1.436 0.147,1.003 0.402,0.551 0.67,0.082 0.788,0.267 0.912,0.471 1.042,0.693 1.17,0.915 1.3,1.142 1.429,1.375 1.558,1.607 1.682,1.84 1.801,2.075 1.919,2.31 2.03,2.538 2.133,2.76 2.263,2.734 2.363,2.722 2.436,2.722 2.508,2.722 2.608,2.734 2.737,2.76 2.489,2.384 2.268,2.043 2.072,1.738 1.875,1.434 1.702,1.158 1.553,0.91 1.402,0.662 1.271,0.439 1.158,0.24 1.045,0.042 0.946,-0.138 0.864,-0.298 c 0,-0.191 0.001,-0.394 0.004,-0.611 0.002,-0.217 0.006,-0.43 0.011,-0.639 0.005,-0.209 0.012,-0.403 0.019,-0.58 0.008,-0.179 0.017,-0.322 0.028,-0.431 -0.119,0.011 -0.245,0.016 -0.379,0.016 -0.135,0 -0.261,-0.005 -0.38,-0.016 0.031,0.269 0.049,0.594 0.055,0.976 0.005,0.382 0.007,0.782 0.007,1.2 C 0.177,-0.295 0.102,-0.167 0,0"
               style="fill:#ffffff;fill-opacity:1;fill-rule:nonzero;stroke:none"
               id="path994" /></g><g
             id="g996"
             transform="translate(593.1958,158.1626)"><path
               d="M 0,0 C -0.013,0.33 -0.027,0.661 -0.043,0.991 0.189,0.98 0.42,0.971 0.649,0.964 0.88,0.956 1.111,0.952 1.344,0.952 1.575,0.952 1.805,0.956 2.032,0.964 2.259,0.971 2.489,0.98 2.722,0.991 2.705,0.913 2.697,0.836 2.697,0.759 2.697,0.681 2.705,0.604 2.722,0.526 2.556,0.537 2.404,0.547 2.269,0.558 2.132,0.567 1.987,0.578 1.835,0.588 1.683,0.599 1.517,0.607 1.335,0.615 1.154,0.623 0.938,0.627 0.685,0.627 0.68,0.461 0.674,0.304 0.666,0.155 0.658,0.005 0.654,-0.166 0.654,-0.356 c 0,-0.202 0.001,-0.398 0.004,-0.589 0.002,-0.191 0.004,-0.335 0.004,-0.433 0.227,0 0.431,0.003 0.611,0.007 0.181,0.006 0.346,0.012 0.496,0.02 0.15,0.007 0.288,0.016 0.414,0.023 0.127,0.008 0.247,0.016 0.36,0.027 -0.016,-0.077 -0.023,-0.157 -0.023,-0.24 0,-0.077 0.007,-0.155 0.023,-0.232 -0.135,0.016 -0.29,0.028 -0.468,0.039 -0.179,0.01 -0.356,0.016 -0.534,0.019 C 1.362,-1.712 1.195,-1.71 1.037,-1.708 0.88,-1.705 0.755,-1.704 0.662,-1.704 0.662,-1.75 0.66,-1.8 0.658,-1.854 0.655,-1.909 0.654,-1.977 0.654,-2.06 v -0.301 -0.465 c 0,-0.294 0.001,-0.537 0.004,-0.728 C 0.66,-3.745 0.664,-3.89 0.67,-3.987 h 0.541 c 0.197,0 0.389,0.004 0.578,0.011 0.188,0.008 0.365,0.018 0.533,0.031 0.168,0.013 0.315,0.032 0.438,0.058 C 2.75,-3.922 2.743,-3.963 2.74,-4.007 2.737,-4.051 2.736,-4.09 2.736,-4.127 c 0,-0.082 0.008,-0.149 0.024,-0.201 -0.233,0.01 -0.463,0.016 -0.693,0.016 H 1.366 0.662 c -0.232,0 -0.468,-0.006 -0.705,-0.016 0.016,0.33 0.03,0.659 0.043,0.987 0.013,0.328 0.02,0.662 0.02,1.003 v 1.331 C 0.02,-0.666 0.013,-0.331 0,0"
               style="fill:#ffffff;fill-opacity:1;fill-rule:nonzero;stroke:none"
               id="path998" /></g><g
             id="g1000"
             transform="translate(598.3179,156.2427)"><path
               d="m 0,0 c 0.134,0 0.272,-0.003 0.417,-0.008 0.145,-0.005 0.284,-0.008 0.418,-0.008 0.144,0 0.289,0.001 0.434,0.004 C 1.413,-0.01 1.558,-0.005 1.703,0 L 0.844,1.966 Z m 3.43,-2.408 c -0.074,0.01 -0.142,0.015 -0.205,0.015 H 3.02 2.814 c -0.065,0 -0.133,-0.005 -0.206,-0.015 -0.036,0.118 -0.085,0.262 -0.146,0.43 -0.063,0.167 -0.131,0.343 -0.205,0.526 -0.076,0.183 -0.152,0.369 -0.229,0.557 -0.078,0.189 -0.149,0.369 -0.216,0.539 -0.166,0.005 -0.334,0.008 -0.504,0.011 -0.17,0.003 -0.34,0.004 -0.51,0.004 -0.161,0 -0.319,-0.001 -0.473,-0.004 -0.155,-0.003 -0.313,-0.006 -0.472,-0.011 -0.166,-0.403 -0.315,-0.786 -0.45,-1.15 -0.133,-0.364 -0.235,-0.664 -0.302,-0.902 -0.087,0.01 -0.182,0.015 -0.287,0.015 -0.102,0 -0.198,-0.005 -0.286,-0.015 0.419,0.903 0.826,1.801 1.224,2.694 0.397,0.893 0.797,1.801 1.199,2.725 H 1.099 C 1.223,2.712 1.356,2.388 1.501,2.04 1.646,1.691 1.792,1.339 1.942,0.983 c 0.15,-0.356 0.3,-0.71 0.45,-1.061 0.149,-0.351 0.29,-0.677 0.422,-0.979 0.131,-0.302 0.249,-0.572 0.355,-0.809 0.106,-0.238 0.193,-0.418 0.261,-0.542"
               style="fill:#ffffff;fill-opacity:1;fill-rule:nonzero;stroke:none"
               id="path1002" /></g><g
             id="g1004"
             transform="translate(603.894,156.6758)"><path
               d="m 0,0 c 0.086,-0.005 0.18,-0.007 0.283,-0.007 0.16,0 0.327,0.017 0.5,0.053 0.173,0.037 0.331,0.1 0.476,0.19 0.143,0.091 0.263,0.212 0.36,0.364 0.096,0.152 0.143,0.345 0.143,0.577 0,0.201 -0.038,0.368 -0.113,0.499 C 1.575,1.808 1.479,1.913 1.359,1.99 1.24,2.067 1.111,2.12 0.973,2.148 0.833,2.177 0.696,2.191 0.562,2.191 0.381,2.191 0.231,2.188 0.112,2.179 -0.005,2.172 -0.106,2.163 -0.188,2.152 -0.199,1.869 -0.21,1.587 -0.22,1.309 -0.23,1.03 -0.235,0.751 -0.235,0.473 V 0.031 C -0.163,0.016 -0.085,0.005 0,0 m -0.89,1.475 c -0.012,0.328 -0.026,0.662 -0.043,1.003 0.151,-0.011 0.297,-0.02 0.442,-0.027 0.144,-0.009 0.292,-0.012 0.441,-0.012 0.151,0 0.297,0.006 0.442,0.019 0.144,0.013 0.292,0.02 0.441,0.02 0.217,0 0.423,-0.021 0.619,-0.062 C 1.648,2.374 1.82,2.306 1.967,2.21 2.114,2.115 2.23,1.99 2.315,1.835 2.4,1.68 2.443,1.487 2.443,1.254 2.443,1.006 2.388,0.794 2.277,0.616 2.165,0.437 2.03,0.291 1.87,0.174 1.71,0.058 1.539,-0.032 1.355,-0.097 1.172,-0.161 1.006,-0.204 0.856,-0.225 0.918,-0.302 1.003,-0.41 1.111,-0.549 c 0.11,-0.14 0.23,-0.293 0.365,-0.461 0.133,-0.168 0.273,-0.343 0.418,-0.527 0.144,-0.183 0.284,-0.358 0.418,-0.526 0.134,-0.168 0.259,-0.321 0.378,-0.46 0.12,-0.14 0.215,-0.246 0.288,-0.318 -0.079,0.01 -0.156,0.015 -0.233,0.015 H 2.513 2.288 c -0.077,0 -0.152,-0.005 -0.224,-0.015 -0.077,0.109 -0.196,0.271 -0.352,0.487 -0.158,0.217 -0.332,0.45 -0.523,0.697 -0.191,0.248 -0.385,0.495 -0.585,0.74 -0.199,0.245 -0.379,0.453 -0.545,0.623 h -0.294 v -0.565 c 0,-0.341 0.006,-0.677 0.019,-1.006 0.013,-0.331 0.028,-0.656 0.042,-0.976 -0.119,0.01 -0.244,0.015 -0.379,0.015 -0.134,0 -0.26,-0.005 -0.38,-0.015 0.017,0.32 0.031,0.645 0.043,0.976 0.013,0.329 0.02,0.665 0.02,1.006 v 1.332 c 0,0.34 -0.007,0.674 -0.02,1.002"
               style="fill:#ffffff;fill-opacity:1;fill-rule:nonzero;stroke:none"
               id="path1006" /></g><g
             id="g1008"
             transform="translate(608.1372,154.5586)"><path
               d="m 0,0 c 0.069,-0.096 0.155,-0.182 0.256,-0.26 0.1,-0.077 0.218,-0.14 0.352,-0.189 0.134,-0.049 0.284,-0.074 0.449,-0.074 0.171,0 0.324,0.03 0.461,0.089 0.136,0.059 0.253,0.14 0.348,0.241 0.095,0.1 0.169,0.219 0.22,0.356 0.053,0.136 0.078,0.282 0.078,0.437 0,0.237 -0.06,0.426 -0.182,0.565 C 1.86,1.305 1.71,1.421 1.529,1.513 1.348,1.606 1.153,1.691 0.944,1.769 0.735,1.847 0.541,1.943 0.36,2.059 0.179,2.175 0.029,2.324 -0.093,2.504 c -0.121,0.181 -0.181,0.424 -0.181,0.728 0,0.217 0.038,0.414 0.116,0.593 0.077,0.177 0.188,0.331 0.336,0.46 0.147,0.129 0.324,0.23 0.53,0.302 0.207,0.072 0.438,0.108 0.698,0.108 0.247,0 0.461,-0.029 0.643,-0.089 C 2.229,4.547 2.396,4.455 2.551,4.332 2.505,4.244 2.466,4.151 2.435,4.053 2.403,3.955 2.373,3.831 2.342,3.681 H 2.249 C 2.224,3.753 2.188,3.832 2.145,3.917 2.101,4.002 2.042,4.081 1.966,4.153 1.892,4.226 1.803,4.286 1.699,4.335 1.597,4.384 1.472,4.409 1.328,4.409 1.184,4.409 1.051,4.386 0.93,4.339 0.808,4.293 0.701,4.227 0.612,4.142 0.521,4.057 0.452,3.955 0.403,3.836 0.354,3.717 0.329,3.588 0.329,3.449 0.329,3.207 0.39,3.016 0.511,2.876 0.633,2.737 0.783,2.619 0.965,2.523 1.145,2.428 1.34,2.343 1.549,2.269 1.758,2.193 1.952,2.102 2.134,1.994 2.314,1.885 2.464,1.746 2.586,1.575 2.707,1.405 2.768,1.178 2.768,0.894 2.768,0.657 2.725,0.432 2.64,0.221 2.555,0.009 2.432,-0.175 2.269,-0.333 2.106,-0.491 1.907,-0.611 1.672,-0.697 1.437,-0.782 1.17,-0.825 0.871,-0.825 c -0.319,0 -0.58,0.043 -0.778,0.128 -0.198,0.086 -0.364,0.182 -0.499,0.291 0.047,0.118 0.079,0.225 0.096,0.321 0.018,0.095 0.036,0.218 0.05,0.367 h 0.094 C -0.125,0.19 -0.069,0.095 0,0"
               style="fill:#ffffff;fill-opacity:1;fill-rule:nonzero;stroke:none"
               id="path1010" /></g></g><g
           id="2008_2018"><g
             id="g1014" /><g
             id="g1054"><g
               style="opacity:0.22999603"
               id="g1052"
               clip-path="url(#clipPath1018)"><g
                 id="g1022"
                 transform="translate(570.2368,179.9077)"><path
                   id="path1020"
                   style="fill:#f6f6f6;fill-opacity:1;fill-rule:nonzero;stroke:none"
                   d="m 0,0 v 1.049 l 1.885,1.874 c 0.977,0.992 1.704,1.762 2.179,2.312 0.475,0.55 0.845,1.059 1.11,1.528 0.264,0.468 0.45,0.891 0.555,1.268 0.105,0.377 0.158,0.762 0.158,1.156 0,0.781 -0.2,1.375 -0.601,1.782 -0.4,0.407 -0.943,0.611 -1.63,0.611 C 3.27,11.58 2.904,11.502 2.562,11.346 2.219,11.19 1.925,10.956 1.681,10.643 1.559,10.229 1.419,9.692 1.263,9.034 H 0.479 l 0.265,2.327 c 0.04,0.359 0.081,0.735 0.122,1.128 0.442,0.43 0.952,0.752 1.532,0.964 0.581,0.211 1.228,0.317 1.941,0.317 1.005,0 1.818,-0.165 2.439,-0.494 0.621,-0.329 1.085,-0.788 1.391,-1.375 0.305,-0.587 0.458,-1.19 0.458,-1.808 C 8.627,9.692 8.569,9.3 8.454,8.917 8.338,8.533 8.136,8.112 7.848,7.654 7.559,7.196 7.255,6.79 6.937,6.437 L 5.785,5.266 4.716,4.217 C 4.152,3.66 3.545,3.086 2.893,2.495 l 0.03,-0.132 h 1.793 c 0.271,0 1.171,0.017 2.699,0.051 0.488,0.013 1.086,0.041 1.792,0.081 L 9.289,2.363 C 9.221,1.765 9.188,1.297 9.188,0.958 9.188,0.74 9.221,0.458 9.289,0.112 L 9.237,0 6.224,0.082 c -0.682,0.02 -1.169,0.03 -1.462,0.03 z" /></g><g
                 id="g1026"
                 transform="translate(583.2944,187.7666)"><path
                   id="path1024"
                   style="fill:#f6f6f6;fill-opacity:1;fill-rule:nonzero;stroke:none"
                   d="m 0,0 c 0,-1.529 0.078,-2.909 0.234,-4.139 0.157,-1.23 0.406,-2.046 0.748,-2.446 0.343,-0.401 0.74,-0.602 1.187,-0.602 0.551,0 1.005,0.282 1.365,0.846 0.36,0.564 0.54,1.934 0.54,4.109 0,1.42 -0.089,2.833 -0.264,4.24 C 3.714,2.762 3.583,3.328 3.417,3.705 3.251,4.083 3.044,4.359 2.796,4.536 2.548,4.712 2.261,4.801 1.936,4.801 1.568,4.801 1.246,4.69 0.968,4.47 0.689,4.249 0.476,3.877 0.326,3.354 0.108,2.62 0,1.501 0,0 m -2.475,-1.412 c 0,1.182 0.084,2.261 0.254,3.239 0.11,0.631 0.306,1.212 0.591,1.742 0.285,0.529 0.611,0.96 0.978,1.293 0.367,0.333 0.793,0.587 1.278,0.764 0.485,0.177 1.007,0.265 1.563,0.265 1.122,0 1.994,-0.243 2.619,-0.728 C 5.432,4.677 5.884,3.988 6.162,3.095 6.44,2.202 6.579,0.961 6.579,-0.627 6.579,-1.748 6.523,-2.728 6.411,-3.566 6.3,-4.405 6.098,-5.123 5.806,-5.72 5.514,-6.317 5.185,-6.793 4.817,-7.146 4.451,-7.499 4.036,-7.766 3.575,-7.945 c -0.462,-0.18 -1.018,-0.27 -1.671,-0.27 -0.773,0 -1.449,0.147 -2.026,0.443 -0.577,0.295 -1.048,0.731 -1.411,1.309 -0.363,0.576 -0.611,1.295 -0.743,2.153 -0.133,0.859 -0.199,1.825 -0.199,2.898" /></g><g
                 id="g1030"
                 transform="translate(593.7231,187.7666)"><path
                   id="path1028"
                   style="fill:#f6f6f6;fill-opacity:1;fill-rule:nonzero;stroke:none"
                   d="m 0,0 c 0,-1.529 0.078,-2.909 0.234,-4.139 0.157,-1.23 0.406,-2.046 0.748,-2.446 0.343,-0.401 0.74,-0.602 1.187,-0.602 0.551,0 1.005,0.282 1.365,0.846 0.36,0.564 0.54,1.934 0.54,4.109 0,1.42 -0.089,2.833 -0.264,4.24 C 3.714,2.762 3.583,3.328 3.417,3.705 3.251,4.083 3.044,4.359 2.796,4.536 2.548,4.712 2.261,4.801 1.936,4.801 1.568,4.801 1.246,4.69 0.968,4.47 0.689,4.249 0.476,3.877 0.326,3.354 0.108,2.62 0,1.501 0,0 m -2.475,-1.412 c 0,1.182 0.084,2.261 0.254,3.239 0.11,0.631 0.306,1.212 0.591,1.742 0.285,0.529 0.611,0.96 0.978,1.293 0.367,0.333 0.793,0.587 1.278,0.764 0.485,0.177 1.007,0.265 1.563,0.265 1.122,0 1.994,-0.243 2.619,-0.728 C 5.432,4.677 5.884,3.988 6.162,3.095 6.44,2.202 6.579,0.961 6.579,-0.627 6.579,-1.748 6.523,-2.728 6.411,-3.566 6.3,-4.405 6.098,-5.123 5.806,-5.72 5.514,-6.317 5.185,-6.793 4.817,-7.146 4.451,-7.499 4.036,-7.766 3.575,-7.945 c -0.462,-0.18 -1.018,-0.27 -1.671,-0.27 -0.773,0 -1.449,0.147 -2.026,0.443 -0.577,0.295 -1.048,0.731 -1.411,1.309 -0.363,0.576 -0.611,1.295 -0.743,2.153 -0.133,0.859 -0.199,1.825 -0.199,2.898" /></g><g
                 id="g1034"
                 transform="translate(607.1372,188.1064)"><path
                   id="path1032"
                   style="fill:#f6f6f6;fill-opacity:1;fill-rule:nonzero;stroke:none"
                   d="m 0,0 c 0.387,0.258 0.688,0.589 0.906,0.993 0.217,0.404 0.326,0.837 0.326,1.299 0,0.665 -0.2,1.196 -0.601,1.594 -0.401,0.397 -0.937,0.595 -1.609,0.595 -0.584,0 -1.056,-0.176 -1.416,-0.529 -0.36,-0.353 -0.54,-0.794 -0.54,-1.324 0,-0.211 0.033,-0.407 0.097,-0.591 C -2.772,1.854 -2.672,1.674 -2.536,1.498 -2.4,1.321 -2.234,1.161 -2.037,1.019 -1.841,0.876 -1.589,0.73 -1.283,0.581 L -0.55,0.234 Z m -2.119,-1.904 c -0.482,-0.367 -0.844,-0.78 -1.084,-1.238 -0.241,-0.458 -0.362,-0.959 -0.362,-1.502 0,-0.829 0.252,-1.506 0.753,-2.032 0.503,-0.526 1.118,-0.789 1.844,-0.789 0.652,0 1.194,0.224 1.624,0.672 0.432,0.448 0.648,1.008 0.648,1.68 0,0.489 -0.085,0.895 -0.255,1.217 -0.17,0.323 -0.457,0.617 -0.861,0.881 -0.404,0.265 -1.082,0.598 -2.032,0.998 z m -0.875,0.397 c -0.551,0.319 -0.953,0.609 -1.207,0.871 -0.255,0.261 -0.459,0.594 -0.611,0.998 -0.154,0.404 -0.23,0.846 -0.23,1.329 0,0.781 0.195,1.468 0.586,2.062 0.391,0.594 0.896,1.046 1.518,1.355 0.621,0.309 1.396,0.463 2.327,0.463 1.133,0 2.012,-0.288 2.637,-0.865 C 2.651,4.128 2.964,3.422 2.964,2.587 2.964,2.139 2.874,1.725 2.693,1.345 2.514,0.964 2.261,0.618 1.935,0.306 1.752,0.129 1.446,-0.095 1.019,-0.367 1.596,-0.611 2.035,-0.85 2.337,-1.084 2.64,-1.319 2.879,-1.577 3.056,-1.858 3.231,-2.141 3.362,-2.453 3.447,-2.795 3.532,-3.139 3.575,-3.507 3.575,-3.901 3.575,-4.872 3.335,-5.727 2.856,-6.467 2.378,-7.208 1.701,-7.771 0.825,-8.158 0.221,-8.423 -0.499,-8.555 -1.334,-8.555 c -0.788,0 -1.443,0.122 -1.966,0.367 -0.367,0.169 -0.715,0.41 -1.044,0.723 -0.33,0.312 -0.591,0.675 -0.784,1.09 -0.194,0.414 -0.291,0.913 -0.291,1.497 0,0.454 0.065,0.865 0.194,1.232 0.129,0.367 0.312,0.688 0.55,0.962 0.238,0.275 0.482,0.495 0.734,0.657 0.053,0.034 0.369,0.207 0.947,0.52" /></g><g
                 id="g1038"
                 transform="translate(570.2368,163.3008)"><path
                   id="path1036"
                   style="fill:#f6f6f6;fill-opacity:1;fill-rule:nonzero;stroke:none"
                   d="m 0,0 v 1.049 l 1.885,1.874 c 0.977,0.992 1.704,1.762 2.179,2.312 0.475,0.55 0.845,1.059 1.11,1.528 0.264,0.468 0.45,0.891 0.555,1.268 0.105,0.377 0.158,0.762 0.158,1.156 0,0.781 -0.2,1.375 -0.601,1.782 -0.4,0.407 -0.943,0.611 -1.63,0.611 C 3.27,11.58 2.904,11.502 2.562,11.346 2.219,11.19 1.925,10.956 1.681,10.643 1.559,10.229 1.419,9.692 1.263,9.034 H 0.479 l 0.265,2.327 c 0.04,0.359 0.081,0.735 0.122,1.128 0.442,0.43 0.952,0.752 1.532,0.964 0.581,0.211 1.228,0.317 1.941,0.317 1.005,0 1.818,-0.165 2.439,-0.494 0.621,-0.329 1.085,-0.788 1.391,-1.375 0.305,-0.587 0.458,-1.19 0.458,-1.808 C 8.627,9.692 8.569,9.3 8.454,8.917 8.338,8.533 8.136,8.112 7.848,7.654 7.559,7.196 7.255,6.79 6.937,6.437 L 5.785,5.266 4.716,4.217 C 4.152,3.66 3.545,3.086 2.893,2.495 l 0.03,-0.132 h 1.793 c 0.271,0 1.171,0.017 2.699,0.051 0.488,0.013 1.086,0.041 1.792,0.081 L 9.289,2.363 C 9.221,1.765 9.188,1.297 9.188,0.958 9.188,0.74 9.221,0.458 9.289,0.112 L 9.237,0 6.224,0.082 c -0.682,0.02 -1.169,0.03 -1.462,0.03 z" /></g><g
                 id="g1042"
                 transform="translate(583.2944,171.1597)"><path
                   id="path1040"
                   style="fill:#f6f6f6;fill-opacity:1;fill-rule:nonzero;stroke:none"
                   d="m 0,0 c 0,-1.529 0.078,-2.909 0.234,-4.139 0.157,-1.23 0.406,-2.046 0.748,-2.446 0.343,-0.401 0.74,-0.602 1.187,-0.602 0.551,0 1.005,0.282 1.365,0.846 0.36,0.564 0.54,1.934 0.54,4.109 0,1.42 -0.089,2.833 -0.264,4.24 C 3.714,2.762 3.583,3.328 3.417,3.705 3.251,4.083 3.044,4.359 2.796,4.536 2.548,4.712 2.261,4.801 1.936,4.801 1.568,4.801 1.246,4.69 0.968,4.47 0.689,4.249 0.476,3.877 0.326,3.354 0.108,2.62 0,1.501 0,0 m -2.475,-1.412 c 0,1.182 0.084,2.261 0.254,3.239 0.11,0.631 0.306,1.212 0.591,1.742 0.285,0.529 0.611,0.96 0.978,1.293 0.367,0.333 0.793,0.587 1.278,0.764 0.485,0.177 1.007,0.265 1.563,0.265 1.122,0 1.994,-0.243 2.619,-0.728 C 5.432,4.677 5.884,3.988 6.162,3.095 6.44,2.202 6.579,0.961 6.579,-0.627 6.579,-1.748 6.523,-2.728 6.411,-3.566 6.3,-4.405 6.098,-5.123 5.806,-5.72 5.514,-6.317 5.185,-6.793 4.817,-7.146 4.451,-7.499 4.036,-7.766 3.575,-7.945 c -0.462,-0.18 -1.018,-0.27 -1.671,-0.27 -0.773,0 -1.449,0.147 -2.026,0.443 -0.577,0.295 -1.048,0.731 -1.411,1.309 -0.363,0.576 -0.611,1.295 -0.743,2.153 -0.133,0.859 -0.199,1.825 -0.199,2.898" /></g><g
                 id="g1046"
                 transform="translate(592.1245,163.3008)"><path
                   id="path1044"
                   style="fill:#f6f6f6;fill-opacity:1;fill-rule:nonzero;stroke:none"
                   d="m 0,0 v 0.825 l 1.925,0.204 c 0.203,0.027 0.352,0.086 0.448,0.178 0.095,0.091 0.166,0.276 0.214,0.555 0.088,0.53 0.132,1.708 0.132,3.534 v 2.445 c 0,0.842 -0.009,1.751 -0.026,2.729 l -0.025,0.876 c 0,0.217 -0.021,0.357 -0.062,0.418 -0.041,0.061 -0.091,0.091 -0.153,0.091 -0.04,0 -0.19,-0.058 -0.449,-0.173 -1.328,-0.584 -2.173,-0.971 -2.533,-1.161 l -0.123,0.071 c -0.028,0.136 -0.062,0.353 -0.102,0.652 -0.034,0.224 -0.071,0.431 -0.112,0.622 l 0.01,0.071 c 1.215,0.353 2.181,0.648 2.898,0.886 0.716,0.238 1.835,0.641 3.355,1.212 l 0.225,-0.153 c 0,-0.109 -0.02,-0.428 -0.061,-0.957 C 5.52,12.395 5.499,12.056 5.499,11.906 5.479,11.315 5.452,9.805 5.418,7.374 V 5.867 C 5.418,4.393 5.425,3.371 5.438,2.801 5.459,1.932 5.503,1.422 5.57,1.273 5.611,1.185 5.68,1.117 5.774,1.069 5.937,0.981 6.427,0.92 7.241,0.886 7.472,0.879 7.692,0.859 7.903,0.825 V 0 C 6.43,0.068 5.234,0.102 4.318,0.102 3.693,0.102 2.254,0.068 0,0" /></g><g
                 id="g1050"
                 transform="translate(607.1372,171.4995)"><path
                   id="path1048"
                   style="fill:#f6f6f6;fill-opacity:1;fill-rule:nonzero;stroke:none"
                   d="m 0,0 c 0.387,0.258 0.688,0.589 0.906,0.993 0.217,0.404 0.326,0.837 0.326,1.299 0,0.665 -0.2,1.196 -0.601,1.594 -0.401,0.397 -0.937,0.595 -1.609,0.595 -0.584,0 -1.056,-0.176 -1.416,-0.529 -0.36,-0.353 -0.54,-0.794 -0.54,-1.324 0,-0.211 0.033,-0.407 0.097,-0.591 C -2.772,1.854 -2.672,1.674 -2.536,1.498 -2.4,1.321 -2.234,1.161 -2.037,1.019 -1.841,0.876 -1.589,0.73 -1.283,0.581 L -0.55,0.234 Z m -2.119,-1.904 c -0.482,-0.367 -0.844,-0.78 -1.084,-1.238 -0.241,-0.458 -0.362,-0.959 -0.362,-1.502 0,-0.829 0.252,-1.506 0.753,-2.032 0.503,-0.526 1.118,-0.789 1.844,-0.789 0.652,0 1.194,0.224 1.624,0.672 0.432,0.448 0.648,1.008 0.648,1.68 0,0.489 -0.085,0.895 -0.255,1.217 -0.17,0.323 -0.457,0.617 -0.861,0.881 -0.404,0.265 -1.082,0.598 -2.032,0.998 z m -0.875,0.397 c -0.551,0.319 -0.953,0.609 -1.207,0.871 -0.255,0.261 -0.459,0.594 -0.611,0.998 -0.154,0.404 -0.23,0.846 -0.23,1.329 0,0.781 0.195,1.468 0.586,2.062 0.391,0.594 0.896,1.046 1.518,1.355 0.621,0.309 1.396,0.463 2.327,0.463 1.133,0 2.012,-0.288 2.637,-0.865 C 2.651,4.128 2.964,3.422 2.964,2.587 2.964,2.139 2.874,1.725 2.693,1.345 2.514,0.964 2.261,0.618 1.935,0.306 1.752,0.129 1.446,-0.095 1.019,-0.367 1.596,-0.611 2.035,-0.85 2.337,-1.084 2.64,-1.319 2.879,-1.577 3.056,-1.858 3.231,-2.141 3.362,-2.453 3.447,-2.795 3.532,-3.139 3.575,-3.507 3.575,-3.901 3.575,-4.872 3.335,-5.727 2.856,-6.467 2.378,-7.208 1.701,-7.771 0.825,-8.158 0.221,-8.423 -0.499,-8.555 -1.334,-8.555 c -0.788,0 -1.443,0.122 -1.966,0.367 -0.367,0.169 -0.715,0.41 -1.044,0.723 -0.33,0.312 -0.591,0.675 -0.784,1.09 -0.194,0.414 -0.291,0.913 -0.291,1.497 0,0.454 0.065,0.865 0.194,1.232 0.129,0.367 0.312,0.688 0.55,0.962 0.238,0.275 0.482,0.495 0.734,0.657 0.053,0.034 0.369,0.207 0.947,0.52" /></g></g></g></g></g></g></g></svg>