<?xml version="1.0" encoding="UTF-8" standalone="no"?>
<svg
   xmlns:dc="http://purl.org/dc/elements/1.1/"
   xmlns:cc="http://creativecommons.org/ns#"
   xmlns:rdf="http://www.w3.org/1999/02/22-rdf-syntax-ns#"
   xmlns:svg="http://www.w3.org/2000/svg"
   xmlns="http://www.w3.org/2000/svg"
   xml:space="preserve"
   viewBox="0 0 94.2 42.2"
   y="0px"
   x="0px"
   id="Layer_1"
   version="1.2"><metadata
   id="metadata1185"><rdf:RDF><cc:Work
       rdf:about=""><dc:format>image/svg+xml</dc:format><dc:type
         rdf:resource="http://purl.org/dc/dcmitype/StillImage" /><dc:title></dc:title></cc:Work></rdf:RDF></metadata><defs
   id="defs1183">
	
	
	
	
	
	
	
	
	
	
	
	
	
	
	
	
	
	
	
	
	
	
	
	
	
	
	
	
	
	
</defs>
<g
   id="g1116">
		<path
   d="M 15.3,1.7 V 19.5 H 11.6 V 12 H 3.7 v 7.5 H 0 V 1.7 H 3.7 V 9 h 7.8 V 1.7 Z"
   id="path1108"
   style="fill:#ffffff" />
		<path
   d="M 25.3,12.7 H 22 v 6.8 H 18.3 V 1.7 h 7.8 c 2,0 3.6,0.5 4.8,1.4 1.1,1 1.7,2.3 1.7,4.1 0,1.3 -0.3,2.3 -0.9,3.2 -0.6,0.9 -1.5,1.5 -2.7,1.9 l 4.7,7.2 H 29.5 Z M 22,9.8 h 3.7 c 1.1,0 1.9,-0.2 2.4,-0.6 0.5,-0.4 0.8,-1.1 0.8,-2 0,-0.9 -0.3,-1.5 -0.8,-2 C 27.6,4.8 26.8,4.6 25.7,4.6 H 22 Z"
   id="path1110"
   style="fill:#ffffff" />
		<path
   d="m 15.4,36.7 v 3 H 0 V 21.9 h 15 v 3 H 3.7 v 4.4 H 13 v 2.9 H 3.7 v 4.5 z"
   id="path1112"
   style="fill:#ffffff" />
		<path
   d="M 25.3,32.9 H 22 v 6.8 H 18.3 V 21.9 h 7.8 c 2,0 3.6,0.5 4.8,1.4 1.1,1 1.7,2.3 1.7,4.1 0,1.3 -0.3,2.3 -0.9,3.2 -0.6,0.9 -1.5,1.5 -2.7,1.9 l 4.7,7.2 H 29.5 Z M 22,30.1 h 3.7 c 1.1,0 1.9,-0.2 2.4,-0.6 0.5,-0.4 0.8,-1.1 0.8,-2 0,-0.9 -0.3,-1.5 -0.8,-2 -0.5,-0.4 -1.3,-0.6 -2.4,-0.6 H 22 Z"
   id="path1114"
   style="fill:#ffffff" />
	</g><g
   id="g1120">
		<rect
   x="42.400002"
   y="1.7"
   width="0.80000001"
   height="38"
   id="rect1118"
   style="fill:#4a6cb2" />
	</g><path
   id="path1299"
   d="M 51.640625 0.89453125 L 51.640625 7.3515625 L 52.513672 7.3515625 L 52.513672 4.2773438 L 55.6875 4.2773438 L 55.6875 7.3515625 L 56.5625 7.3515625 L 56.5625 0.89453125 L 55.6875 0.89453125 L 55.6875 3.5410156 L 52.513672 3.5410156 L 52.513672 0.89453125 L 51.640625 0.89453125 z M 65.900391 2.390625 C 65.551484 2.390625 65.249844 2.4622227 64.996094 2.6035156 C 64.742343 2.7448086 64.525412 2.9627622 64.34375 3.2597656 L 64.34375 2.5078125 L 63.542969 2.5078125 L 63.542969 7.3515625 L 64.34375 7.3515625 L 64.34375 4.6152344 C 64.34375 4.1452192 64.461839 3.7719821 64.701172 3.4980469 C 64.940505 3.2212281 65.263344 3.0839844 65.669922 3.0839844 C 66.013062 3.0839844 66.26728 3.1950066 66.431641 3.4199219 C 66.596002 3.6419535 66.677734 3.9879465 66.677734 4.4550781 L 66.677734 7.3515625 L 67.478516 7.3515625 L 67.478516 4.6152344 C 67.478516 4.1423356 67.598557 3.7680758 67.837891 3.4941406 C 68.077223 3.2202054 68.402108 3.0839844 68.814453 3.0839844 C 69.151826 3.0839844 69.403998 3.1950066 69.568359 3.4199219 C 69.73272 3.6448371 69.814453 3.99083 69.814453 4.4550781 L 69.814453 7.3515625 L 70.615234 7.3515625 L 70.615234 4.4277344 C 70.615234 3.7760568 70.47706 3.2756186 70.203125 2.9238281 C 69.92919 2.5691541 69.539774 2.390625 69.035156 2.390625 C 68.660298 2.390625 68.335412 2.4763562 68.058594 2.6464844 C 67.781774 2.8166126 67.542713 3.0799424 67.34375 3.4375 C 67.225525 3.0972436 67.042905 2.838935 66.794922 2.6601562 C 66.549822 2.4813775 66.252181 2.390625 65.900391 2.390625 z M 73.679688 2.390625 C 73.42017 2.390625 73.152842 2.420845 72.878906 2.4785156 C 72.604971 2.5333027 72.322486 2.616058 72.03125 2.7285156 L 72.03125 3.4648438 C 72.273466 3.3322016 72.526661 3.232337 72.789062 3.1660156 C 73.051464 3.0996943 73.320838 3.0664062 73.597656 3.0664062 C 74.033069 3.0664062 74.370042 3.1672936 74.609375 3.3691406 C 74.851592 3.5681041 74.972656 3.8505887 74.972656 4.2167969 L 74.972656 4.2949219 L 73.857422 4.2949219 C 73.133657 4.2949219 72.586911 4.4321656 72.220703 4.7089844 C 71.857378 4.9858031 71.675781 5.3964193 71.675781 5.9414062 C 71.675781 6.4085379 71.822045 6.7827977 72.113281 7.0625 C 72.407401 7.3393187 72.802861 7.4785156 73.298828 7.4785156 C 73.690987 7.4785156 74.021917 7.4079406 74.292969 7.2695312 C 74.564021 7.1282383 74.790994 6.9113074 74.972656 6.6171875 L 74.972656 7.3515625 L 75.767578 7.3515625 L 75.767578 4.5878906 C 75.767578 3.8497072 75.596023 3.2988715 75.25 2.9355469 C 74.903977 2.5722222 74.380386 2.390625 73.679688 2.390625 z M 79.363281 2.390625 C 79.025909 2.390625 78.728268 2.4632454 78.46875 2.6074219 C 78.212116 2.7515983 77.989141 2.9685293 77.798828 3.2597656 L 77.798828 2.5078125 L 76.998047 2.5078125 L 76.998047 7.3515625 L 77.798828 7.3515625 L 77.798828 4.6152344 C 77.798828 4.1423356 77.921939 3.7680758 78.169922 3.4941406 C 78.417905 3.2202054 78.755901 3.0839844 79.185547 3.0839844 C 79.543104 3.0839844 79.811455 3.1979824 79.990234 3.4257812 C 80.169013 3.65358 80.259766 3.9965971 80.259766 4.4550781 L 80.259766 7.3515625 L 81.054688 7.3515625 L 81.054688 4.4277344 C 81.054688 3.7587557 80.912422 3.2532962 80.626953 2.9101562 C 80.341484 2.5641328 79.919803 2.390625 79.363281 2.390625 z M 58.007812 2.5078125 L 58.007812 5.4414062 C 58.007812 6.1075014 58.1511 6.6129609 58.439453 6.9589844 C 58.727806 7.3050078 59.15051 7.4785156 59.707031 7.4785156 C 60.044404 7.4785156 60.339999 7.4069179 60.59375 7.265625 C 60.850384 7.1214485 61.076335 6.9034949 61.269531 6.609375 L 61.269531 7.3515625 L 62.064453 7.3515625 L 62.064453 2.5078125 L 61.269531 2.5078125 L 61.269531 5.2539062 C 61.269531 5.726805 61.143445 6.1010648 60.892578 6.375 C 60.644595 6.6489352 60.304646 6.7851563 59.875 6.7851562 C 59.517443 6.7851563 59.251044 6.6711581 59.072266 6.4433594 C 58.893487 6.2126771 58.802734 5.8686373 58.802734 5.4101562 L 58.802734 2.5078125 L 58.007812 2.5078125 z M 74.181641 4.9179688 L 74.972656 4.9179688 L 74.972656 5.09375 C 74.972656 5.6127851 74.838481 6.0294453 74.570312 6.34375 C 74.305028 6.6551711 73.950946 6.8125 73.509766 6.8125 C 73.189694 6.8125 72.937429 6.7288143 72.75 6.5644531 C 72.565455 6.3972085 72.472656 6.1732108 72.472656 5.890625 C 72.472656 5.535951 72.595767 5.2857319 72.84375 5.1386719 C 73.091733 4.9916119 73.538614 4.9179688 74.181641 4.9179688 z M 57.521484 11.251953 L 57.521484 12.259766 L 58.318359 12.259766 L 58.318359 11.251953 L 57.521484 11.251953 z M 64.826172 11.251953 L 64.826172 17.982422 L 65.626953 17.982422 L 65.626953 15.244141 C 65.626953 14.771242 65.752017 14.398935 66 14.125 C 66.247983 13.851065 66.585979 13.712891 67.015625 13.712891 C 67.373182 13.712891 67.641534 13.826889 67.820312 14.054688 C 67.999091 14.282486 68.087891 14.625504 68.087891 15.083984 L 68.087891 17.982422 L 68.884766 17.982422 L 68.884766 15.058594 C 68.884766 14.389615 68.740547 13.884156 68.455078 13.541016 C 68.169609 13.194992 67.74988 13.021484 67.193359 13.021484 C 66.855986 13.021484 66.556392 13.094105 66.296875 13.238281 C 66.040241 13.382458 65.817266 13.599388 65.626953 13.890625 L 65.626953 11.251953 L 64.826172 11.251953 z M 51.640625 11.525391 L 51.640625 17.982422 L 52.513672 17.982422 L 52.513672 15.253906 L 53.464844 15.253906 C 53.810867 15.253906 54.08424 15.323551 54.283203 15.464844 C 54.48505 15.606137 54.692869 15.893643 54.90625 16.326172 L 55.732422 17.982422 L 56.669922 17.982422 L 55.783203 16.216797 C 55.604424 15.853472 55.426826 15.568942 55.248047 15.361328 C 55.072152 15.153717 54.890554 15.018518 54.703125 14.955078 C 55.063566 14.851271 55.336008 14.664652 55.523438 14.396484 C 55.713751 14.128316 55.808594 13.791344 55.808594 13.384766 C 55.808594 12.761924 55.626997 12.296819 55.263672 11.988281 C 54.900347 11.679743 54.349511 11.525391 53.611328 11.525391 L 51.640625 11.525391 z M 70.273438 11.761719 L 70.273438 13.138672 L 69.689453 13.138672 L 69.689453 13.755859 L 70.273438 13.755859 L 70.273438 16.386719 C 70.273438 16.992259 70.391434 17.409942 70.625 17.640625 C 70.858566 17.868424 71.282293 17.982422 71.896484 17.982422 L 72.712891 17.982422 L 72.712891 17.316406 L 71.896484 17.316406 C 71.564879 17.316406 71.34395 17.260896 71.234375 17.148438 C 71.127685 17.03598 71.074219 16.781762 71.074219 16.386719 L 71.074219 13.755859 L 72.712891 13.755859 L 72.712891 13.138672 L 71.074219 13.138672 L 71.074219 11.761719 L 70.273438 11.761719 z M 52.513672 12.242188 L 53.611328 12.242188 C 54.032323 12.242187 54.351072 12.340006 54.564453 12.533203 C 54.780718 12.723516 54.888672 13.007024 54.888672 13.384766 C 54.888672 13.762508 54.780718 14.050014 54.564453 14.246094 C 54.351072 14.43929 54.032323 14.535156 53.611328 14.535156 L 52.513672 14.535156 L 52.513672 12.242188 z M 61.583984 13.021484 C 60.989978 13.021484 60.511762 13.248458 60.148438 13.701172 C 59.785113 14.153886 59.603516 14.754189 59.603516 15.503906 C 59.603516 16.25074 59.785113 16.85002 60.148438 17.302734 C 60.511762 17.755448 60.989978 17.982422 61.583984 17.982422 C 61.941542 17.982422 62.249225 17.910825 62.505859 17.769531 C 62.762493 17.628239 62.974311 17.416329 63.138672 17.130859 L 63.138672 17.523438 C 63.138672 18.074191 63.007565 18.484808 62.748047 18.755859 C 62.48853 19.029795 62.098091 19.167969 61.576172 19.167969 C 61.339723 19.167969 61.108658 19.136725 60.880859 19.076172 C 60.65306 19.015618 60.421065 18.921797 60.1875 18.794922 L 60.1875 19.570312 C 60.421065 19.656821 60.662172 19.719399 60.910156 19.759766 C 61.15814 19.803019 61.42147 19.824219 61.701172 19.824219 C 62.456657 19.824219 63.018558 19.622444 63.384766 19.21875 C 63.750974 18.817939 63.933594 18.205549 63.933594 17.380859 L 63.933594 13.138672 L 63.138672 13.138672 L 63.138672 13.873047 C 62.974311 13.587578 62.762493 13.373715 62.505859 13.232422 C 62.249225 13.091129 61.941542 13.021484 61.583984 13.021484 z M 75.582031 13.021484 C 74.988025 13.021484 74.529987 13.144595 74.207031 13.392578 C 73.884076 13.640561 73.722656 13.993621 73.722656 14.449219 C 73.722656 14.824078 73.831633 15.119673 74.050781 15.335938 C 74.26993 15.549319 74.626057 15.70674 75.119141 15.810547 L 75.396484 15.875 C 75.889568 15.981691 76.207386 16.093643 76.351562 16.208984 C 76.498623 16.324325 76.572266 16.490767 76.572266 16.707031 C 76.572266 16.940597 76.471378 17.122194 76.269531 17.251953 C 76.067684 17.378828 75.779156 17.441406 75.404297 17.441406 C 75.124595 17.441406 74.84211 17.405049 74.556641 17.330078 C 74.271171 17.252223 73.98162 17.135249 73.6875 16.982422 L 73.6875 17.804688 C 73.998921 17.905611 74.294516 17.980277 74.574219 18.029297 C 74.856804 18.081197 75.129154 18.107422 75.388672 18.107422 C 76.011514 18.107422 76.498842 17.977244 76.853516 17.714844 C 77.211074 17.452442 77.390625 17.096315 77.390625 16.646484 C 77.390625 16.251441 77.270583 15.943757 77.03125 15.724609 C 76.794801 15.502577 76.395249 15.330092 75.830078 15.208984 L 75.556641 15.148438 C 75.129879 15.053281 74.846371 14.955369 74.705078 14.851562 C 74.563785 14.744872 74.492188 14.598608 74.492188 14.414062 C 74.492188 14.171846 74.591029 13.990249 74.787109 13.869141 C 74.986073 13.748033 75.282691 13.6875 75.677734 13.6875 C 75.937252 13.6875 76.187472 13.715764 76.429688 13.773438 C 76.671904 13.831108 76.905944 13.917862 77.130859 14.033203 L 77.130859 13.28125 C 76.911711 13.194745 76.671627 13.129191 76.412109 13.085938 C 76.152592 13.042684 75.876151 13.021484 75.582031 13.021484 z M 57.521484 13.138672 L 57.521484 17.982422 L 58.318359 17.982422 L 58.318359 13.138672 L 57.521484 13.138672 z M 61.779297 13.6875 C 62.208942 13.6875 62.542848 13.844921 62.779297 14.162109 C 63.01863 14.479297 63.138672 14.9272 63.138672 15.503906 C 63.138672 16.077728 63.01863 16.522656 62.779297 16.839844 C 62.542848 17.157032 62.208942 17.316406 61.779297 17.316406 C 61.352534 17.316406 61.020583 17.157032 60.78125 16.839844 C 60.544801 16.522656 60.425781 16.077728 60.425781 15.503906 C 60.425781 14.9272 60.544801 14.479297 60.78125 14.162109 C 61.020583 13.844921 61.352534 13.6875 61.779297 13.6875 z M 60.285156 21.882812 L 60.285156 24.503906 C 60.117912 24.215554 59.905071 24.001691 59.648438 23.863281 C 59.394687 23.721989 59.08998 23.650391 58.732422 23.650391 C 58.147066 23.650391 57.669873 23.884431 57.300781 24.351562 C 56.934573 24.818694 56.751953 25.434061 56.751953 26.195312 C 56.751953 26.956564 56.934573 27.569977 57.300781 28.037109 C 57.669873 28.504241 58.147066 28.738281 58.732422 28.738281 C 59.08998 28.738281 59.394687 28.667706 59.648438 28.529297 C 59.905071 28.388004 60.117912 28.173118 60.285156 27.884766 L 60.285156 28.611328 L 61.082031 28.611328 L 61.082031 21.882812 L 60.285156 21.882812 z M 81.792969 21.882812 L 81.792969 22.890625 L 82.589844 22.890625 L 82.589844 21.882812 L 81.792969 21.882812 z M 51.640625 22.154297 L 51.640625 28.611328 L 55.800781 28.611328 L 55.800781 27.876953 L 52.513672 27.876953 L 52.513672 25.537109 L 55.589844 25.537109 L 55.589844 24.800781 L 52.513672 24.800781 L 52.513672 22.890625 L 55.722656 22.890625 L 55.722656 22.154297 L 51.640625 22.154297 z M 78.025391 22.392578 L 78.025391 23.767578 L 77.441406 23.767578 L 77.441406 24.386719 L 78.025391 24.386719 L 78.025391 27.015625 C 78.025391 27.621166 78.141434 28.038849 78.375 28.269531 C 78.608565 28.49733 79.032292 28.611328 79.646484 28.611328 L 80.464844 28.611328 L 80.464844 27.945312 L 79.646484 27.945312 C 79.314878 27.945312 79.093949 27.889802 78.984375 27.777344 C 78.877684 27.664886 78.824219 27.410668 78.824219 27.015625 L 78.824219 24.386719 L 80.464844 24.386719 L 80.464844 23.767578 L 78.824219 23.767578 L 78.824219 22.392578 L 78.025391 22.392578 z M 70.240234 23.650391 C 69.48475 23.650391 68.890491 23.877364 68.455078 24.330078 C 68.022549 24.782792 67.806641 25.405226 67.806641 26.195312 C 67.806641 26.973865 68.021526 27.5923 68.451172 28.050781 C 68.880817 28.509262 69.45992 28.738281 70.189453 28.738281 C 70.457622 28.738281 70.708863 28.712056 70.945312 28.660156 C 71.184645 28.608253 71.41664 28.529589 71.638672 28.425781 L 71.638672 27.691406 C 71.413757 27.815396 71.186783 27.909216 70.958984 27.972656 C 70.734069 28.03321 70.506073 28.0625 70.275391 28.0625 C 69.759239 28.0625 69.359688 27.900058 69.074219 27.574219 C 68.788749 27.245497 68.644531 26.786436 68.644531 26.195312 C 68.644531 25.604189 68.788749 25.144198 69.074219 24.818359 C 69.359688 24.489637 69.759239 24.326172 70.275391 24.326172 C 70.506073 24.326172 70.734069 24.358435 70.958984 24.421875 C 71.186783 24.482429 71.413757 24.573274 71.638672 24.697266 L 71.638672 23.953125 C 71.419523 23.852202 71.19255 23.777536 70.958984 23.728516 C 70.725418 23.676616 70.485334 23.650391 70.240234 23.650391 z M 74.865234 23.650391 C 74.605717 23.650391 74.340342 23.680608 74.066406 23.738281 C 73.792471 23.793068 73.508034 23.875823 73.216797 23.988281 L 73.216797 24.724609 C 73.459014 24.591966 73.712208 24.492101 73.974609 24.425781 C 74.23701 24.359461 74.506384 24.326172 74.783203 24.326172 C 75.218616 24.326172 75.555589 24.427059 75.794922 24.628906 C 76.037139 24.82787 76.158203 25.110354 76.158203 25.476562 L 76.158203 25.554688 L 75.042969 25.554688 C 74.319203 25.554687 73.774411 25.691931 73.408203 25.96875 C 73.044878 26.245569 72.863281 26.658138 72.863281 27.203125 C 72.863281 27.670257 73.009545 28.042564 73.300781 28.322266 C 73.594901 28.599084 73.988408 28.738281 74.484375 28.738281 C 74.876535 28.738281 75.209417 28.667706 75.480469 28.529297 C 75.75152 28.388004 75.97654 28.171073 76.158203 27.876953 L 76.158203 28.611328 L 76.955078 28.611328 L 76.955078 25.847656 C 76.955078 25.109473 76.781571 24.558637 76.435547 24.195312 C 76.089524 23.831988 75.565932 23.650391 74.865234 23.650391 z M 86.097656 23.650391 C 85.402726 23.650391 84.857935 23.876342 84.462891 24.326172 C 84.070731 24.776003 83.875 25.399458 83.875 26.195312 C 83.875 26.988283 84.070731 27.609786 84.462891 28.0625 C 84.857935 28.51233 85.402726 28.738281 86.097656 28.738281 C 86.789703 28.738281 87.333472 28.51233 87.728516 28.0625 C 88.123559 27.609786 88.320312 26.988283 88.320312 26.195312 C 88.320312 25.399459 88.123559 24.776003 87.728516 24.326172 C 87.333472 23.876342 86.789703 23.650391 86.097656 23.650391 z M 91.923828 23.650391 C 91.586455 23.650391 91.288814 23.723012 91.029297 23.867188 C 90.772663 24.011364 90.549688 24.228295 90.359375 24.519531 L 90.359375 23.767578 L 89.558594 23.767578 L 89.558594 28.611328 L 90.359375 28.611328 L 90.359375 25.875 C 90.359375 25.402101 90.482485 25.027842 90.730469 24.753906 C 90.978452 24.479972 91.316448 24.34375 91.746094 24.34375 C 92.103652 24.34375 92.372003 24.457748 92.550781 24.685547 C 92.72956 24.913346 92.820312 25.256363 92.820312 25.714844 L 92.820312 28.611328 L 93.615234 28.611328 L 93.615234 25.6875 C 93.615234 25.018521 93.472969 24.513062 93.1875 24.169922 C 92.902031 23.823899 92.480349 23.650391 91.923828 23.650391 z M 62.585938 23.767578 L 62.585938 26.701172 C 62.585938 27.367267 62.731179 27.872727 63.019531 28.21875 C 63.307884 28.564773 63.730588 28.738281 64.287109 28.738281 C 64.624482 28.738281 64.920077 28.666683 65.173828 28.525391 C 65.430462 28.381214 65.65446 28.163261 65.847656 27.869141 L 65.847656 28.611328 L 66.644531 28.611328 L 66.644531 23.767578 L 65.847656 23.767578 L 65.847656 26.513672 C 65.847656 26.986571 65.72157 27.36083 65.470703 27.634766 C 65.22272 27.9087 64.884724 28.044922 64.455078 28.044922 C 64.097521 28.044922 63.829169 27.930924 63.650391 27.703125 C 63.471612 27.472443 63.382812 27.128403 63.382812 26.669922 L 63.382812 23.767578 L 62.585938 23.767578 z M 81.792969 23.767578 L 81.792969 28.611328 L 82.589844 28.611328 L 82.589844 23.767578 L 81.792969 23.767578 z M 58.927734 24.316406 C 59.348729 24.316406 59.679658 24.48387 59.921875 24.818359 C 60.164092 25.149965 60.285156 25.609956 60.285156 26.195312 C 60.285156 26.780668 60.164092 27.239729 59.921875 27.574219 C 59.679658 27.905825 59.348729 28.072266 58.927734 28.072266 C 58.506739 28.072266 58.173857 27.905825 57.931641 27.574219 C 57.692308 27.239729 57.574219 26.780668 57.574219 26.195312 C 57.574219 25.609956 57.692308 25.149965 57.931641 24.818359 C 58.173857 24.48387 58.506739 24.316406 58.927734 24.316406 z M 86.097656 24.326172 C 86.521535 24.326172 86.857485 24.494658 87.105469 24.832031 C 87.353453 25.166521 87.476563 25.62149 87.476562 26.195312 C 87.476563 26.772018 87.353453 27.226058 87.105469 27.560547 C 86.857485 27.895036 86.521535 28.0625 86.097656 28.0625 C 85.66801 28.0625 85.330015 27.898012 85.082031 27.566406 C 84.836931 27.231917 84.712891 26.774902 84.712891 26.195312 C 84.712891 25.615723 84.837953 25.159731 85.085938 24.828125 C 85.333921 24.493636 85.670894 24.326172 86.097656 24.326172 z M 75.367188 26.177734 L 76.158203 26.177734 L 76.158203 26.353516 C 76.158203 26.872551 76.024028 27.289211 75.755859 27.603516 C 75.490575 27.914936 75.138445 28.072266 74.697266 28.072266 C 74.377194 28.072266 74.122976 27.98858 73.935547 27.824219 C 73.751001 27.656974 73.658203 27.432976 73.658203 27.150391 C 73.658203 26.795717 73.783267 26.545498 74.03125 26.398438 C 74.279234 26.251378 74.724161 26.177734 75.367188 26.177734 z M 67.160156 32.511719 L 67.160156 33.519531 L 67.955078 33.519531 L 67.955078 32.511719 L 67.160156 32.511719 z M 51.640625 32.785156 L 51.640625 39.242188 L 52.513672 39.242188 L 52.513672 36.513672 L 53.464844 36.513672 C 53.810867 36.513672 54.08424 36.583317 54.283203 36.724609 C 54.48505 36.865903 54.692869 37.153408 54.90625 37.585938 L 55.732422 39.242188 L 56.669922 39.242188 L 55.783203 37.476562 C 55.604424 37.113238 55.426826 36.828708 55.248047 36.621094 C 55.072152 36.413482 54.890554 36.278284 54.703125 36.214844 C 55.063566 36.111036 55.336008 35.924418 55.523438 35.65625 C 55.713751 35.388082 55.808594 35.051109 55.808594 34.644531 C 55.808594 34.021689 55.626997 33.556584 55.263672 33.248047 C 54.900347 32.939509 54.349511 32.785156 53.611328 32.785156 L 51.640625 32.785156 z M 52.513672 33.501953 L 53.611328 33.501953 C 54.032323 33.501953 54.351072 33.599772 54.564453 33.792969 C 54.780718 33.983281 54.888672 34.266789 54.888672 34.644531 C 54.888672 35.022274 54.780718 35.309779 54.564453 35.505859 C 54.351072 35.699055 54.032323 35.794922 53.611328 35.794922 L 52.513672 35.794922 L 52.513672 33.501953 z M 59.462891 34.28125 C 58.736241 34.28125 58.158162 34.515291 57.728516 34.982422 C 57.301754 35.44667 57.087891 36.074217 57.087891 36.867188 C 57.087891 37.634206 57.313841 38.243529 57.763672 38.693359 C 58.216386 39.143189 58.828777 39.367188 59.601562 39.367188 C 59.9101 39.367187 60.213785 39.334924 60.513672 39.271484 C 60.813559 39.208046 61.107109 39.117202 61.392578 38.996094 L 61.392578 38.242188 C 61.109993 38.392131 60.82351 38.505106 60.535156 38.580078 C 60.249687 38.65505 59.954091 38.693359 59.648438 38.693359 C 59.120752 38.693359 58.709113 38.549141 58.412109 38.263672 C 58.117987 37.975319 57.952569 37.557636 57.917969 37.009766 L 61.578125 37.009766 L 61.578125 36.621094 C 61.578125 35.900212 61.388438 35.330221 61.007812 34.912109 C 60.63007 34.491115 60.114568 34.28125 59.462891 34.28125 z M 71.617188 34.28125 C 70.890538 34.28125 70.310505 34.515291 69.880859 34.982422 C 69.454097 35.44667 69.242188 36.074217 69.242188 36.867188 C 69.242187 37.634206 69.466185 38.243529 69.916016 38.693359 C 70.36873 39.143189 70.98112 39.367188 71.753906 39.367188 C 72.062444 39.367187 72.368082 39.334924 72.667969 39.271484 C 72.967856 39.208046 73.259453 39.117202 73.544922 38.996094 L 73.544922 38.242188 C 73.262336 38.392131 72.977806 38.505106 72.689453 38.580078 C 72.403984 38.65505 72.108388 38.693359 71.802734 38.693359 C 71.275048 38.693359 70.861456 38.549141 70.564453 38.263672 C 70.270331 37.975319 70.106866 37.557636 70.072266 37.009766 L 73.730469 37.009766 L 73.730469 36.621094 C 73.730469 35.900212 73.540782 35.330221 73.160156 34.912109 C 72.782414 34.491115 72.268865 34.28125 71.617188 34.28125 z M 61.876953 34.398438 L 63.693359 39.242188 L 64.775391 39.242188 L 66.591797 34.398438 L 65.748047 34.398438 L 64.234375 38.462891 L 62.720703 34.398438 L 61.876953 34.398438 z M 67.160156 34.398438 L 67.160156 39.242188 L 67.955078 39.242188 L 67.955078 34.398438 L 67.160156 34.398438 z M 74.15625 34.398438 L 75.423828 39.242188 L 76.361328 39.242188 L 77.408203 35.271484 L 78.451172 39.242188 L 79.390625 39.242188 L 80.65625 34.398438 L 79.861328 34.398438 L 78.871094 38.177734 L 77.875 34.398438 L 76.9375 34.398438 L 75.947266 38.177734 L 74.951172 34.398438 L 74.15625 34.398438 z M 59.470703 34.955078 C 59.862863 34.955078 60.177613 35.086185 60.414062 35.345703 C 60.653362 35.60522 60.77545 35.951306 60.78125 36.386719 L 57.945312 36.392578 C 57.985682 35.93698 58.137059 35.582898 58.402344 35.332031 C 58.670512 35.081164 59.02664 34.955078 59.470703 34.955078 z M 71.625 34.955078 C 72.01716 34.955078 72.33191 35.086185 72.568359 35.345703 C 72.807659 35.60522 72.929747 35.951306 72.935547 36.386719 L 70.097656 36.392578 C 70.138026 35.93698 70.291356 35.582898 70.556641 35.332031 C 70.824809 35.081164 71.180937 34.955078 71.625 34.955078 z "
   style="font-size:8.85820007px;font-family:WorkSans-Medium;fill:#ffffff" /><g
   id="text1132"
   style="font-size:8.85820007px;font-family:WorkSans-Medium;fill:#ffffff"
   aria-label=" " /><g
   id="text1146"
   style="font-size:8.85820007px;font-family:WorkSans-Medium;fill:#ffffff"
   aria-label=" " />
</svg>