<?xml version="1.0" encoding="UTF-8" standalone="no"?>
<svg
   xmlns:dc="http://purl.org/dc/elements/1.1/"
   xmlns:cc="http://creativecommons.org/ns#"
   xmlns:rdf="http://www.w3.org/1999/02/22-rdf-syntax-ns#"
   xmlns:svg="http://www.w3.org/2000/svg"
   xmlns="http://www.w3.org/2000/svg"
   viewBox="0 0 702 498"
   height="498"
   width="702"
   xml:space="preserve"
   id="svg1052"
   version="1.1"><metadata
     id="metadata1058"><rdf:RDF><cc:Work
         rdf:about=""><dc:format>image/svg+xml</dc:format><dc:type
           rdf:resource="http://purl.org/dc/dcmitype/StillImage" /><dc:title></dc:title></cc:Work></rdf:RDF></metadata><defs
     id="defs1056"><clipPath
       id="clipPath1068"
       clipPathUnits="userSpaceOnUse"><path
         id="path1066"
         d="M 0,357.697 H 511.933 V 0 H 0 Z" /></clipPath><clipPath
       id="clipPath1104"
       clipPathUnits="userSpaceOnUse"><path
         id="path1102"
         d="M 0,357.697 H 511.933 V 0 H 0 Z" /></clipPath><clipPath
       id="clipPath1160"
       clipPathUnits="userSpaceOnUse"><path
         id="path1158"
         d="M 0,357.697 H 511.933 V 0 H 0 Z" /></clipPath><clipPath
       id="clipPath1176"
       clipPathUnits="userSpaceOnUse"><path
         id="path1174"
         d="M 0,357.697 H 511.933 V 0 H 0 Z" /></clipPath><clipPath
       id="clipPath1192"
       clipPathUnits="userSpaceOnUse"><path
         id="path1190"
         d="M 0,357.697 H 511.933 V 0 H 0 Z" /></clipPath><clipPath
       id="clipPath1208"
       clipPathUnits="userSpaceOnUse"><path
         id="path1206"
         d="M 0,357.697 H 511.933 V 0 H 0 Z" /></clipPath><clipPath
       id="clipPath1224"
       clipPathUnits="userSpaceOnUse"><path
         id="path1222"
         d="M 0,357.697 H 511.933 V 0 H 0 Z" /></clipPath><clipPath
       id="clipPath1240"
       clipPathUnits="userSpaceOnUse"><path
         id="path1238"
         d="M 0,357.697 H 511.933 V 0 H 0 Z" /></clipPath></defs><g
     transform="matrix(1.3333333,0,0,-1.3333333,2.7881336,487.93934)"
     id="g1060"><g
       style="fill:#000000"
       transform="matrix(1.0284838,0,0,1.0284626,-2.0980874,-1.9412771)"
       id="g1062"><g
         style="fill:#000000"
         clip-path="url(#clipPath1068)"
         id="g1064"><g
           style="fill:#000000"
           transform="translate(124.2688,124.3724)"
           id="g1070"><path
             id="path1072"
             style="fill:#000000;fill-opacity:1;fill-rule:nonzero;stroke:none"
             d="m 0,0 c -8.538,8.538 -20.808,8.896 -28.555,1.147 -8.036,-8.036 -7.534,-20.159 1.004,-28.697 8.54,-8.54 20.664,-9.042 28.699,-1.007 C 8.968,-20.737 8.54,-8.54 0,0 M -39.463,-39.462 C -54.171,-24.754 -54.456,-2.8 -39.532,12.124 -24.824,26.832 -2.799,26.618 11.909,11.91 26.617,-2.798 26.834,-24.825 12.126,-39.533 -2.87,-54.529 -24.755,-54.17 -39.463,-39.462" /></g><g
           style="fill:#000000"
           transform="translate(186.508,134.9525)"
           id="g1074"><path
             id="path1076"
             style="fill:#000000;fill-opacity:1;fill-rule:nonzero;stroke:none"
             d="m 0,0 c -11.91,-11.909 -26.189,-11.407 -36.45,-1.146 l 11.122,11.122 c 4.809,-4.81 10.618,-5.312 16,0.071 3.226,3.226 4.447,7.602 1.219,10.831 -3.444,3.443 -8.895,1.866 -16.643,-1.579 -9.471,-3.874 -21.095,-8.179 -29.418,0.144 -9.542,9.542 -7.46,22.243 1.865,31.568 10.979,10.979 24.395,10.189 32.862,1.722 L -29.847,42.33 c -3.66,3.084 -8.466,3.445 -12.771,-0.859 -3.157,-3.158 -3.731,-7.033 -1.004,-9.761 2.653,-2.653 6.31,-1.575 13.92,1.58 13.056,5.166 24.248,8.181 33.361,-0.933 C 13.201,22.815 10.403,10.403 0,0" /></g><g
           style="fill:#000000"
           transform="translate(260.7512,261.0121)"
           id="g1078"><path
             id="path1080"
             style="fill:#000000;fill-opacity:1;fill-rule:nonzero;stroke:none"
             d="m 0,0 c -8.538,8.538 -20.807,8.895 -28.555,1.147 -8.036,-8.036 -7.534,-20.16 1.004,-28.697 8.54,-8.54 20.664,-9.043 28.699,-1.007 C 8.968,-20.737 8.54,-8.54 0,0 m -39.46,-39.46 c -14.708,14.708 -14.994,36.662 -0.072,51.584 14.708,14.708 36.733,14.494 51.441,-0.214 14.708,-14.708 14.925,-36.735 0.217,-51.443 -14.996,-14.996 -36.878,-14.635 -51.586,0.073" /></g><g
           style="fill:#000000"
           transform="translate(230.5139,202.6956)"
           id="g1082"><path
             id="path1084"
             style="fill:#000000;fill-opacity:1;fill-rule:nonzero;stroke:none"
             d="m 0,0 10.948,-10.948 -28.501,-28.5 -49.889,49.889 11.122,11.122 38.941,-38.942 z" /></g><g
           style="fill:#000000"
           transform="translate(427.9543,95.8275)"
           id="g1086"><path
             id="path1088"
             style="fill:#000000;fill-opacity:1;fill-rule:nonzero;stroke:none"
             d="m 0,0 -11.115,11.115 -38.739,-38.738 -11.335,11.336 38.738,38.738 -11.123,11.123 10.32,10.32 33.573,-33.574 z" /></g><g
           style="fill:#000000"
           transform="translate(358.3567,108.5003)"
           id="g1090"><path
             id="path1092"
             style="fill:#000000;fill-opacity:1;fill-rule:nonzero;stroke:none"
             d="M 0,0 -10.332,-10.332 -39.552,18.888 9.562,68.002 38.756,38.809 28.424,28.477 10.278,46.622 1.291,37.635 17.746,21.179 7.987,11.421 -8.468,27.876 -18.172,18.172 Z" /></g><g
           style="fill:#000000"
           transform="translate(309.7649,136.4281)"
           id="g1094"><path
             id="path1096"
             style="fill:#000000;fill-opacity:1;fill-rule:nonzero;stroke:none"
             d="M 0,0 -10.977,10.977 16.037,38.151 -20.413,20.401 -30.547,30.535 -12.829,67.326 -40.013,40.013 -50.989,50.989 -1.875,100.104 12.76,85.469 -9.667,41.139 34.406,63.822 49.114,49.114 Z" /></g></g></g><g
       id="g1098"><g
         clip-path="url(#clipPath1104)"
         id="g1100"><g
           transform="translate(511.9328,0.5003)"
           id="g1106"><path
             id="path1108"
             style="fill:none;stroke:#ffdc00;stroke-width:0.5;stroke-linecap:butt;stroke-linejoin:miter;stroke-miterlimit:10;stroke-dasharray:none;stroke-opacity:1"
             d="M 0,0 V -0.5 H -0.5" /></g><g
           transform="translate(510.4328,3e-4)"
           id="g1110"><path
             id="path1112"
             style="fill:none;stroke:#ffdc00;stroke-width:0.5;stroke-linecap:butt;stroke-linejoin:miter;stroke-miterlimit:10;stroke-dasharray:1, 1;stroke-dashoffset:0;stroke-opacity:1"
             d="M 0,0 H -509.433" /></g><g
           transform="translate(0.5002,3e-4)"
           id="g1114"><path
             id="path1116"
             style="fill:none;stroke:#ffdc00;stroke-width:0.5;stroke-linecap:butt;stroke-linejoin:miter;stroke-miterlimit:10;stroke-dasharray:none;stroke-opacity:1"
             d="M 0,0 H -0.5 V 0.5" /></g><g
           transform="translate(2e-4,1.4994)"
           id="g1118"><path
             id="path1120"
             style="fill:none;stroke:#ffdc00;stroke-width:0.5;stroke-linecap:butt;stroke-linejoin:miter;stroke-miterlimit:10;stroke-dasharray:0.999, 0.999;stroke-dashoffset:0;stroke-opacity:1"
             d="M 0,0 V 355.198" /></g><g
           transform="translate(2e-4,357.1966)"
           id="g1122"><path
             id="path1124"
             style="fill:none;stroke:#ffdc00;stroke-width:0.5;stroke-linecap:butt;stroke-linejoin:miter;stroke-miterlimit:10;stroke-dasharray:none;stroke-opacity:1"
             d="M 0,0 V 0.5 H 0.5" /></g><g
           transform="translate(1.5002,357.6966)"
           id="g1126"><path
             id="path1128"
             style="fill:none;stroke:#ffdc00;stroke-width:0.5;stroke-linecap:butt;stroke-linejoin:miter;stroke-miterlimit:10;stroke-dasharray:1, 1;stroke-dashoffset:0;stroke-opacity:1"
             d="M 0,0 H 509.433" /></g><g
           transform="translate(511.4328,357.6966)"
           id="g1130"><path
             id="path1132"
             style="fill:none;stroke:#ffdc00;stroke-width:0.5;stroke-linecap:butt;stroke-linejoin:miter;stroke-miterlimit:10;stroke-dasharray:none;stroke-opacity:1"
             d="M 0,0 H 0.5 V -0.5" /></g><g
           transform="translate(511.9328,356.1976)"
           id="g1134"><path
             id="path1136"
             style="fill:none;stroke:#ffdc00;stroke-width:0.5;stroke-linecap:butt;stroke-linejoin:miter;stroke-miterlimit:10;stroke-dasharray:0.999, 0.999;stroke-dashoffset:0;stroke-opacity:1"
             d="M 0,0 V -355.198" /></g></g></g><g
       transform="translate(246.9729,283.3607)"
       id="g1138"><path
         id="path1140"
         style="fill:none;stroke:#ffdc00;stroke-width:0.5;stroke-linecap:butt;stroke-linejoin:miter;stroke-miterlimit:10;stroke-dasharray:none;stroke-opacity:1"
         d="M 0,0 V -72.584" /></g><g
       transform="translate(243.2863,280.0833)"
       id="g1142"><path
         id="path1144"
         style="fill:none;stroke:#ffdc00;stroke-width:0.5;stroke-linecap:butt;stroke-linejoin:miter;stroke-miterlimit:10;stroke-dasharray:none;stroke-opacity:1"
         d="M 0,0 3.66,3.66 7.372,-0.052" /></g><g
       transform="translate(250.6584,214.4369)"
       id="g1146"><path
         id="path1148"
         style="fill:none;stroke:#ffdc00;stroke-width:0.5;stroke-linecap:butt;stroke-linejoin:miter;stroke-miterlimit:10;stroke-dasharray:none;stroke-opacity:1"
         d="M 0,0 -3.66,-3.66 -7.372,0.051" /></g><g
       transform="translate(246.9729,356.8763)"
       id="g1150"><path
         id="path1152"
         style="fill:none;stroke:#ffdc00;stroke-width:0.5;stroke-linecap:butt;stroke-linejoin:miter;stroke-miterlimit:10;stroke-dasharray:none;stroke-opacity:1"
         d="M 0,0 V -72.584" /></g><g
       id="g1154"><g
         clip-path="url(#clipPath1160)"
         id="g1156"><g
           transform="translate(243.2863,353.599)"
           id="g1162"><path
             id="path1164"
             style="fill:none;stroke:#ffdc00;stroke-width:0.5;stroke-linecap:butt;stroke-linejoin:miter;stroke-miterlimit:10;stroke-dasharray:none;stroke-opacity:1"
             d="M 0,0 3.66,3.659 7.372,-0.052" /></g></g></g><g
       transform="translate(250.6584,287.9515)"
       id="g1166"><path
         id="path1168"
         style="fill:none;stroke:#ffdc00;stroke-width:0.5;stroke-linecap:butt;stroke-linejoin:miter;stroke-miterlimit:10;stroke-dasharray:none;stroke-opacity:1"
         d="M 0,0 -3.66,-3.659 -7.372,0.052" /></g><g
       id="g1170"><g
         clip-path="url(#clipPath1176)"
         id="g1172"><g
           transform="translate(246.9729,72.8529)"
           id="g1178"><path
             id="path1180"
             style="fill:none;stroke:#ffdc00;stroke-width:0.5;stroke-linecap:butt;stroke-linejoin:miter;stroke-miterlimit:10;stroke-dasharray:none;stroke-opacity:1"
             d="M 0,0 V -72.584" /></g></g></g><g
       transform="translate(243.2863,69.5755)"
       id="g1182"><path
         id="path1184"
         style="fill:none;stroke:#ffdc00;stroke-width:0.5;stroke-linecap:butt;stroke-linejoin:miter;stroke-miterlimit:10;stroke-dasharray:none;stroke-opacity:1"
         d="M 0,0 3.66,3.66 7.372,-0.052" /></g><g
       id="g1186"><g
         clip-path="url(#clipPath1192)"
         id="g1188"><g
           transform="translate(250.6584,3.9281)"
           id="g1194"><path
             id="path1196"
             style="fill:none;stroke:#ffdc00;stroke-width:0.5;stroke-linecap:butt;stroke-linejoin:miter;stroke-miterlimit:10;stroke-dasharray:none;stroke-opacity:1"
             d="M 0,0 -3.66,-3.659 -7.372,0.052" /></g></g></g><g
       transform="translate(510.8987,186.4798)"
       id="g1198"><path
         id="path1200"
         style="fill:none;stroke:#ffdc00;stroke-width:0.5;stroke-linecap:butt;stroke-linejoin:miter;stroke-miterlimit:10;stroke-dasharray:none;stroke-opacity:1"
         d="M 0,0 H -72.584" /></g><g
       id="g1202"><g
         clip-path="url(#clipPath1208)"
         id="g1204"><g
           transform="translate(507.6223,190.1654)"
           id="g1210"><path
             id="path1212"
             style="fill:none;stroke:#ffdc00;stroke-width:0.5;stroke-linecap:butt;stroke-linejoin:miter;stroke-miterlimit:10;stroke-dasharray:none;stroke-opacity:1"
             d="M 0,0 3.659,-3.66 -0.052,-7.371" /></g></g></g><g
       transform="translate(441.9748,182.7943)"
       id="g1214"><path
         id="path1216"
         style="fill:none;stroke:#ffdc00;stroke-width:0.5;stroke-linecap:butt;stroke-linejoin:miter;stroke-miterlimit:10;stroke-dasharray:none;stroke-opacity:1"
         d="M 0,0 -3.66,3.659 0.052,7.371" /></g><g
       id="g1218"><g
         clip-path="url(#clipPath1224)"
         id="g1220"><g
           transform="translate(73.1838,186.4798)"
           id="g1226"><path
             id="path1228"
             style="fill:none;stroke:#ffdc00;stroke-width:0.5;stroke-linecap:butt;stroke-linejoin:miter;stroke-miterlimit:10;stroke-dasharray:none;stroke-opacity:1"
             d="M 0,0 H -72.584" /></g></g></g><g
       transform="translate(69.9065,190.1654)"
       id="g1230"><path
         id="path1232"
         style="fill:none;stroke:#ffdc00;stroke-width:0.5;stroke-linecap:butt;stroke-linejoin:miter;stroke-miterlimit:10;stroke-dasharray:none;stroke-opacity:1"
         d="M 0,0 3.66,-3.66 -0.051,-7.371" /></g><g
       id="g1234"><g
         clip-path="url(#clipPath1240)"
         id="g1236"><g
           transform="translate(4.26,182.7943)"
           id="g1242"><path
             id="path1244"
             style="fill:none;stroke:#ffdc00;stroke-width:0.5;stroke-linecap:butt;stroke-linejoin:miter;stroke-miterlimit:10;stroke-dasharray:none;stroke-opacity:1"
             d="M 0,0 -3.66,3.659 0.052,7.371" /></g></g></g><g
       transform="translate(437.6721,74.2347)"
       id="g1246"><path
         id="path1248"
         style="fill:none;stroke:#ffdc00;stroke-width:0.5;stroke-linecap:butt;stroke-linejoin:miter;stroke-miterlimit:10;stroke-dasharray:none;stroke-opacity:1"
         d="M 0,0 V -0.499 H -0.499" /></g><g
       transform="translate(436.174,73.7357)"
       id="g1250"><path
         id="path1252"
         style="fill:none;stroke:#ffdc00;stroke-width:0.5;stroke-linecap:butt;stroke-linejoin:miter;stroke-miterlimit:10;stroke-dasharray:0.998, 0.998;stroke-dashoffset:0;stroke-opacity:1"
         d="M 0,0 H -360.915" /></g><g
       transform="translate(74.76,73.7357)"
       id="g1254"><path
         id="path1256"
         style="fill:none;stroke:#ffdc00;stroke-width:0.5;stroke-linecap:butt;stroke-linejoin:miter;stroke-miterlimit:10;stroke-dasharray:none;stroke-opacity:1"
         d="M 0,0 H -0.5 V 0.499" /></g><g
       transform="translate(74.26,75.2367)"
       id="g1258"><path
         id="path1260"
         style="fill:none;stroke:#ffdc00;stroke-width:0.5;stroke-linecap:butt;stroke-linejoin:miter;stroke-miterlimit:10;stroke-dasharray:1.002, 1.002;stroke-dashoffset:0;stroke-opacity:1"
         d="M 0,0 V 207.823" /></g><g
       transform="translate(74.26,283.5609)"
       id="g1262"><path
         id="path1264"
         style="fill:none;stroke:#ffdc00;stroke-width:0.5;stroke-linecap:butt;stroke-linejoin:miter;stroke-miterlimit:10;stroke-dasharray:none;stroke-opacity:1"
         d="M 0,0 V 0.5 H 0.5" /></g><g
       transform="translate(75.758,284.0609)"
       id="g1266"><path
         id="path1268"
         style="fill:none;stroke:#ffdc00;stroke-width:0.5;stroke-linecap:butt;stroke-linejoin:miter;stroke-miterlimit:10;stroke-dasharray:0.998, 0.998;stroke-dashoffset:0;stroke-opacity:1"
         d="M 0,0 H 360.916" /></g><g
       transform="translate(437.1731,284.0609)"
       id="g1270"><path
         id="path1272"
         style="fill:none;stroke:#ffdc00;stroke-width:0.5;stroke-linecap:butt;stroke-linejoin:miter;stroke-miterlimit:10;stroke-dasharray:none;stroke-opacity:1"
         d="M 0,0 H 0.499 V -0.5" /></g><g
       transform="translate(437.6721,282.5599)"
       id="g1274"><path
         id="path1276"
         style="fill:none;stroke:#ffdc00;stroke-width:0.5;stroke-linecap:butt;stroke-linejoin:miter;stroke-miterlimit:10;stroke-dasharray:1.002, 1.002;stroke-dashoffset:0;stroke-opacity:1"
         d="M 0,0 V -207.824" /></g><rect
       ry="8.1689253"
       transform="scale(1,-1)"
       y="-128.89572"
       x="-230.35912"
       height="73.763367"
       width="73.763367"
       id="rect1278"
       style="opacity:1;fill:#ffffa7;fill-opacity:1;stroke:none;stroke-width:1;stroke-linecap:round;stroke-linejoin:round;stroke-miterlimit:4;stroke-dasharray:58.98330559, 58.98330559;stroke-dashoffset:0;stroke-opacity:1" /></g></svg>